<svg width="72" height="72" viewBox="0 0 72 72" fill="none" xmlns="http://www.w3.org/2000/svg">
<path opacity="0.4" d="M28.2933 7.84017C26.16 9.9735 24.0467 10.9736 21.0067 10.9736C18.3533 10.9736 14.5733 10.44 12.5 12.54C10.44 14.6067 10.9533 18.3735 10.9533 21.0068C10.9533 24.0402 9.96341 26.1736 7.83008 28.307C4.27675 31.8403 2.5 33.6402 2.5 35.8402C2.5 38.0402 4.27675 39.84 7.83008 43.3734C10.2201 45.7734 10.9533 47.3068 10.9533 50.6735C10.9533 53.3068 10.4399 57.1068 12.5299 59.1735C14.6066 61.2402 18.37 60.7067 21.0067 60.7067C24.2433 60.7067 25.8034 61.3402 28.1167 63.6735C30.0834 65.6402 32.72 69.1735 35.8333 69.1735C38.9467 69.1735 41.5833 65.6402 43.55 63.6735C45.8633 61.3402 47.4233 60.7067 50.66 60.7067C53.2967 60.7067 57.0601 61.2402 59.1367 59.1735C61.2267 57.1068 60.7134 53.3068 60.7134 50.6735C60.7134 47.3068 61.4466 45.7734 63.8366 43.3734C67.3899 39.84 69.1667 38.0402 69.1667 35.8402C69.1667 33.6402 67.3899 31.8403 63.8366 28.307C61.4466 25.907 60.7134 24.3735 60.7134 21.0068C60.7134 18.3735 61.2267 14.5735 59.1367 12.5068C57.0601 10.4402 53.2967 10.9736 50.66 10.9736C47.6167 10.9736 45.5067 9.9735 43.3734 7.84017C39.82 4.2735 38.04 2.50684 35.8333 2.50684C33.6267 2.50684 31.8466 4.2735 28.2933 7.84017Z" fill="#150941"/>
<path d="M35.833 0C39.0963 0 41.3736 2.28365 45.1436 6.07031C46.1164 7.04696 46.1131 8.6299 45.1367 9.60645C44.1601 10.5798 42.5763 10.5796 41.5996 9.59961C38.59 6.58 36.9667 5.00323 35.8301 5.00293C34.6934 5.00293 33.0695 6.57966 30.0596 9.59961C27.3829 12.2763 24.5896 13.4697 21.0029 13.4697C20.5496 13.4697 20.0629 13.4561 19.5596 13.4395C17.6397 13.3795 15.2464 13.3065 14.2764 14.293C13.2964 15.2762 13.3662 17.6695 13.4229 19.5928C13.4362 20.086 13.4502 20.5597 13.4502 21.0029C13.4502 24.6063 12.2594 27.4036 9.59277 30.0703C6.5696 33.0768 4.99609 34.6969 4.99609 35.8369C4.99639 36.9769 6.57013 38.597 9.58984 41.5967C12.513 44.5332 13.4502 46.7367 13.4502 50.6699C13.4502 51.1099 13.4362 51.5797 13.4229 52.0664C13.3662 54.003 13.2966 56.4163 14.2832 57.3896C15.2631 58.3629 17.6395 58.2928 19.5527 58.2295C20.0561 58.2128 20.5329 58.2002 21.0029 58.2002C24.9462 58.2002 27.1064 59.0997 29.8896 61.9062C30.253 62.2696 30.6301 62.6729 31.0234 63.0996C32.4234 64.6063 34.3434 66.667 35.8301 66.667C37.3167 66.6667 39.2368 64.6028 40.6367 63.0996C41.0333 62.6731 41.4061 62.2726 41.7793 61.8994C44.5526 59.0995 46.713 58.2002 50.6562 58.2002C51.1263 58.2002 51.6031 58.2128 52.1064 58.2295C54.0164 58.2895 56.3968 58.3635 57.3701 57.3936L57.376 57.3867C58.3593 56.4101 58.2897 54.0001 58.2363 52.0635C58.223 51.5736 58.21 51.1036 58.21 50.667C58.21 46.7337 59.1468 44.5302 62.0635 41.6035C65.0901 38.5936 66.6631 36.973 66.6631 35.833C66.6628 34.693 65.0891 33.073 62.0693 30.0732C61.0895 29.0999 61.0863 27.5161 62.0596 26.5361C63.0329 25.5562 64.6167 25.5531 65.5967 26.5264C69.3798 30.2895 71.6629 32.5599 71.6631 35.833C71.6631 39.1062 69.3798 41.3765 65.5967 45.1396C63.6133 47.1297 63.21 48.0637 63.21 50.667C63.21 51.0602 63.223 51.4834 63.2363 51.9199C63.313 54.5566 63.4163 58.1264 61.1963 60.623C61.0396 60.843 60.846 61.0367 60.626 61.1934C58.1327 63.4163 54.5763 63.3066 51.9531 63.2266C51.4998 63.2132 51.0629 63.2002 50.6562 63.2002C48.0564 63.2002 47.1599 63.5735 45.3232 65.4268C45.0067 65.7433 44.6634 66.1131 44.2969 66.5029C42.2703 68.6829 39.4933 71.6668 35.8301 71.667L35.833 71.6729C32.1697 71.6729 29.3929 68.6898 27.3662 66.5098C27.0029 66.1165 26.6563 65.7461 26.3496 65.4395C24.5065 63.5797 23.6097 63.2061 21.0068 63.2061C20.6003 63.2061 20.1632 63.2201 19.71 63.2334C16.9901 63.3167 13.2666 63.433 10.7666 60.9434C8.23993 58.4467 8.35009 54.6762 8.42676 51.9229C8.44009 51.4863 8.45312 51.0632 8.45312 50.6699C8.45312 48.0666 8.04957 47.1328 6.05957 45.1328C2.28651 41.3797 0.000151107 39.11 0 35.8369C0 32.5636 2.28317 30.2935 6.06641 26.5303C7.80307 24.7936 8.45312 23.2929 8.45312 21.0029C8.45312 20.6064 8.44009 20.1795 8.42676 19.7363C8.34676 17.0064 8.23625 13.2694 10.7295 10.7695C13.2228 8.24295 16.9768 8.35612 19.7168 8.43945C20.1666 8.45278 20.6003 8.4668 21.0068 8.4668C23.2799 8.4667 24.7765 7.81628 26.5264 6.06641C30.293 2.28641 32.5697 4.24583e-07 35.833 0ZM63.9756 4.16699C64.8989 3.14033 66.4792 3.05616 67.5059 3.97949C68.5325 4.90277 68.6155 6.48309 67.6924 7.50977L37.6924 40.8428C37.2324 41.3528 36.5851 41.6533 35.8984 41.6699H35.832V41.6729C35.1687 41.6728 34.5354 41.4094 34.0654 40.9395L22.3984 29.2734C21.4219 28.2968 21.4218 26.713 22.3984 25.7363C23.375 24.7598 24.9589 24.7599 25.9355 25.7363L35.7393 35.54L63.9756 4.16699Z" fill="#150941"/>
</svg>
