<svg width="27" height="22" viewBox="0 0 27 22" fill="none" xmlns="http://www.w3.org/2000/svg">
<path d="M15.5879 12.5C19.0626 12.5002 21.8876 15.325 21.8877 18.7998C21.8877 20.4998 20.5 21.875 18.8125 21.875H8.0752C6.3752 21.875 5 20.4998 5 18.7998C5.00013 15.325 7.82498 12.5001 11.2998 12.5H15.5879ZM6.2998 11.25C6.8123 11.25 7.2373 11.675 7.2373 12.1875C7.2373 12.7 6.8123 13.125 6.2998 13.125C3.86248 13.1251 1.87513 15.1125 1.875 17.5498C1.875 18.2123 2.4127 18.75 3.0752 18.75C3.58761 18.7501 4.0127 19.1751 4.0127 19.6875C4.0127 20.1999 3.58761 20.6249 3.0752 20.625C1.3752 20.625 0 19.2498 0 17.5498C0.00013231 14.075 2.82498 11.2501 6.2998 11.25ZM20.5664 11.25C24.0413 11.25 26.8661 14.0749 26.8662 17.5498C26.8662 19.2498 25.4785 20.625 23.791 20.625C23.2787 20.6248 22.8535 20.1999 22.8535 19.6875C22.8535 19.1751 23.2787 18.7502 23.791 18.75C24.4535 18.75 24.9912 18.2123 24.9912 17.5498C24.9911 15.1124 23.0038 13.125 20.5664 13.125C20.0539 13.125 19.6289 12.7 19.6289 12.1875C19.6289 11.675 20.0539 11.25 20.5664 11.25ZM11.2871 14.375C8.84987 14.3752 6.86244 16.3625 6.8623 18.7998C6.8623 19.4623 7.4 20 8.0625 20H18.7754C19.4377 19.9998 19.9746 19.4622 19.9746 18.7998C19.9745 16.3624 17.9872 14.375 15.5498 14.375H11.2871ZM13.4375 1.25C16.025 1.25 18.125 3.35 18.125 5.9375C18.125 8.525 16.025 10.625 13.4375 10.625C10.85 10.625 8.75 8.525 8.75 5.9375C8.75 3.35 10.85 1.25 13.4375 1.25ZM8.4375 0C8.95 0 9.375 0.425 9.375 0.9375C9.375 1.45 8.95 1.875 8.4375 1.875C6.8875 1.875 5.625 3.1375 5.625 4.6875C5.625 5.79987 6.27481 6.81242 7.28711 7.25C7.76199 7.46245 7.97514 8.01238 7.77539 8.4873C7.62539 8.83731 7.27461 9.0498 6.91211 9.0498C6.78724 9.04975 6.66198 9.02456 6.53711 8.97461C4.83736 8.23701 3.75 6.54984 3.75 4.6875C3.75 2.1 5.85 0 8.4375 0ZM18.4375 0C21.025 0 23.125 2.1 23.125 4.6875C23.125 6.54984 22.0251 8.22451 20.3379 8.97461C20.213 9.02456 20.0878 9.04975 19.9629 9.0498C19.6004 9.0498 19.2621 8.83731 19.0996 8.4873C18.8874 8.01238 19.1005 7.46245 19.5879 7.25C20.6002 6.79993 21.25 5.79987 21.25 4.6875C21.25 3.1375 19.9875 1.875 18.4375 1.875C17.925 1.875 17.5 1.45 17.5 0.9375C17.5 0.425 17.925 0 18.4375 0ZM13.4375 3.125C11.8875 3.125 10.625 4.3875 10.625 5.9375C10.625 7.4875 11.8875 8.75 13.4375 8.75C14.9875 8.75 16.25 7.4875 16.25 5.9375C16.25 4.3875 14.9875 3.125 13.4375 3.125Z" fill="white"/>
</svg>
