<svg width="26" height="26" viewBox="0 0 26 26" fill="none" xmlns="http://www.w3.org/2000/svg">
<path d="M13.5088 25.625C16.0999 25.625 18.1402 25.6254 19.7344 25.4111C21.3701 25.1912 22.6761 24.7301 23.7031 23.7031C24.7301 22.6761 25.1912 21.3701 25.4111 19.7344C25.6254 18.1402 25.625 16.0999 25.625 13.5088V12.1162C25.625 9.5251 25.6254 7.48475 25.4111 5.89063C25.1912 4.2549 24.7301 2.94886 23.7031 1.92188C22.6761 0.894892 21.3701 0.433784 19.7344 0.213867C18.1402 -0.000429153 16.0999 -1.71661e-05 13.5088 0H12.1162C9.5251 -1.71661e-05 7.48475 -0.000429153 5.89063 0.213867C4.2549 0.433784 2.94886 0.894892 1.92188 1.92188C0.894892 2.94886 0.433785 4.2549 0.213867 5.89062C-0.000428747 7.48475 -1.78801e-05 9.5251 0 12.1162L0 13.5088C-1.78801e-05 16.0999 -0.000428544 18.1402 0.213867 19.7344C0.433784 21.3701 0.894892 22.6761 1.92188 23.7031C2.94886 24.7301 4.2549 25.1912 5.89062 25.4111C7.48475 25.6254 9.5251 25.625 12.1162 25.625H13.5088ZM12.1875 23.75C9.50959 23.75 7.59535 23.7483 6.14062 23.5527C4.71282 23.3608 3.86859 22.9975 3.24805 22.377C2.62751 21.7564 2.26423 20.9122 2.07227 19.4844C1.87673 18.0296 1.875 16.1154 1.875 13.4375V12.1875C1.875 9.50959 1.87673 7.59535 2.07227 6.14062C2.26423 4.71282 2.62751 3.86859 3.24805 3.24805C3.86859 2.62751 4.71282 2.26423 6.14063 2.07227C7.59535 1.87673 9.50959 1.875 12.1875 1.875H13.4375C16.1154 1.875 18.0296 1.87673 19.4844 2.07227C20.9122 2.26423 21.7564 2.62751 22.377 3.24805C22.9975 3.86859 23.3608 4.71282 23.5527 6.14063C23.7483 7.59535 23.75 9.50959 23.75 12.1875V13.4375C23.75 16.1154 23.7483 18.0296 23.5527 19.4844C23.3608 20.9122 22.9975 21.7564 22.377 22.377C21.7564 22.9975 20.9122 23.3608 19.4844 23.5527C18.0296 23.7483 16.1154 23.75 13.4375 23.75H12.1875ZM10.7324 16.9551C11.0719 16.8867 11.364 16.6921 11.5537 16.4248L12.3184 15.3271C12.3977 15.2137 12.4443 15.077 12.4443 14.9297V13.3154L13.915 13.0137V15.9229L18.6357 14.9512C18.8586 14.4729 19.006 13.9536 19.0625 13.4092L15.3857 14.166V12.7109L18.6357 12.043C18.8588 11.5645 19.006 11.0447 19.0625 10.5L15.3857 11.2559V6.02441C14.8223 6.33055 14.3218 6.73808 13.915 7.21875V11.5586L12.4443 11.8613V5.3125C11.8809 5.61853 11.3804 6.02616 10.9736 6.50684V12.1631L7.68359 12.8398C7.46054 13.3183 7.31246 13.8381 7.25586 14.3828L10.9736 13.6182V15.4502L6.98926 16.2695C6.7662 16.7481 6.61899 17.2678 6.5625 17.8125L10.7324 16.9551ZM18.6475 18.0967C18.8641 17.6208 19.0075 17.1042 19.0625 16.5625L14.4775 17.5283C14.2609 18.0043 14.1174 18.5208 14.0625 19.0625L18.6475 18.0967Z" fill="white"/>
</svg>
