<svg width="40" height="40" viewBox="0 0 40 40" fill="none" xmlns="http://www.w3.org/2000/svg">
<path opacity="0.4" d="M36.6693 19.9998C36.6693 10.7951 29.2074 3.33317 20.0026 3.33317C10.7979 3.33317 3.33594 10.7951 3.33594 19.9998C3.33594 29.2046 10.7979 36.6665 20.0026 36.6665C29.2074 36.6665 36.6693 29.2046 36.6693 19.9998Z" fill="#E01F3D"/>
<path d="M20.0029 2.08301C29.898 2.08301 37.9199 10.1049 37.9199 20C37.9199 29.8951 29.898 37.917 20.0029 37.917C10.1078 37.917 2.08594 29.8951 2.08594 20C2.08594 10.1049 10.1078 2.08301 20.0029 2.08301ZM20.0029 4.58301C11.4885 4.58301 4.58594 11.4856 4.58594 20C4.58594 28.5144 11.4885 35.417 20.0029 35.417C28.5173 35.417 35.4199 28.5144 35.4199 20C35.4199 11.4856 28.5173 4.58301 20.0029 4.58301ZM24.1191 14.1162C24.6073 13.6281 25.3986 13.6281 25.8867 14.1162C26.3749 14.6043 26.3748 15.3956 25.8867 15.8838L21.7705 20.001L25.8857 24.1162C26.3738 24.6044 26.3738 25.3957 25.8857 25.8838C25.3976 26.3719 24.6063 26.3719 24.1182 25.8838L20.0029 21.7686L15.8877 25.8838C15.3996 26.3719 14.6083 26.3719 14.1201 25.8838C13.632 25.3957 13.632 24.6044 14.1201 24.1162L18.2354 20.001L14.1191 15.8838C13.631 15.3956 13.631 14.6043 14.1191 14.1162C14.6073 13.6281 15.3986 13.6281 15.8867 14.1162L20.0029 18.2324L24.1191 14.1162Z" fill="#E01F3D"/>
</svg>
