<svg width="39" height="39" viewBox="0 0 39 39" fill="none" xmlns="http://www.w3.org/2000/svg">
<path d="M29.8635 29.25C27.5077 29.2478 25.5961 31.1557 25.5938 33.5115C25.5914 35.8673 27.4994 37.7789 29.8552 37.7812C32.2111 37.7835 34.1227 35.8756 34.125 33.5198C34.125 33.5184 34.125 33.517 34.125 33.5157C34.1228 31.1623 32.2168 29.2546 29.8635 29.25Z" fill="#DADADA"/>
<path d="M37.5826 7.65698C37.4742 7.63566 37.3639 7.62483 37.2533 7.62466H9.63919L9.20184 4.65682C8.92935 2.68582 7.26726 1.21936 5.30508 1.21875H1.7494C0.783214 1.21875 0 2.0132 0 2.99324C0 3.97327 0.783214 4.76772 1.7494 4.76772H5.30944C5.53187 4.76607 5.72013 4.93408 5.74679 5.15814L8.44084 23.8878C8.81019 26.2678 10.8284 28.0235 13.2036 28.0312H31.4017C33.6884 28.0343 35.6612 26.4041 36.1207 24.1318L38.9678 9.73628C39.1514 8.77409 38.5312 7.84318 37.5826 7.65698Z" fill="#DADADA"/>
<path d="M18.277 33.3308C18.1749 31.043 16.2523 29.2421 13.9203 29.25C11.5222 29.3452 9.6567 31.3315 9.75361 33.6865C9.84659 35.9462 11.7184 37.7423 14.0209 37.7812H14.1257C16.5235 37.678 18.382 35.6855 18.277 33.3308Z" fill="#DADADA"/>
</svg>
