<svg width="30" height="30" viewBox="0 0 30 30" fill="none" xmlns="http://www.w3.org/2000/svg">
<path d="M1.25 8.33301C1.93319 8.33319 2.5 8.89978 2.5 9.58301V27.916C2.5 28.5992 1.93319 29.1658 1.25 29.166C0.566667 29.166 0 28.5993 0 27.916V9.58301C3.29609e-08 8.89967 0.566667 8.33301 1.25 8.33301ZM7.91602 0C8.59935 0 9.16602 0.566667 9.16602 1.25V27.916C9.16602 28.5993 8.59935 29.166 7.91602 29.166C7.23283 29.1658 6.66602 28.5992 6.66602 27.916V1.25C6.66602 0.566775 7.23283 0.000179783 7.91602 0ZM14.583 11.666C15.2662 11.666 15.8328 12.2328 15.833 12.916V27.916C15.833 28.5993 15.2663 29.166 14.583 29.166C13.8997 29.166 13.333 28.5993 13.333 27.916V12.916C13.3332 12.2328 13.8998 11.666 14.583 11.666ZM21.25 5C21.9332 5.00018 22.5 5.56678 22.5 6.25V27.916C22.5 28.5992 21.9332 29.1658 21.25 29.166C20.5667 29.166 20 28.5993 20 27.916V6.25C20 5.56667 20.5667 5 21.25 5ZM27.916 16.666C28.5992 16.666 29.1658 17.2328 29.166 17.916V27.916C29.166 28.5993 28.5993 29.166 27.916 29.166C27.2328 29.1658 26.666 28.5992 26.666 27.916V17.916C26.6662 17.2329 27.2329 16.6662 27.916 16.666Z" fill="url(#paint0_linear_6864_44186)"/>
<defs>
<linearGradient id="paint0_linear_6864_44186" x1="8.74981" y1="1.24997" x2="27.916" y2="29.5827" gradientUnits="userSpaceOnUse">
<stop stop-color="#7EA831"/>
<stop offset="1" stop-color="#0682EF"/>
</linearGradient>
</defs>
</svg>
