<svg width="27" height="27" viewBox="0 0 27 27" fill="none" xmlns="http://www.w3.org/2000/svg">
<path d="M19.0605 11.25C23.3678 11.2503 26.873 14.6204 26.873 18.7627C26.873 20.6989 26.1121 22.5349 24.7334 23.9336L24.7227 23.9453C24.6627 24.004 24.6359 24.0625 24.6309 24.085C24.7159 24.5262 24.9023 24.9265 25.1836 25.2715C25.3923 25.5277 25.4504 25.8756 25.3379 26.1855C25.2241 26.4954 24.9557 26.7229 24.6309 26.7842C24.3049 26.8453 23.9752 26.875 23.6455 26.875C22.7683 26.8749 21.8962 26.6598 21.1152 26.2412L20.8252 26.0918C20.7927 26.0968 20.7551 26.1024 20.7227 26.1074C20.6727 26.1162 20.6159 26.1248 20.5547 26.1348C20.0849 26.2272 19.5828 26.2754 19.0605 26.2754C14.7531 26.2754 11.2482 22.9051 11.248 18.7627C11.248 14.6202 14.753 11.25 19.0605 11.25ZM19.0615 13.125C15.7878 13.125 13.124 15.6539 13.124 18.7627C13.1242 21.8713 15.7879 24.4004 19.0615 24.4004C19.4677 24.4004 19.8531 24.3642 20.208 24.293C20.2204 24.2905 20.2327 24.2874 20.2451 24.2861C20.3076 24.2761 20.3641 24.2675 20.4141 24.2588C20.6663 24.2163 20.8849 24.1798 21.1309 24.2246H21.1328C21.3802 24.2634 21.5865 24.3718 21.8877 24.5293L21.9863 24.5801C21.9872 24.5805 21.9945 24.5836 21.998 24.5859C22.2866 24.7408 22.5948 24.8554 22.9121 24.9229C22.8621 24.7592 22.8203 24.5925 22.7891 24.4238C22.6691 23.7876 22.899 23.1113 23.4053 22.6113C24.4327 21.5664 24.999 20.2001 24.999 18.7627C24.999 15.654 22.3352 13.1251 19.0615 13.125ZM12.2861 0C18.1836 0 23.2599 3.99746 24.3574 9.50488C24.4587 10.0124 24.1286 10.5062 23.6211 10.6074C23.1124 10.7061 22.6198 10.3785 22.5186 9.87109C21.5947 5.23874 17.292 1.87598 12.2871 1.87598C6.5461 1.8762 1.87605 6.28386 1.87598 11.7012C1.87598 14.2062 2.87543 16.59 4.69043 18.415C5.38649 19.1187 5.69383 20.005 5.53516 20.8486C5.42516 21.4211 5.24473 21.9727 5.00098 22.4902C5.95204 22.4477 6.88977 22.1966 7.7334 21.748L7.74805 21.7402L7.87793 21.6738C8.39145 21.4114 8.64881 21.2797 8.9375 21.2197C8.96994 21.2135 9.00369 21.2088 9.03613 21.2051C9.26488 21.1826 9.5116 21.2016 9.86035 21.2666C10.3689 21.363 10.7034 21.8527 10.6084 22.3613C10.5121 22.87 10.0236 23.2053 9.51367 23.1104C9.3963 23.0879 9.32137 23.0792 9.27637 23.0742C9.16258 23.123 8.94219 23.235 8.72852 23.3438L8.60547 23.4072C7.40677 24.0434 6.06142 24.3711 4.70898 24.3711L4.70801 24.3701C4.2068 24.3701 3.7052 24.3246 3.20898 24.2334C2.88161 24.1734 2.61063 23.9451 2.49805 23.6328C2.38431 23.3203 2.4438 22.9701 2.65625 22.7139C3.17491 22.0877 3.53261 21.3216 3.69141 20.498C3.75141 20.1755 3.4777 19.8559 3.35645 19.7334C1.19278 17.5572 3.23216e-05 14.7026 0 11.7002C0 5.24898 5.51119 6.30495e-05 12.2861 0Z" fill="white"/>
</svg>
