<svg width="40" height="40" viewBox="0 0 40 40" fill="none" xmlns="http://www.w3.org/2000/svg">
<path opacity="0.4" d="M18.1216 35.854L14.7378 33.8455C13.879 33.3358 13.4496 33.0809 12.973 33.0662C12.458 33.0502 12.021 33.2947 11.093 33.8455C10.0536 34.4624 7.98691 36.1618 6.65007 35.3515C5.83203 34.8556 5.83203 33.5958 5.83203 31.0764L5.83203 13.3335C5.83203 8.61945 5.83203 6.26243 7.2965 4.79796C8.76096 3.3335 11.118 3.3335 15.832 3.3335L24.1654 3.3335C28.8794 3.3335 31.2364 3.3335 32.7009 4.79796C34.1654 6.26243 34.1654 8.61945 34.1654 13.3335V31.0764C34.1654 33.5958 34.1654 34.8556 33.3473 35.3515C32.0105 36.1618 29.9438 34.4624 28.9044 33.8455C28.0456 33.3358 27.6162 33.0809 27.1396 33.0662C26.6247 33.0502 26.1876 33.2947 25.2596 33.8455L21.8758 35.854C20.963 36.3958 20.5066 36.6667 19.9987 36.6667C19.4908 36.6667 19.0344 36.3958 18.1216 35.854Z" fill="#D9E0F5"/>
<path d="M24.2568 2.08301C26.536 2.08297 28.3735 2.08311 29.8184 2.27734C31.3185 2.47904 32.5818 2.91088 33.585 3.91406C34.5882 4.91726 35.02 6.18048 35.2217 7.68066C35.4159 9.12557 35.416 10.963 35.416 13.2422V31.1719C35.4161 32.3493 35.4156 33.3714 35.2998 34.1553C35.1787 34.9748 34.8848 35.881 33.9961 36.4199C32.7188 37.1942 31.3016 36.6678 30.4629 36.2549C29.9899 36.022 29.5435 35.7459 29.1709 35.5049C29.0239 35.4098 28.8945 35.325 28.7793 35.249C28.5768 35.1155 28.4154 35.0082 28.2666 34.9199C27.8172 34.6532 27.5536 34.4984 27.3457 34.4004C27.1696 34.3174 27.1137 34.3157 27.1025 34.3154H27.0996C27.0792 34.3147 27.0273 34.313 26.8604 34.3867C26.6528 34.4784 26.3795 34.6344 25.8984 34.9199L22.4697 36.9551C22.0518 37.2032 21.6622 37.4342 21.3125 37.5967C20.924 37.7771 20.4974 37.917 19.999 37.917C19.5007 37.917 19.074 37.7771 18.6855 37.5967C18.3358 37.4342 17.9462 37.2032 17.5283 36.9551L14.0996 34.9199C13.6504 34.6533 13.3875 34.4984 13.1797 34.4004C13.0015 34.3164 12.946 34.3156 12.9355 34.3154H12.9326C12.9122 34.3147 12.8604 34.3129 12.6934 34.3867C12.4858 34.4784 12.2126 34.6343 11.7314 34.9199C11.5826 35.0083 11.4213 35.1155 11.2187 35.249C11.1035 35.325 10.9742 35.4098 10.8271 35.5049C10.4546 35.7459 10.0081 36.022 9.53516 36.2549C8.69643 36.6678 7.27923 37.1942 6.00195 36.4199C5.11329 35.881 4.81936 34.9748 4.69824 34.1553C4.5824 33.3714 4.58195 32.3493 4.58203 31.1719L4.58203 13.2422C4.582 10.963 4.58214 9.12557 4.77637 7.68066C4.97806 6.18049 5.4099 4.91726 6.41309 3.91406C7.41628 2.91087 8.67951 2.47904 10.1797 2.27734C11.6246 2.08311 13.462 2.08297 15.7412 2.08301L24.2568 2.08301ZM15.832 4.58301C13.44 4.58301 11.7715 4.58566 10.5127 4.75488C9.28974 4.91931 8.64194 5.22037 8.18066 5.68164C7.7194 6.14291 7.41833 6.79072 7.25391 8.01367C7.08468 9.27251 7.08203 10.9409 7.08203 13.333L7.08203 31.0762C7.08203 32.3777 7.08537 33.2114 7.1709 33.79C7.21166 34.0658 7.26193 34.2024 7.29297 34.2637C7.29831 34.2742 7.30274 34.2815 7.30566 34.2861C7.37868 34.3234 7.67084 34.3863 8.43164 34.0117C8.772 33.8441 9.12097 33.6309 9.46973 33.4053C9.56644 33.3427 9.66982 33.2749 9.77441 33.2061C10.0115 33.05 10.2566 32.8883 10.4551 32.7705C10.4961 32.7462 10.5373 32.7216 10.5781 32.6973C11.3543 32.235 12.104 31.7884 13.0117 31.8164C13.4804 31.8309 13.8805 31.9678 14.2451 32.1396C14.5741 32.2947 14.9406 32.5126 15.334 32.7461L18.7598 34.7793C19.2376 35.0629 19.5181 35.2274 19.7393 35.3301C19.9276 35.4175 19.9859 35.4171 19.998 35.417H20C20.0121 35.4171 20.0705 35.4175 20.2588 35.3301C20.4799 35.2274 20.7604 35.0629 21.2383 34.7793L24.6221 32.7705C24.6631 32.7462 24.7043 32.7216 24.7451 32.6973C25.5213 32.235 26.271 31.7884 27.1787 31.8164C27.6474 31.8309 28.0475 31.9678 28.4121 32.1396C28.741 32.2947 29.1077 32.5126 29.501 32.7461L29.543 32.7705C29.7415 32.8883 29.9865 33.05 30.2236 33.2061C30.3282 33.2749 30.4316 33.3427 30.5283 33.4053C30.8771 33.6309 31.2261 33.8441 31.5664 34.0117C32.3272 34.3863 32.6193 34.3234 32.6924 34.2861C32.6953 34.2815 32.6997 34.2742 32.7051 34.2637C32.7361 34.2024 32.7864 34.0658 32.8271 33.79C32.9127 33.2114 32.916 32.3777 32.916 31.0762V13.333C32.916 10.9409 32.9134 9.27251 32.7441 8.01367C32.5797 6.79071 32.2787 6.14291 31.8174 5.68164C31.3561 5.22037 30.7083 4.9193 29.4854 4.75488C28.2265 4.58566 26.5581 4.58301 24.166 4.58301L15.832 4.58301ZM24.999 21.667C25.9194 21.667 26.6658 22.4127 26.666 23.333C26.666 24.2535 25.9195 25 24.999 25H24.9844C24.0639 25 23.3174 24.2535 23.3174 23.333C23.3176 22.4127 24.064 21.667 24.9844 21.667H24.999ZM24.1152 12.4492C24.6033 11.9613 25.3947 11.9613 25.8828 12.4492C26.3709 12.9373 26.3708 13.7286 25.8828 14.2168L15.8828 24.2168C15.3947 24.705 14.6034 24.705 14.1152 24.2168C13.6272 23.7286 13.6271 22.9373 14.1152 22.4492L24.1152 12.4492ZM15.0137 11.667C15.934 11.667 16.6805 12.4127 16.6807 13.333C16.6807 14.2535 15.9341 15 15.0137 15H14.999C14.0786 15 13.332 14.2535 13.332 13.333C13.3322 12.4127 14.0787 11.667 14.999 11.667H15.0137Z" fill="#D9E0F5"/>
</svg>
