<svg width="20" height="22" viewBox="0 0 20 22" fill="none" xmlns="http://www.w3.org/2000/svg">
<path fill-rule="evenodd" clip-rule="evenodd" d="M12.8996 0.595912C12.4435 0.255757 11.9124 0.0833095 11.3473 0.0327679C11.0006 0.00175849 10.5848 0.0013019 10.1233 0.000795169C10.0826 0.000750415 10.0415 0.000705271 10 0.000638653C9.9584 0.0005718 9.91679 0.000461828 9.87516 0.000351821C9.4799 -0.000692664 9.08347 -0.00174025 8.68992 0.0340876C8.11215 0.0866864 7.57032 0.266256 7.10861 0.620456C6.76721 0.882367 6.53387 1.20207 6.33676 1.54754C6.15403 1.86782 5.97212 2.26696 5.76556 2.72016L5.41008 3.5L1 3.5007C0.447715 3.5007 0 3.94842 0 4.5007C0 5.05299 0.447715 5.5007 1 5.5007H1.86958L2.40122 14.3953C2.47623 15.6503 2.53574 16.6462 2.65957 17.4417C2.78656 18.2575 2.99073 18.9369 3.40028 19.5313C3.77494 20.0751 4.25763 20.5341 4.8176 20.879C5.42972 21.2561 6.1135 21.421 6.92739 21.4999L13.0531 21.5C13.8661 21.4213 14.5491 21.2567 15.1608 20.8803C15.7204 20.536 16.2029 20.0778 16.5777 19.5349C16.9874 18.9415 17.1922 18.2631 17.3202 17.4484C17.4449 16.6541 17.5058 15.6596 17.5825 14.4064L18.1275 5.5007H19C19.5523 5.5007 20 5.05299 20 4.5007C20 3.94842 19.5523 3.5007 19 3.5007L14.6819 3.5L14.2555 2.6204C14.0437 2.1833 13.8569 1.79798 13.6714 1.48893C13.4712 1.15542 13.2369 0.847476 12.8996 0.595912ZM12.4593 3.5C12.2329 3.03301 12.0879 2.73696 11.9566 2.5182C11.7643 2.19787 11.5339 2.05745 11.1691 2.02482C10.9098 2.00163 10.5719 2.0007 10.0345 2.0007C9.48371 2.0007 9.13697 2.00166 8.87124 2.02585C8.49714 2.05991 8.26389 2.20568 8.07391 2.53866C7.94948 2.75676 7.81401 3.04867 7.60808 3.5H12.4593ZM6.75 15.9609C6.75 16.3752 7.08579 16.7109 7.5 16.7109C7.91421 16.7109 8.25 16.3752 8.25 15.9609V9.96094C8.25 9.54672 7.91421 9.21094 7.5 9.21094C7.08579 9.21094 6.75 9.54672 6.75 9.96094L6.75 15.9609ZM12.5 9.21094C12.9142 9.21094 13.25 9.54672 13.25 9.96094V15.9609C13.25 16.3752 12.9142 16.7109 12.5 16.7109C12.0858 16.7109 11.75 16.3752 11.75 15.9609V9.96094C11.75 9.54672 12.0858 9.21094 12.5 9.21094Z" fill="#FF6158"/>
</svg>
