<svg width="24" height="27" viewBox="0 0 24 27" fill="none" xmlns="http://www.w3.org/2000/svg">
<path d="M12.6855 1.1897C13.877 -0.396513 16.331 -0.39641 17.5225 1.1897L18.1709 2.05298C18.2481 2.15559 18.3788 2.21898 18.5361 2.21118C18.6936 2.20323 18.8122 2.12777 18.874 2.02368C19.4586 1.03776 20.5416 0.770158 21.4121 0.985596C22.2854 1.20181 23.125 1.95461 23.125 3.12231L23.125 23.7532C23.1249 24.9207 22.2853 25.6737 21.4121 25.8899C20.5416 26.1053 19.4586 25.8377 18.874 24.8518C18.8122 24.7476 18.6937 24.6723 18.5361 24.6643C18.3787 24.6565 18.2481 24.7198 18.1709 24.8225L17.5225 25.6858C16.3309 27.2716 13.877 27.2717 12.6855 25.6858L12.584 25.55C12.0927 24.896 11.0323 24.896 10.541 25.55L10.4395 25.6858C9.24802 27.2717 6.79405 27.2716 5.60254 25.6858L4.9541 24.8225C4.87688 24.7198 4.74627 24.6565 4.58887 24.6643C4.4313 24.6723 4.31276 24.7476 4.25098 24.8518C3.66639 25.8377 2.58336 26.1053 1.71289 25.8899C0.839674 25.6737 0.000128656 24.9207 0 23.7532L0 3.12231C0 1.95461 0.839607 1.20181 1.71289 0.985596C2.58338 0.770158 3.66637 1.03776 4.25098 2.02368C4.3128 2.12777 4.43141 2.20323 4.58887 2.21118C4.74616 2.21898 4.87686 2.15559 4.9541 2.05298L5.60254 1.1897C6.79404 -0.396412 9.24803 -0.396516 10.4395 1.1897L10.541 1.32544C11.0323 1.97952 12.0927 1.97952 12.584 1.32544L12.6855 1.1897ZM16.0234 2.31567C15.582 1.72811 14.6259 1.728 14.1846 2.31567L14.083 2.45142C12.8417 4.10414 10.2833 4.10414 9.04199 2.45142L8.94043 2.31567C8.49905 1.728 7.54303 1.72811 7.10156 2.31567L6.45312 3.17896C5.48822 4.46311 3.46472 4.37247 2.63867 2.97974C2.54836 2.82743 2.37738 2.75285 2.16309 2.80591C2.05947 2.83161 1.98322 2.88187 1.93945 2.93188C1.90311 2.97348 1.875 3.02872 1.875 3.12231L1.875 23.7532C1.87505 23.8467 1.90307 23.902 1.93945 23.9436C1.98323 23.9936 2.05944 24.0439 2.16309 24.0696C2.37738 24.1226 2.54836 24.0481 2.63867 23.8958C3.46468 22.5027 5.48822 22.4121 6.45312 23.6965L7.10156 24.5588C7.54298 25.1466 8.49901 25.1466 8.94043 24.5588L9.04199 24.4241C10.2833 22.7714 12.8417 22.7714 14.083 24.4241L14.1846 24.5588C14.626 25.1466 15.582 25.1466 16.0234 24.5588L16.6719 23.6965C17.6368 22.4121 19.6603 22.5027 20.4863 23.8958C20.5766 24.0481 20.7476 24.1226 20.9619 24.0696C21.0656 24.0439 21.1418 23.9936 21.1855 23.9436C21.2219 23.902 21.2499 23.8467 21.25 23.7532L21.25 3.12231C21.25 3.02872 21.2219 2.97348 21.1855 2.93188C21.1418 2.88187 21.0655 2.83161 20.9619 2.80591C20.7476 2.75285 20.5766 2.82743 20.4863 2.97974C19.6603 4.37247 17.6368 4.46311 16.6719 3.17896L16.0234 2.31567ZM15.3125 15.9377C16.0029 15.9377 16.5625 16.4974 16.5625 17.1877C16.5624 17.878 16.0028 18.4377 15.3125 18.4377H15.3018C14.6115 18.4377 14.0518 17.878 14.0518 17.1877C14.0518 16.4974 14.6114 15.9377 15.3018 15.9377H15.3125ZM14.6494 9.02466C15.0155 8.65854 15.6095 8.65854 15.9756 9.02466C16.3416 9.39078 16.3417 9.98474 15.9756 10.3508L8.47559 17.8508C8.10949 18.2168 7.51551 18.2168 7.14941 17.8508C6.78332 17.4847 6.78338 16.8908 7.14941 16.5247L14.6494 9.02466ZM7.82324 8.43774C8.5136 8.43774 9.07324 8.99739 9.07324 9.68774C9.07316 10.378 8.51355 10.9377 7.82324 10.9377H7.8125C7.1222 10.9377 6.56259 10.378 6.5625 9.68774C6.5625 8.99739 7.12214 8.43774 7.8125 8.43774H7.82324Z" fill="white"/>
</svg>
