<svg width="20" height="22" viewBox="0 0 20 22" fill="none" xmlns="http://www.w3.org/2000/svg">
<path d="M10 0.25C10.6763 0.250158 11.1625 0.733417 11.4199 1.02539C11.5689 1.19438 11.702 1.37228 11.8086 1.5166C11.8227 1.53571 11.8358 1.55481 11.8486 1.57227C11.9427 1.69978 12.0058 1.78449 12.0586 1.8457C12.2056 2.01595 12.2964 2.09731 12.377 2.14551C12.4408 2.18367 12.5295 2.22024 12.7012 2.22266C12.877 2.22509 13.0676 2.16843 13.4141 2.06641C13.4268 2.06265 13.4399 2.05857 13.4531 2.05469C13.7646 1.96303 14.2393 1.82474 14.7422 1.90039C14.9607 1.93327 15.2475 2.01183 15.4697 2.23535C15.7329 2.50021 15.7758 2.83 15.7373 3.0791C15.7041 3.29437 15.6102 3.47395 15.5488 3.58008C15.4905 3.68077 15.4222 3.77912 15.377 3.84473C15.3715 3.85262 15.3661 3.86031 15.3613 3.86719L14.4287 5.22559C14.4096 5.25335 14.39 5.28099 14.3711 5.30859C14.246 5.49134 14.1225 5.66875 13.9873 5.83398C14.3485 6.05931 14.6204 6.32219 14.9629 6.65527L14.9902 6.68164C16.8562 8.49611 18.9949 11.5753 19.6826 15.7129C19.9733 17.4621 19.3012 18.9973 18.1465 20.0693C17.0033 21.1305 15.3827 21.7499 13.6924 21.75H6.30859C4.61801 21.75 2.9968 21.1307 1.85352 20.0693C0.698768 18.9973 0.0268017 17.4621 0.317383 15.7129C1.00514 11.5751 3.14473 8.49608 5.01074 6.68164C5.0197 6.67293 5.02825 6.66389 5.03711 6.65527C5.37923 6.32253 5.65119 6.06013 6.01172 5.83496C5.87631 5.66956 5.75312 5.49155 5.62793 5.30859C5.60911 5.28109 5.59029 5.25325 5.57129 5.22559L4.6377 3.86719C4.633 3.86035 4.62845 3.85256 4.62305 3.84473C4.57783 3.77919 4.50951 3.68083 4.45117 3.58008C4.38975 3.47395 4.29595 3.29437 4.2627 3.0791C4.22422 2.82999 4.26614 2.50024 4.5293 2.23535C4.75143 2.01178 5.03829 1.9333 5.25684 1.90039C5.75961 1.82474 6.23443 1.96303 6.5459 2.05469C6.559 2.05854 6.57229 2.06267 6.58496 2.06641C6.93139 2.16843 7.12205 2.22509 7.29785 2.22266C7.46989 2.22027 7.55914 2.18373 7.62305 2.14551C7.70353 2.0973 7.79375 2.01561 7.94043 1.8457C7.99324 1.78451 8.0564 1.6997 8.15039 1.57227C8.16327 1.55481 8.17632 1.53571 8.19043 1.5166C8.29704 1.37225 8.43008 1.19444 8.5791 1.02539C8.83652 0.733386 9.32337 0.25 10 0.25ZM8.92285 6.75C7.90784 6.75 7.57214 6.75972 7.16211 6.92676C6.73932 7.099 6.5716 7.25516 6.05566 7.75684C4.36935 9.39664 2.42182 12.1986 1.79688 15.958C1.59932 17.1466 2.03864 18.1941 2.87402 18.9697C3.72108 19.7561 4.97013 20.25 6.30859 20.25H13.6924C15.0306 20.2499 16.279 19.756 17.126 18.9697C17.9615 18.1941 18.4007 17.1466 18.2031 15.958C17.5782 12.1984 15.6307 9.3966 13.9443 7.75684C13.4283 7.25512 13.2607 7.09901 12.8379 6.92676C12.428 6.75983 12.0928 6.75 11.0781 6.75H8.92285ZM10 1.75586C9.97063 1.77109 9.87447 1.82547 9.70508 2.01758C9.60272 2.13369 9.50273 2.26568 9.39746 2.4082C9.38516 2.42486 9.3724 2.44226 9.35938 2.45996C9.2722 2.57844 9.17003 2.71645 9.07617 2.8252C8.90413 3.02452 8.6864 3.25789 8.39258 3.43359C8.08209 3.61921 7.73005 3.71598 7.31836 3.72168C6.90683 3.72733 6.50194 3.60764 6.22168 3.52344L6.80762 4.37598C7.23815 5.00263 7.31451 5.07286 7.47949 5.1377C7.58421 5.17884 7.73527 5.21313 8.02246 5.23145C8.31501 5.25008 8.69215 5.25 9.24121 5.25H10.7578C11.307 5.25 11.684 5.25008 11.9766 5.23145C12.2638 5.21314 12.4148 5.17882 12.5195 5.1377C12.6846 5.07284 12.7617 5.0029 13.1924 4.37598L13.7773 3.52344C13.497 3.60766 13.0922 3.72738 12.6807 3.72168C12.2689 3.71597 11.917 3.61928 11.6064 3.43359C11.3126 3.25789 11.0949 3.02452 10.9229 2.8252C10.829 2.71644 10.7268 2.57841 10.6396 2.45996C10.6266 2.44227 10.6138 2.42484 10.6016 2.4082C10.4964 2.26576 10.3972 2.13363 10.2949 2.01758C10.1259 1.82588 10.0297 1.7713 10 1.75586Z" fill="#8C8C8C"/>
</svg>
