<svg width="22" height="22" viewBox="0 0 22 22" fill="none" xmlns="http://www.w3.org/2000/svg">
<path d="M19.8682 6.3125C20.2472 6.1465 20.6904 6.31824 20.8564 6.69824C21.4503 8.05214 21.751 9.50015 21.751 10.999C21.751 16.927 16.929 21.749 11.001 21.749L11 21.75C8.73 21.75 6.562 21.048 4.75 19.748V21C4.75 21.414 4.414 21.75 4 21.75C3.586 21.75 3.25 21.414 3.25 21V18.1396C3.25016 17.8378 3.43114 17.5652 3.70996 17.4482C3.98896 17.3312 4.31037 17.3935 4.52637 17.6045C6.26531 19.3102 8.56418 20.249 11.001 20.249C16.101 20.249 20.251 16.099 20.251 10.999C20.251 9.70802 19.9924 8.4638 19.4824 7.2998C19.3164 6.92081 19.4882 6.4785 19.8682 6.3125ZM11.3291 4.25C11.8247 4.25 12.1824 4.25028 12.5322 4.5L12.5576 4.51855C12.8986 4.78451 13.0132 5.13995 13.1582 5.58984L13.3477 6.16602C13.3817 6.24801 13.4358 6.31619 13.5098 6.36719L13.6689 6.46289C13.7439 6.4978 13.8339 6.50819 13.9248 6.49121L14.6152 6.28906C15.1122 6.14806 15.5018 6.03789 15.9268 6.21289C16.3566 6.37988 16.5557 6.73384 16.8066 7.17871L17.1074 7.70703C17.3384 8.11103 17.5372 8.46046 17.4922 8.89746C17.4461 9.33199 17.1928 9.61691 16.8721 9.97656L16.2891 10.6484C16.2551 10.7006 16.1992 10.8522 16.1992 10.998C16.1992 11.144 16.2551 11.2957 16.2891 11.3477L16.8779 12.0264C17.1927 12.3801 17.4461 12.665 17.4922 13.0986C17.5382 13.5366 17.3384 13.886 17.1074 14.29L16.8066 14.8184C16.5557 15.2642 16.3556 15.6172 15.9268 15.7842C15.5019 15.9591 15.1129 15.8479 14.6221 15.709L13.9248 15.5059C13.8329 15.4889 13.7429 15.4993 13.6689 15.5342L13.5098 15.6299C13.4358 15.6809 13.3807 15.7491 13.3477 15.8311L13.1572 16.4111C13.0133 16.857 12.8985 17.2136 12.5576 17.4795L12.5322 17.498C12.1824 17.7477 11.8247 17.748 11.3291 17.748L11.3301 17.751H10.6719C10.1759 17.751 9.81774 17.7509 9.46777 17.501L9.44238 17.4824C9.10144 17.2165 8.98676 16.861 8.8418 16.4111L8.65234 15.835C8.61834 15.753 8.56421 15.6848 8.49023 15.6338L8.33203 15.5381C8.25703 15.5031 8.1662 15.4928 8.0752 15.5098L7.38477 15.7119C6.88777 15.8529 6.49824 15.9631 6.07324 15.7881C5.64349 15.6211 5.44429 15.2672 5.19238 14.8203L4.8916 14.293C4.66061 13.89 4.46184 13.5405 4.50684 13.1025C4.55295 12.6678 4.80708 12.3833 5.12793 12.0225L5.71094 11.3506C5.74496 11.2982 5.7998 11.1466 5.7998 11.001C5.7998 10.8554 5.74496 10.7038 5.71094 10.6514L5.12207 9.97266C4.80717 9.61877 4.55295 9.33516 4.50684 8.90039C4.46084 8.4614 4.66061 8.112 4.8916 7.70801L5.19141 7.18164C5.44332 6.7358 5.64251 6.3819 6.07227 6.21387C6.49727 6.03887 6.88693 6.15006 7.37793 6.28906L8.07422 6.49219C8.16622 6.50919 8.25705 6.49887 8.33105 6.46387L8.48926 6.36816C8.56323 6.31718 8.61836 6.24895 8.65137 6.16699L8.8418 5.58691C8.98578 5.14098 9.10044 4.78453 9.44141 4.51855L9.4668 4.5C9.81677 4.25007 10.1749 4.25 10.6709 4.25H11.3291ZM10.3682 5.75195C10.3362 5.83889 10.2975 5.9589 10.2686 6.04883L10.0596 6.68457C9.91358 7.07056 9.65262 7.396 9.30664 7.625L9.28027 7.64062L9.04395 7.7832C8.64795 7.9912 8.18047 8.05117 7.73047 7.95117L7.68359 7.93945L6.96387 7.72949C6.85887 7.69949 6.74227 7.66651 6.65527 7.64551C6.60935 7.72042 6.55287 7.82225 6.49902 7.91699L6.19336 8.45117C6.14736 8.53216 6.07911 8.65042 6.03516 8.73633C6.09416 8.80933 6.18305 8.90747 6.24805 8.98047L6.88574 9.71582C7.14074 10.0418 7.2998 10.533 7.2998 10.999C7.2998 11.465 7.14174 11.9562 6.88574 12.2822L6.86133 12.3105L6.25391 13.0107C6.18491 13.0887 6.09516 13.1877 6.03516 13.2617C6.07912 13.3476 6.14637 13.4659 6.19336 13.5469L6.49902 14.082C6.55199 14.176 6.60931 14.2786 6.65527 14.3545C6.74327 14.3335 6.86073 14.2986 6.96973 14.2676L7.73145 14.0469C8.18245 13.9469 8.64892 14.0068 9.04492 14.2148L9.08301 14.2373L9.30762 14.373C9.65361 14.602 9.91355 14.9275 10.0605 15.3135L10.0713 15.3447L10.2686 15.9453C10.2985 16.0373 10.3381 16.1582 10.3701 16.2461V16.248C10.4551 16.251 10.5681 16.251 10.6719 16.251H11.3301C11.435 16.251 11.548 16.251 11.6318 16.248C11.6638 16.1611 11.7025 16.0411 11.7314 15.9512L11.9404 15.3154C12.0864 14.9295 12.3474 14.604 12.6934 14.375L12.7197 14.3594L12.957 14.2168C13.3529 14.008 13.8197 13.9479 14.2695 14.0488L14.3164 14.0605L15.0371 14.2715C15.142 14.3014 15.2579 14.3345 15.3447 14.3555C15.3907 14.2805 15.448 14.178 15.501 14.084L15.8057 13.5488C15.8517 13.4678 15.9199 13.3496 15.9639 13.2627C15.9059 13.1917 15.8209 13.0955 15.752 13.0186L15.1133 12.2832C14.8583 11.9582 14.6992 11.466 14.6992 11C14.6992 10.534 14.8583 10.0428 15.1133 9.7168L15.1377 9.68848L15.7461 8.98828C15.8191 8.90631 15.9049 8.80928 15.9639 8.7373C15.9199 8.65136 15.8527 8.53314 15.8057 8.45215L15.501 7.91602C15.4481 7.82217 15.3907 7.72047 15.3447 7.64551C15.2567 7.66651 15.1392 7.70048 15.0303 7.73047L14.2686 7.95117C13.8187 8.05111 13.3519 7.99101 12.9561 7.7832L12.918 7.76074L12.6924 7.625C12.3465 7.39601 12.0864 7.07051 11.9395 6.68457L11.9287 6.65332L11.7314 6.05273C11.7015 5.96079 11.6628 5.83988 11.6309 5.75195C11.546 5.74896 11.433 5.74902 11.3291 5.74902H10.6709C10.5659 5.74902 10.4522 5.74895 10.3682 5.75195ZM18 0.25C18.414 0.25 18.75 0.586 18.75 1V3.86035C18.7498 4.16217 18.5689 4.43479 18.29 4.55176C18.0111 4.66875 17.6896 4.60745 17.4736 4.39648C15.7346 2.69048 13.436 1.75098 10.999 1.75098C5.89902 1.75098 1.74902 5.90098 1.74902 11.001C1.74902 12.292 2.00758 13.5362 2.51758 14.7002C2.68358 15.0792 2.51184 15.5225 2.13184 15.6885C2.03394 15.7314 1.93193 15.751 1.83105 15.751L1.83203 15.75C1.54304 15.75 1.26851 15.5818 1.14551 15.3008C0.551508 13.9458 0.25 12.499 0.25 11C0.25 5.072 5.072 0.25 11 0.25C13.27 0.25 15.438 0.951953 17.25 2.25195V1C17.25 0.586 17.586 0.25 18 0.25ZM11 8.5C12.379 8.5 13.5 9.621 13.5 11C13.5 12.379 12.379 13.5 11 13.5C9.621 13.5 8.5 12.379 8.5 11C8.5 9.621 9.621 8.5 11 8.5ZM11 10C10.449 10 10 10.449 10 11C10 11.551 10.449 12 11 12C11.551 12 12 11.551 12 11C12 10.449 11.551 10 11 10Z" fill="#00A8FF"/>
</svg>
