<svg width="27" height="27" viewBox="0 0 27 27" fill="none" xmlns="http://www.w3.org/2000/svg">
<path fill-rule="evenodd" clip-rule="evenodd" d="M20.9158 22.6562C22.9771 22.6353 24.9944 23.5307 26.6267 25.3018C26.9776 25.6825 26.9528 26.2761 26.5721 26.627C26.1914 26.9775 25.5987 26.9537 25.2478 26.5732C23.9343 25.148 22.4088 24.5164 20.9353 24.5312C19.4553 24.5463 17.9231 25.2149 16.615 26.585C16.2575 26.9593 15.6643 26.9727 15.2898 26.6152C14.9155 26.2577 14.902 25.6645 15.2596 25.29C16.866 23.6076 18.8611 22.6772 20.9158 22.6562ZM2.18728 15C2.705 15.0001 3.12478 15.4198 3.12478 15.9375C3.12478 19.7093 5.78752 22.8507 9.33865 23.5869L8.84842 22.6064C8.61713 22.1434 8.80535 21.5801 9.26834 21.3486C9.73135 21.1174 10.2947 21.3056 10.5262 21.7686L11.7762 24.2686C11.9212 24.5591 11.9059 24.9044 11.7351 25.1807C11.5643 25.457 11.2622 25.625 10.9373 25.625C5.58202 25.625 1.24978 21.2928 1.24978 15.9375C1.24978 15.4197 1.66952 15 2.18728 15ZM20.9265 13.75C23.1714 13.75 24.9939 15.5676 24.9939 17.8125C24.9939 20.0574 23.1714 21.875 20.9265 21.875C18.6817 21.875 16.8592 20.0574 16.8592 17.8125C16.8592 15.5676 18.6817 13.75 20.9265 13.75ZM20.9265 15.625C19.7147 15.625 18.7342 16.6057 18.7342 17.8125C18.7342 19.0193 19.7147 20 20.9265 20C22.1384 20 23.1189 19.0194 23.1189 17.8125C23.1189 16.6056 22.1384 15.625 20.9265 15.625ZM5.9158 8.90625C7.97707 8.88529 9.99443 9.78071 11.6267 11.5518C11.9776 11.9325 11.9528 12.5261 11.5721 12.877C11.1914 13.2275 10.5987 13.2037 10.2478 12.8232C8.93431 11.398 7.40875 10.7664 5.93533 10.7812C4.45527 10.7963 2.92309 11.4649 1.61502 12.835C1.25745 13.2093 0.664261 13.2227 0.289823 12.8652C-0.0845203 12.5077 -0.0979515 11.9145 0.25955 11.54C1.86603 9.85756 3.86114 8.92717 5.9158 8.90625ZM21.5623 8.75C22.08 8.75005 22.4998 9.16977 22.4998 9.6875C22.4998 10.2052 22.08 10.6249 21.5623 10.625H17.1873C16.6695 10.625 16.2498 10.2053 16.2498 9.6875C16.2498 9.16973 16.6695 8.75 17.1873 8.75H21.5623ZM5.92654 0C8.1714 0 9.99393 1.81759 9.99393 4.0625C9.99393 6.30742 8.1714 8.125 5.92654 8.125C3.68171 8.12497 1.85916 6.3074 1.85916 4.0625C1.85916 1.8176 3.68171 3.0534e-05 5.92654 0ZM24.6873 5C25.205 5.00005 25.6248 5.41977 25.6248 5.9375C25.6248 6.45523 25.205 6.87495 24.6873 6.875H17.1873C16.6695 6.875 16.2498 6.45527 16.2498 5.9375C16.2498 5.41973 16.6695 5 17.1873 5H24.6873ZM5.92654 1.875C4.71473 1.87503 3.73416 2.85565 3.73416 4.0625C3.73416 5.26935 4.71473 6.24997 5.92654 6.25C7.13838 6.25 8.11893 5.26936 8.11893 4.0625C8.11893 2.85564 7.13838 1.875 5.92654 1.875ZM24.6873 1.25C25.205 1.25005 25.6248 1.66977 25.6248 2.1875C25.6248 2.70523 25.205 3.12495 24.6873 3.125H17.1873C16.6695 3.125 16.2498 2.70527 16.2498 2.1875C16.2498 1.66973 16.6695 1.25 17.1873 1.25H24.6873Z" fill="#7EA831"/>
</svg>
