<svg width="22" height="18" viewBox="0 0 22 18" fill="none" xmlns="http://www.w3.org/2000/svg">
<path d="M12.7275 10.25C15.5075 10.25 17.7676 12.51 17.7676 15.29C17.7676 16.65 16.6576 17.75 15.3076 17.75H6.71777C5.35779 17.75 4.25781 16.65 4.25781 15.29C4.25781 12.51 6.51785 10.25 9.29785 10.25H12.7275ZM5.29785 9.25C5.70783 9.25002 6.04785 9.59001 6.04785 10C6.04785 10.41 5.70783 10.75 5.29785 10.75C3.34785 10.75 1.75781 12.34 1.75781 14.29C1.75781 14.82 2.18779 15.25 2.71777 15.25C3.12777 15.25 3.46777 15.59 3.46777 16C3.46777 16.41 3.12777 16.75 2.71777 16.75C1.35779 16.75 0.257812 15.65 0.257812 14.29C0.257812 11.51 2.51785 9.25 5.29785 9.25ZM16.7109 9.25C19.4909 9.25 21.751 11.51 21.751 14.29C21.751 15.65 20.641 16.75 19.291 16.75C18.881 16.75 18.541 16.41 18.541 16C18.541 15.59 18.881 15.25 19.291 15.25C19.821 15.25 20.251 14.82 20.251 14.29C20.251 12.34 18.6609 10.75 16.7109 10.75C16.3009 10.75 15.9609 10.41 15.9609 10C15.9609 9.59 16.3009 9.25 16.7109 9.25ZM9.28809 11.75C7.33809 11.75 5.74805 13.34 5.74805 15.29C5.74805 15.82 6.17801 16.25 6.70801 16.25H15.2773C15.8073 16.25 16.2383 15.82 16.2383 15.29C16.2383 13.3402 14.648 11.7502 12.6982 11.75H9.28809ZM11.0078 1.25C13.0778 1.25 14.7578 2.93 14.7578 5C14.7578 7.07 13.0778 8.75 11.0078 8.75C8.93781 8.75 7.25781 7.07 7.25781 5C7.25781 2.93 8.93781 1.25 11.0078 1.25ZM7.00781 0.25C7.41781 0.25 7.75781 0.59 7.75781 1C7.75781 1.41 7.41781 1.75 7.00781 1.75C5.76781 1.75 4.75781 2.76 4.75781 4C4.75781 4.88999 5.2779 5.6998 6.08789 6.0498C6.46789 6.2198 6.63754 6.66004 6.47754 7.04004C6.35755 7.31989 6.07795 7.49013 5.78809 7.49023C5.68819 7.49023 5.58817 7.4696 5.48828 7.42969C4.12828 6.83969 3.25781 5.49 3.25781 4C3.25781 1.93 4.93781 0.25 7.00781 0.25ZM15.0078 0.25C17.0778 0.25 18.7578 1.93 18.7578 4C18.7578 5.49 17.8773 6.82969 16.5273 7.42969C16.4275 7.4696 16.3274 7.49023 16.2275 7.49023C15.9377 7.49013 15.6681 7.31989 15.5381 7.04004C15.3681 6.66004 15.5377 6.2198 15.9277 6.0498C16.7377 5.6898 17.2578 4.88999 17.2578 4C17.2578 2.76 16.2478 1.75 15.0078 1.75C14.5978 1.75 14.2578 1.41 14.2578 1C14.2578 0.59 14.5978 0.25 15.0078 0.25ZM11.0078 2.75C9.76781 2.75 8.75781 3.76 8.75781 5C8.75781 6.24 9.76781 7.25 11.0078 7.25C12.2478 7.25 13.2578 6.24 13.2578 5C13.2578 3.76 12.2478 2.75 11.0078 2.75Z" fill="#150941"/>
</svg>
