<svg width="22" height="20" viewBox="0 0 22 20" fill="none" xmlns="http://www.w3.org/2000/svg">
<path d="M13.5518 0.25C14.4502 0.249971 15.2001 0.250112 15.7949 0.330078C16.4225 0.414511 16.989 0.600305 17.4443 1.05566C17.8997 1.51102 18.0855 2.07747 18.1699 2.70508C18.1927 2.8744 18.2081 3.05674 18.2197 3.25098C18.8124 3.25136 19.327 3.25518 19.7461 3.31152C20.2376 3.37764 20.7086 3.527 21.0908 3.90918C21.473 4.29136 21.6224 4.76235 21.6885 5.25391C21.7501 5.71255 21.75 6.28552 21.75 6.9502V14.0498C21.75 14.7145 21.7501 15.2874 21.6885 15.7461C21.6224 16.2376 21.473 16.7086 21.0908 17.0908C20.7086 17.473 20.2376 17.6224 19.7461 17.6885C19.2956 17.7491 18.7347 17.749 18.085 17.749C17.9759 18.1961 17.7869 18.6018 17.4443 18.9443C16.989 19.3997 16.4225 19.5855 15.7949 19.6699C15.2001 19.7499 14.4502 19.75 13.5518 19.75H8.44824C7.54976 19.75 6.79986 19.7499 6.20508 19.6699C5.57747 19.5855 5.01102 19.3997 4.55566 18.9443C4.21303 18.6017 4.02308 18.1962 3.91406 17.749C3.26475 17.749 2.70422 17.749 2.25391 17.6885C1.76236 17.6224 1.29136 17.473 0.90918 17.0908C0.526996 16.7086 0.377638 16.2376 0.311523 15.7461C0.24986 15.2874 0.249963 14.7145 0.25 14.0498V6.9502C0.249963 6.28552 0.24986 5.71255 0.311523 5.25391C0.377638 4.76235 0.526995 4.29136 0.90918 3.90918C1.29136 3.52699 1.76235 3.37764 2.25391 3.31152C2.67276 3.25521 3.18701 3.25137 3.7793 3.25098C3.79094 3.05672 3.80731 2.87442 3.83008 2.70508C3.91451 2.07747 4.10031 1.51102 4.55566 1.05566C5.01102 0.600305 5.57747 0.414512 6.20508 0.330078C6.79986 0.250112 7.54976 0.249971 8.44824 0.25H13.5518ZM8.5 1.75C7.53599 1.75 6.88831 1.75146 6.40527 1.81641C5.94388 1.87845 5.74652 1.9859 5.61621 2.11621C5.4859 2.24652 5.37845 2.44388 5.31641 2.90527C5.25146 3.38831 5.25 4.03599 5.25 5V15C5.25 15.964 5.25146 16.6117 5.31641 17.0947C5.37845 17.5561 5.4859 17.7535 5.61621 17.8838C5.74652 18.0141 5.94388 18.1215 6.40527 18.1836C6.88831 18.2485 7.53599 18.25 8.5 18.25H13.5C14.464 18.25 15.1117 18.2485 15.5947 18.1836C16.0561 18.1215 16.2535 18.0141 16.3838 17.8838C16.5141 17.7535 16.6215 17.5561 16.6836 17.0947C16.7485 16.6117 16.75 15.964 16.75 15V5C16.75 4.03599 16.7485 3.38831 16.6836 2.90527C16.6215 2.44389 16.5141 2.24652 16.3838 2.11621C16.2535 1.9859 16.0561 1.87845 15.5947 1.81641C15.1117 1.75146 14.464 1.75 13.5 1.75H8.5ZM3.75 4.75098C3.16116 4.75186 2.75956 4.7568 2.4541 4.79785C2.1288 4.84159 2.02682 4.91263 1.96973 4.96973C1.91263 5.02682 1.84159 5.1288 1.79785 5.4541C1.75123 5.80097 1.75 6.27178 1.75 7V14C1.75 14.7282 1.75123 15.199 1.79785 15.5459C1.84159 15.8712 1.91263 15.9732 1.96973 16.0303C2.02682 16.0874 2.1288 16.1584 2.4541 16.2021C2.76108 16.2434 3.16515 16.2472 3.75879 16.248C3.74981 15.8845 3.74999 15.4854 3.75 15.0518V4.75098ZM18.25 4.94824V15.0518C18.25 15.4854 18.2492 15.8845 18.2402 16.248C18.8344 16.2472 19.2388 16.2434 19.5459 16.2021C19.8712 16.1584 19.9732 16.0874 20.0303 16.0303C20.0874 15.9732 20.1584 15.8712 20.2021 15.5459C20.2488 15.199 20.25 14.7282 20.25 14V7C20.25 6.27178 20.2488 5.80097 20.2021 5.4541C20.1584 5.1288 20.0874 5.02682 20.0303 4.96973C19.9732 4.91263 19.8712 4.84159 19.5459 4.79785C19.2403 4.75677 18.8384 4.75185 18.249 4.75098C18.2491 4.81583 18.25 4.88175 18.25 4.94824ZM13.5 13.25C13.9142 13.25 14.25 13.5858 14.25 14C14.25 14.4142 13.9142 14.75 13.5 14.75H8.5C8.08579 14.75 7.75 14.4142 7.75 14C7.75 13.5858 8.08579 13.25 8.5 13.25H13.5ZM13.5 9.25C13.9142 9.25 14.25 9.58579 14.25 10C14.25 10.4142 13.9142 10.75 13.5 10.75H8.5C8.08579 10.75 7.75 10.4142 7.75 10C7.75 9.58579 8.08579 9.25 8.5 9.25H13.5ZM13.5 5.25C13.9142 5.25 14.25 5.58579 14.25 6C14.25 6.41421 13.9142 6.75 13.5 6.75H8.5C8.08579 6.75 7.75 6.41421 7.75 6C7.75 5.58579 8.08579 5.25 8.5 5.25H13.5Z" fill="#150941"/>
</svg>
