<svg width="22" height="22" viewBox="0 0 22 22" fill="none" xmlns="http://www.w3.org/2000/svg">
<path d="M11 0.248047C11.979 0.248047 12.662 0.933336 13.793 2.06934C14.0848 2.36233 14.0839 2.83692 13.791 3.12988C13.4981 3.42182 13.0235 3.42173 12.7305 3.12793C11.8275 2.22193 11.34 1.74902 10.999 1.74902C10.658 1.74902 10.1706 2.22193 9.26758 3.12793C8.46463 3.93081 7.6267 4.28906 6.55078 4.28906C6.41488 4.28906 6.26904 4.28527 6.11816 4.28027C5.5422 4.26227 4.82423 4.24018 4.5332 4.53613C4.2392 4.83113 4.26034 5.54898 4.27734 6.12598C4.28134 6.2739 4.28515 6.41589 4.28516 6.54883C4.28516 7.62983 3.92793 8.46953 3.12793 9.26953C2.22111 10.1714 1.74902 10.6571 1.74902 10.999C1.74902 11.341 2.2211 11.8267 3.12695 12.7266C4.00395 13.6076 4.28516 14.2692 4.28516 15.4492C4.28515 15.5812 4.28134 15.7222 4.27734 15.8682C4.26034 16.4491 4.23921 17.1729 4.53516 17.4648C4.82916 17.7568 5.54221 17.7358 6.11621 17.7168C6.26707 17.7118 6.40991 17.708 6.55078 17.708C7.73378 17.708 8.3818 17.9783 9.2168 18.8203C9.32569 18.9292 9.43877 19.0499 9.55664 19.1777C9.97664 19.6297 10.553 20.248 10.999 20.248C11.445 20.248 12.0214 19.6287 12.4414 19.1777C12.5602 19.0499 12.6723 18.9302 12.7842 18.8184C13.6162 17.9784 14.2643 17.708 15.4473 17.708C15.5881 17.708 15.731 17.7118 15.8818 17.7168C16.4548 17.7348 17.1689 17.7568 17.4609 17.4658L17.4629 17.4639C17.7579 17.1709 17.7367 16.4482 17.7207 15.8672C17.7167 15.7203 17.7129 15.5792 17.7129 15.4482C17.7129 14.2683 17.9943 13.6074 18.8691 12.7295C19.7771 11.8265 20.249 11.34 20.249 10.998C20.249 10.6561 19.7769 10.1703 18.8711 9.27051C18.5771 8.97851 18.5762 8.50298 18.8682 8.20898C19.1601 7.91509 19.6347 7.91418 19.9287 8.20605C21.0637 9.33505 21.749 10.016 21.749 10.998C21.749 11.98 21.0637 12.661 19.9287 13.79C19.3338 14.3869 19.2129 14.6673 19.2129 15.4482C19.2129 15.5662 19.2167 15.6933 19.2207 15.8242C19.2437 16.6151 19.2749 17.6856 18.6094 18.4346C18.5624 18.5005 18.5044 18.5595 18.4385 18.6064C17.6905 19.2734 16.6229 19.2398 15.8359 19.2158C15.7 19.2118 15.5692 19.208 15.4473 19.208C14.6673 19.208 14.3977 19.32 13.8467 19.876C13.7517 19.9709 13.649 20.0823 13.5391 20.1992C12.9311 20.8532 12.098 21.748 10.999 21.748L11 21.75C9.90104 21.75 9.06795 20.8552 8.45996 20.2012C8.351 20.0832 8.24725 19.9719 8.15527 19.8799C7.60227 19.3219 7.33276 19.21 6.55176 19.21C6.42986 19.21 6.29896 19.2138 6.16309 19.2178C5.34723 19.2428 4.23047 19.2778 3.48047 18.5312C2.72253 17.7823 2.75532 16.6512 2.77832 15.8252C2.78232 15.6943 2.78613 15.5672 2.78613 15.4492C2.78613 14.6683 2.66517 14.3879 2.06836 13.7881C0.936359 12.6621 0.25 11.981 0.25 10.999C0.25 10.017 0.935313 9.33603 2.07031 8.20703C2.5912 7.68609 2.78613 7.23576 2.78613 6.54883C2.78613 6.42988 2.78232 6.30187 2.77832 6.16895C2.75432 5.35009 2.72115 4.22946 3.46875 3.47949C4.21675 2.72149 5.34304 2.75527 6.16504 2.78027C6.29993 2.78427 6.42985 2.78808 6.55176 2.78809C7.23367 2.78809 7.68309 2.59321 8.20801 2.06836C9.33801 0.934359 10.021 0.248047 11 0.248047ZM19.4424 1.49805C19.7194 1.19005 20.194 1.16538 20.502 1.44238C20.8097 1.71942 20.8345 2.19307 20.5576 2.50098L11.5576 12.501C11.4196 12.654 11.2255 12.744 11.0195 12.749H11V12.75C10.8011 12.75 10.6107 12.6712 10.4697 12.5303L6.96973 9.03027C6.67673 8.73727 6.67673 8.26175 6.96973 7.96875C7.26261 7.67604 7.73729 7.6762 8.03027 7.96875L10.9717 10.9102L19.4424 1.49805Z" fill="#31CE77"/>
</svg>
