<svg width="27" height="27" viewBox="0 0 27 27" fill="none" xmlns="http://www.w3.org/2000/svg">
<path d="M20.916 22.6562C22.9773 22.6353 24.9946 23.5307 26.627 25.3018C26.9778 25.6825 26.953 26.2761 26.5723 26.627C26.1916 26.9775 25.5989 26.9537 25.248 26.5732C23.9345 25.148 22.409 24.5164 20.9355 24.5312C19.4555 24.5463 17.9233 25.2149 16.6152 26.585C16.2577 26.9593 15.6645 26.9727 15.29 26.6152C14.9157 26.2577 14.9023 25.6645 15.2598 25.29C16.8662 23.6076 18.8614 22.6772 20.916 22.6562ZM2.1875 15C2.70522 15.0001 3.125 15.4198 3.125 15.9375C3.125 19.7093 5.78773 22.8507 9.33887 23.5869L8.84863 22.6064C8.61735 22.1434 8.80557 21.5801 9.26855 21.3486C9.73157 21.1174 10.2949 21.3056 10.5264 21.7686L11.7764 24.2686C11.9214 24.5591 11.9061 24.9044 11.7354 25.1807C11.5646 25.457 11.2624 25.625 10.9375 25.625C5.58223 25.625 1.25 21.2928 1.25 15.9375C1.25 15.4197 1.66973 15 2.1875 15ZM20.9268 13.75C23.1716 13.75 24.9941 15.5676 24.9941 17.8125C24.9941 20.0574 23.1716 21.875 20.9268 21.875C18.6819 21.875 16.8594 20.0574 16.8594 17.8125C16.8594 15.5676 18.6819 13.75 20.9268 13.75ZM20.9268 15.625C19.7149 15.625 18.7344 16.6057 18.7344 17.8125C18.7344 19.0193 19.7149 20 20.9268 20C22.1386 20 23.1191 19.0194 23.1191 17.8125C23.1191 16.6056 22.1386 15.625 20.9268 15.625ZM5.91602 8.90625C7.97728 8.88529 9.99465 9.78071 11.627 11.5518C11.9778 11.9325 11.953 12.5261 11.5723 12.877C11.1916 13.2275 10.5989 13.2037 10.248 12.8232C8.93453 11.398 7.40897 10.7664 5.93555 10.7812C4.45549 10.7963 2.92331 11.4649 1.61523 12.835C1.25767 13.2093 0.664477 13.2227 0.290039 12.8652C-0.0843043 12.5077 -0.0977355 11.9145 0.259766 11.54C1.86625 9.85756 3.86136 8.92717 5.91602 8.90625ZM21.5625 8.75C22.0802 8.75005 22.5 9.16977 22.5 9.6875C22.5 10.2052 22.0802 10.6249 21.5625 10.625H17.1875C16.6697 10.625 16.25 10.2053 16.25 9.6875C16.25 9.16973 16.6697 8.75 17.1875 8.75H21.5625ZM5.92676 0C8.17162 0 9.99414 1.81759 9.99414 4.0625C9.99414 6.30742 8.17162 8.125 5.92676 8.125C3.68193 8.12497 1.85938 6.3074 1.85938 4.0625C1.85938 1.8176 3.68193 3.05098e-05 5.92676 0ZM24.6875 5C25.2052 5.00005 25.625 5.41977 25.625 5.9375C25.625 6.45523 25.2052 6.87495 24.6875 6.875H17.1875C16.6697 6.875 16.25 6.45527 16.25 5.9375C16.25 5.41973 16.6697 5 17.1875 5H24.6875ZM5.92676 1.875C4.71494 1.87503 3.73438 2.85565 3.73438 4.0625C3.73438 5.26935 4.71494 6.24997 5.92676 6.25C7.1386 6.25 8.11914 5.26936 8.11914 4.0625C8.11914 2.85564 7.1386 1.875 5.92676 1.875ZM24.6875 1.25C25.2052 1.25005 25.625 1.66977 25.625 2.1875C25.625 2.70523 25.2052 3.12495 24.6875 3.125H17.1875C16.6697 3.125 16.25 2.70527 16.25 2.1875C16.25 1.66973 16.6697 1.25 17.1875 1.25H24.6875Z" fill="white"/>
</svg>
