<svg width="70" height="70" viewBox="0 0 70 70" fill="none" xmlns="http://www.w3.org/2000/svg">
<path fill-rule="evenodd" clip-rule="evenodd" d="M34.9375 4.875C18.3344 4.875 4.875 18.3344 4.875 34.9375C4.875 51.5406 18.3344 65 34.9375 65C51.5406 65 65 51.5406 65 34.9375C65 18.3344 51.5406 4.875 34.9375 4.875ZM0 34.9375C0 15.6421 15.6421 0 34.9375 0C54.2329 0 69.875 15.6421 69.875 34.9375C69.875 54.2329 54.2329 69.875 34.9375 69.875C15.6421 69.875 0 54.2329 0 34.9375Z" fill="#8C8C8C"/>
<path opacity="0.4" d="M40.1328 43.875C46.8389 43.875 53.0312 47.4685 56.3584 53.291L58.1797 56.4785C58.8472 57.6472 58.441 59.1358 57.2725 59.8037C56.1036 60.4716 54.6142 60.0653 53.9463 58.8965L52.125 55.71C49.6658 51.4064 45.0895 48.75 40.1328 48.75H29.7432C24.7865 48.75 20.2102 51.4063 17.751 55.71L15.9297 58.8965C15.2618 60.0653 13.7723 60.4716 12.6035 59.8037C11.4349 59.1359 11.0287 57.6472 11.6963 56.4785L13.5176 53.291C16.8447 47.4685 23.037 43.875 29.7432 43.875H40.1328ZM34.9375 15.4375C41.2197 15.4375 46.3125 20.5303 46.3125 26.8125C46.3125 33.0947 41.2197 38.1875 34.9375 38.1875C28.6553 38.1875 23.5625 33.0947 23.5625 26.8125C23.5625 20.5303 28.6553 15.4375 34.9375 15.4375ZM34.9375 20.3125C31.3477 20.3125 28.4375 23.2227 28.4375 26.8125C28.4375 30.4023 31.3477 33.3125 34.9375 33.3125C38.5274 33.3125 41.4375 30.4024 41.4375 26.8125C41.4375 23.2227 38.5273 20.3125 34.9375 20.3125Z" fill="#8C8C8C"/>
</svg>
