<svg width="43" height="43" viewBox="0 0 43 43" fill="none" xmlns="http://www.w3.org/2000/svg">
<path d="M35.3984 6.38281H6.14844C3.45605 6.38281 1.27344 8.54677 1.27344 11.2161V30.5495C1.27344 33.2189 3.45605 35.3828 6.14844 35.3828H35.3984C38.0908 35.3828 40.2734 33.2189 40.2734 30.5495V11.2161C40.2734 8.54677 38.0908 6.38281 35.3984 6.38281Z" fill="#DADADA"/>
<path d="M3.71094 13.6348L18.8667 20.4785C19.4588 20.7457 20.1116 20.8848 20.7734 20.8848C21.4353 20.8848 22.0881 20.7457 22.6802 20.4785L37.8359 13.6348" fill="#DADADA"/>
<path d="M3.71094 13.6348L18.8667 20.4785C19.4588 20.7457 20.1116 20.8848 20.7734 20.8848C21.4353 20.8848 22.0881 20.7457 22.6802 20.4785L37.8359 13.6348" stroke="#CCCBCB" stroke-width="1.34375" stroke-linecap="round"/>
</svg>
