<svg width="148" height="45" viewBox="0 0 148 45" fill="none" xmlns="http://www.w3.org/2000/svg">
<path d="M131.842 12.461C128.472 15.8503 125.145 19.1955 121.784 22.5742C121.581 21.915 121.515 21.2911 121.541 20.6601C121.569 19.9499 121.694 19.2537 121.956 18.5875C122.193 17.9812 122.525 17.4454 122.993 16.9801C125.888 14.0913 128.771 11.1938 131.66 8.29801C131.711 8.2469 131.765 8.20108 131.842 8.12881C135.903 12.2002 139.954 16.2627 144.048 20.3676C144.046 19.6026 143.92 18.9153 143.695 18.2473C143.267 16.9783 142.552 15.875 141.641 14.9162C140.154 13.3511 138.623 11.8283 137.102 10.2949C135.413 8.59235 133.716 6.89683 132.024 5.19779C131.966 5.13962 131.906 5.08499 131.83 5.01272C131.753 5.08499 131.681 5.1502 131.61 5.2207C128.764 8.06889 125.931 10.9277 123.074 13.7635C122.283 14.5478 121.485 15.3163 120.88 16.2627C120.084 17.5106 119.672 18.8959 119.438 20.3394C119.314 21.1078 119.301 21.8886 119.351 22.6641C119.398 23.3885 119.491 24.1093 119.621 24.8196C119.797 25.7837 120.062 26.7443 120.43 27.6255C124.248 23.7939 128.007 20.0256 131.799 16.2204C132.106 16.5412 132.361 16.8161 132.625 17.0805C136.007 20.4821 139.391 23.882 142.772 27.2854C143.454 27.971 144.029 28.7288 144.197 29.7194C144.35 30.6165 144.201 31.4977 144.025 32.3737C143.993 32.5323 143.951 32.6909 143.914 32.8496C139.89 28.8205 135.877 24.8002 131.858 20.7765C127.81 24.8355 123.796 28.8593 119.753 32.913C119.514 32.6169 119.289 32.3543 119.083 32.0793C116.731 28.9245 115.661 25.3713 115.928 21.4497C116.195 17.5476 117.723 14.1795 120.476 11.4C124.213 7.6265 127.971 3.87415 131.723 0.11299C131.749 0.0865528 131.776 0.0636404 131.841 0.00195312C132.017 0.188777 132.187 0.377364 132.365 0.557139C135.946 4.15086 139.539 7.73049 143.104 11.3383C146.448 14.7223 147.958 18.8219 147.726 23.5683C147.661 24.8778 147.397 26.1556 146.996 27.4052C146.977 27.4651 146.952 27.5215 146.919 27.6114C141.891 22.5548 136.879 17.5194 131.842 12.461Z" fill="#160E41"/>
<path d="M126.017 34.6297C127.945 36.5631 129.889 38.5107 131.821 40.4477C133.757 38.5072 135.701 36.5596 137.626 34.6279L142.037 34.7584C138.637 38.167 135.221 41.5933 131.821 45.0002C128.428 41.5986 125.011 38.1741 121.609 34.7654L126.017 34.6297Z" fill="#99CA3C"/>
<path d="M134.295 30.4474C133.483 31.2634 132.657 32.0953 131.844 32.9131C131.02 32.0812 130.19 31.2441 129.375 30.4192C130.174 29.619 131.008 28.7836 131.827 27.9658C132.632 28.7766 133.463 29.612 134.295 30.4474Z" fill="#97C93C"/>
<path d="M16.5983 18.5344C16.8234 18.7847 17.1556 18.9081 17.5969 18.9081H17.9449C18.0135 18.9081 18.061 18.9292 18.0838 18.9698C18.1067 19.0103 18.119 19.0473 18.119 19.0826V20.8239C18.119 20.8574 18.1084 20.8962 18.0838 20.9367C18.061 20.9773 18.0135 20.9984 17.9449 20.9984H16.8691C15.8846 20.9984 15.1322 20.6935 14.6119 20.0854C14.0915 19.4756 13.8296 18.6613 13.8296 17.6409V12.3639H13.2565C11.5548 12.3639 10.7039 13.1483 10.7039 14.7134V20.9966H4.45443C2.98479 20.9966 1.90892 20.6142 1.22508 19.8475C0.541237 19.0808 0.200195 18.1185 0.200195 16.9588V15.0306L2.63144 12.3639V16.5763C2.63144 18.1308 3.48229 18.9081 5.18398 18.9081H8.27446V14.3309C8.27446 13.1712 8.6155 12.2053 9.29934 11.4333C9.98142 10.6614 11.0573 10.2754 12.5287 10.2754H16.2608V17.2549C16.2591 17.8576 16.3716 18.2842 16.5983 18.5344ZM3.39439 24.7208V22.5283H5.89419V24.7208H3.39439ZM6.86634 24.7208V22.5283H9.36614V24.7208H6.86634Z" fill="#160E41"/>
<path d="M24.9133 12.764C25.6252 13.1465 26.1772 13.677 26.571 14.3556C26.9648 15.0341 27.1617 15.792 27.1617 16.6274C27.1617 17.7184 26.8154 19.1742 26.121 20.9966H17.9447C17.8744 20.9966 17.8287 20.9755 17.8059 20.9349C17.783 20.8944 17.7725 20.8556 17.7725 20.8221V19.0808C17.7725 19.0456 17.783 19.0085 17.8059 18.968C17.8287 18.9275 17.8762 18.9063 17.9447 18.9063H18.9854V12.5384C20.4903 12.3058 21.6417 12.1895 22.4398 12.1895C23.3768 12.1895 24.2013 12.3816 24.9133 12.764ZM21.4149 14.3996V18.9081H24.2962C24.5283 18.1079 24.6443 17.3588 24.6443 16.6627C24.6443 15.0729 23.9376 14.278 22.526 14.278C22.1673 14.278 21.7964 14.3185 21.4149 14.3996Z" fill="#160E41"/>
<path d="M32.2739 18.5343C32.499 18.7846 32.8312 18.908 33.2725 18.908H33.6205C33.6891 18.908 33.7366 18.9291 33.7594 18.9697C33.7823 19.0102 33.7946 19.0472 33.7946 19.0825V20.8238C33.7946 20.8573 33.7823 20.8961 33.7594 20.9366C33.7366 20.9772 33.6891 20.9983 33.6205 20.9983H32.5429C31.5585 20.9983 30.8078 20.6934 30.2857 20.0853C29.7654 19.4755 29.5034 18.6612 29.5034 17.6408V10.3317L31.9347 7.66504V17.2548C31.9347 17.8575 32.0489 18.2841 32.2739 18.5343Z" fill="#160E41"/>
<path d="M37.9767 18.2643C38.3248 18.6943 38.8856 18.9076 39.6608 18.9076C39.7294 18.9076 39.7769 18.9288 39.7997 18.9693C39.8226 19.0098 39.8349 19.0468 39.8349 19.0821V20.8234C39.8349 20.8569 39.8226 20.8957 39.7997 20.9362C39.7769 20.9768 39.7294 20.9979 39.6608 20.9979C39.2794 20.9979 38.8627 20.9045 38.4109 20.7195C37.9591 20.5344 37.5548 20.2559 37.1962 19.884C36.5721 20.626 35.7371 20.9979 34.6964 20.9979H33.6205C33.5502 20.9979 33.5045 20.9768 33.4816 20.9362C33.4588 20.8957 33.4482 20.8569 33.4482 20.8234V19.0821C33.4482 19.0468 33.4588 19.0098 33.4816 18.9693C33.5045 18.9288 33.552 18.9076 33.6205 18.9076H33.9668C34.4292 18.9076 34.8265 18.7243 35.157 18.3595C35.4857 17.9929 35.6527 17.5099 35.6527 16.9054V12.3635H38.084V17.2896C38.0804 17.6263 38.047 17.9506 37.9767 18.2643ZM35.6158 10.883V8.69043H38.1156V10.883H35.6158Z" fill="#160E41"/>
<path d="M39.6609 20.9965C39.5923 20.9965 39.5448 20.9754 39.522 20.9349C39.4991 20.8943 39.4868 20.8555 39.4868 20.8221V19.0807C39.4868 19.0455 39.4974 19.0085 39.522 18.9679C39.5448 18.9274 39.5923 18.9062 39.6609 18.9062H41.3959V10.3317L43.8096 7.66504V20.9983H39.6609V20.9965Z" fill="#160E41"/>
<path d="M46.7612 20.9965V10.3317L49.1925 7.66504V20.9983H46.7612V20.9965Z" fill="#160E41"/>
<path d="M58.0457 15.1482V16.5582C58.0457 18.1251 58.8965 18.9076 60.5982 18.9076H64.9896C64.2495 18.3154 63.8786 17.4641 63.8786 16.3502C63.8786 15.6082 64.0843 14.9173 64.4956 14.2793C64.907 13.6413 65.473 13.1337 66.1973 12.7565C66.9198 12.3793 67.7285 12.1907 68.6198 12.1907C69.4407 12.1907 70.5922 12.3071 72.0741 12.5397V17.2914C72.0741 17.628 72.039 17.9523 71.9704 18.2661C72.3185 18.6961 72.8793 18.9094 73.6545 18.9094C73.7249 18.9094 73.7706 18.9305 73.7934 18.9711C73.8163 19.0116 73.8286 19.0486 73.8286 19.0839V20.8252C73.8286 20.8587 73.818 20.8975 73.7934 20.938C73.7706 20.9785 73.7249 20.9997 73.6545 20.9997C73.2731 20.9997 72.8564 20.9063 72.4046 20.7212C71.9528 20.5362 71.5467 20.2577 71.1899 19.8858C70.5658 20.6278 69.7325 20.9997 68.6901 20.9997H59.8705C58.4008 20.9997 57.3249 20.6137 56.6411 19.8417C55.9573 19.0698 55.6162 18.1039 55.6162 16.9442M66.4135 16.6622C66.4135 17.2773 66.5981 17.7849 66.9691 18.185C67.34 18.5851 67.8304 18.8195 68.444 18.89C68.8149 18.7402 69.1067 18.4899 69.3212 18.1427C69.5357 17.7937 69.6429 17.383 69.6429 16.9072V14.3991C69.2386 14.3181 68.8676 14.2775 68.5319 14.2775C67.1185 14.2775 66.4135 15.0724 66.4135 16.6622ZM67.3154 10.883V8.69043H69.8152V10.883H67.3154Z" fill="#160E41"/>
<path d="M82.8695 12.538V20.9962H73.6508C73.5805 20.9962 73.5348 20.975 73.5119 20.9345C73.4891 20.8939 73.4785 20.8552 73.4785 20.8217V19.0803C73.4785 19.0451 73.4891 19.0081 73.5119 18.9675C73.5348 18.927 73.5822 18.9058 73.6508 18.9058H75.8025C75.0624 18.3136 74.6915 17.4624 74.6915 16.3485C74.6915 15.6065 74.8972 14.9156 75.3085 14.2775C75.7199 13.6395 76.286 13.1319 77.0102 12.7547C77.7328 12.3776 78.5414 12.189 79.4327 12.189C80.2431 12.189 81.3893 12.3053 82.8695 12.538ZM76.2209 10.883V8.69043H78.7207V10.883H76.2209ZM77.2282 16.6622C77.2282 17.3231 77.4427 17.8572 77.8699 18.2643C78.2971 18.6697 78.8526 18.8847 79.5364 18.9076H80.44V14.3991C80.0357 14.3181 79.67 14.2775 79.3465 14.2775C77.9349 14.2775 77.2282 15.0724 77.2282 16.6622ZM79.6929 10.883V8.69043H82.1927V10.883H79.6929Z" fill="#160E41"/>
<path d="M93.8936 18.9768C93.9164 19.0226 93.9288 19.0579 93.9288 19.0808V20.8221C93.9288 20.8556 93.9164 20.8944 93.8936 20.9349C93.8707 20.9755 93.8233 20.9966 93.7547 20.9966H92.6613C92.5576 22.3079 92.1321 23.2597 91.385 23.8501C90.6396 24.4423 89.5884 24.8477 88.2348 25.068L87.2626 22.8913C87.9799 22.7979 88.5494 22.6675 88.9731 22.5C89.395 22.3308 89.7167 22.0823 89.9365 21.751C90.1562 21.4214 90.2652 20.9702 90.2652 20.4027V14.3996C89.8609 14.3185 89.4899 14.278 89.1542 14.278C87.7425 14.278 87.0358 15.0729 87.0358 16.6627C87.0358 17.3588 87.2187 17.907 87.5826 18.3071C87.9482 18.7072 88.4703 18.9081 89.1542 18.9081H89.9189L88.9819 20.9966H88.7393C87.9412 20.9966 87.2204 20.8169 86.5788 20.4573C85.9371 20.0978 85.4326 19.5866 85.0687 18.9257C84.703 18.2648 84.522 17.4981 84.522 16.6274C84.522 15.792 84.7189 15.0341 85.1126 14.3556C85.5064 13.677 86.0584 13.1465 86.7704 12.764C87.4824 12.3816 88.3068 12.1895 89.2438 12.1895C90.0419 12.1895 91.1934 12.3058 92.6982 12.5384V18.9081H93.7582C93.825 18.9081 93.8707 18.931 93.8936 18.9768Z" fill="#160E41"/>
<path d="M93.7548 20.9965C93.6845 20.9965 93.6388 20.9754 93.6159 20.9349C93.5931 20.8943 93.5825 20.8555 93.5825 20.8221V19.0807C93.5825 19.0455 93.5948 19.0085 93.6159 18.9679C93.6388 18.9274 93.6862 18.9062 93.7548 18.9062H95.4899V10.3317L97.9035 7.66504V20.9983H93.7548V20.9965Z" fill="#160E41"/>
<path d="M100.855 20.9965V10.3317L103.286 7.66504V20.9983H100.855V20.9965Z" fill="#160E41"/>
<path d="M4.3261 33.9884H2.15503L1.67863 35.5165H0.200195L2.36071 28.9512H4.24172L6.44092 35.5165H4.81305L4.3261 33.9884ZM3.91474 32.7211L3.22211 30.5727L2.54882 32.7211H3.91474Z" fill="#160E41"/>
<path d="M13.0263 34.1558V35.5165H8.75977V28.9512H10.2945V34.1558H13.0263Z" fill="#160E41"/>
<path d="M24.3543 28.9512L22.5683 35.5165H20.7822L19.6307 31.0327L18.583 35.5165H16.7969L14.9722 28.9512H16.6L17.806 33.65L18.8906 28.9512H20.5835L21.7438 33.5002L22.8759 28.9512H24.3543Z" fill="#160E41"/>
<path d="M30.2402 33.9884H28.0691L27.5927 35.5165H26.1143L28.2748 28.9512H30.1558L32.355 35.5165H30.7271L30.2402 33.9884ZM29.8288 32.7211L29.1362 30.5727L28.4629 32.7211H29.8288Z" fill="#160E41"/>
<path d="M39.4079 35.1512C39.0774 35.2957 38.7944 35.4015 38.5571 35.4702C39.0053 35.6835 39.4888 35.8492 40.0074 35.9673L39.3991 37.3367C38.4569 36.9366 37.5304 36.3673 36.6198 35.6306C35.827 35.5372 35.2433 35.227 34.8654 34.7018C34.4874 34.1766 34.2993 33.424 34.2993 32.4405C34.2993 31.8835 34.3732 31.3231 34.5191 30.7573C34.665 30.1916 34.8601 29.7086 35.1045 29.3085C35.8709 28.9772 36.6198 28.8115 37.3494 28.8115C38.3285 28.8115 39.0511 29.0759 39.5152 29.6046C39.9792 30.1334 40.2113 30.9389 40.2113 32.0193C40.2113 32.5762 40.1375 33.1367 39.9916 33.7024C39.8456 34.2682 39.6505 34.7494 39.4079 35.1512ZM36.2084 30.4048C36.0397 30.893 35.9465 31.5081 35.9272 32.2519C35.9272 32.9393 36.0362 33.4363 36.2542 33.743C36.4721 34.0497 36.8378 34.203 37.3494 34.203C37.6869 34.203 38.0051 34.1536 38.3039 34.0532C38.4727 33.565 38.5659 32.9499 38.5852 32.2061C38.5852 31.5187 38.4762 31.0217 38.2582 30.715C38.0402 30.4083 37.6746 30.255 37.163 30.255C36.8255 30.255 36.5073 30.3044 36.2084 30.4048Z" fill="#160E41"/>
<path d="M44.1963 30.3118V31.5491H47.0407V32.9097H44.1963V35.5165H42.6616V28.9512H47.227V30.3118H44.1963Z" fill="#160E41"/>
<path d="M56.7431 33.9884H54.572L54.0956 35.5165H52.6172L54.7777 28.9512H56.6587L58.8579 35.5165H57.23L56.7431 33.9884ZM56.33 32.7211L55.6373 30.5727L54.9641 32.7211H56.33Z" fill="#160E41"/>
<path d="M65.4428 34.1558V35.5165H61.1763V28.9512H62.711V34.1558H65.4428Z" fill="#160E41"/>
<path d="M72.0759 35.5163L70.0736 32.758C69.78 32.3508 69.5409 31.9613 69.3528 31.5859L69.2966 31.6053C69.3405 31.8238 69.3616 32.2592 69.3616 32.9095V35.5163H67.9482V28.951H69.3616L71.3639 31.7463C71.6751 32.1957 71.9159 32.587 72.0847 32.9184L72.1409 32.899C72.097 32.6804 72.0759 32.2451 72.0759 31.5947V28.9492H73.4893V35.5145H72.0759V35.5163Z" fill="#160E41"/>
<path d="M79.9335 33.9884H77.7625L77.2861 35.5165H75.8076L77.9681 28.9512H79.8491L82.0483 35.5165H80.4205L79.9335 33.9884ZM79.5222 32.7211L78.8295 30.5727L78.1562 32.7211H79.5222Z" fill="#160E41"/>
<path d="M87.9325 33.9884H85.7615L85.2851 35.5165H83.8066L85.9672 28.9512H87.8482L90.0474 35.5165H88.4195L87.9325 33.9884ZM87.5212 32.7211L86.8286 30.5727L86.1553 32.7211H87.5212Z" fill="#160E41"/>
<path d="M99.0547 28.9512V35.5165H97.52V32.9379C97.52 32.3933 97.5482 31.9245 97.6044 31.5315H97.52C97.4444 31.9122 97.302 32.3387 97.0893 32.8075L96.2279 34.7586H95.0589L94.1799 32.8075C93.9795 32.3193 93.8424 31.8945 93.7686 31.5315H93.6842C93.7404 31.9263 93.7686 32.3951 93.7686 32.9379V35.5165H92.3657V28.9512H93.8811L95.8078 33.3028L97.6044 28.9512H99.0547Z" fill="#160E41"/>
<path d="M103.471 28.9512V35.5165H101.936V28.9512H103.471Z" fill="#160E41"/>
</svg>
