<svg width="78" height="23" viewBox="0 0 78 23" fill="none" xmlns="http://www.w3.org/2000/svg">
<path d="M12.4783 8.40425C12.6471 8.59195 12.8963 8.68448 13.2272 8.68448H13.4882C13.5397 8.68448 13.5753 8.70035 13.5924 8.73075C13.6095 8.76115 13.6188 8.78891 13.6188 8.81535V10.1214C13.6188 10.1465 13.6109 10.1756 13.5924 10.206C13.5753 10.2364 13.5397 10.2522 13.4882 10.2522H12.6813C11.943 10.2522 11.3787 10.0235 10.9884 9.56749C10.5982 9.11013 10.4017 8.49942 10.4017 7.73406V3.77638H9.9719C8.69563 3.77638 8.0575 4.36461 8.0575 5.53843V10.2509H3.37037C2.26813 10.2509 1.46123 9.96405 0.948351 9.38904C0.435469 8.81403 0.179688 8.09229 0.179688 7.22249V5.77637L2.00312 3.77638V6.93565C2.00312 8.10154 2.64126 8.68448 3.91753 8.68448H6.23538V5.25158C6.23538 4.38179 6.49116 3.65741 7.00405 3.07843C7.51561 2.49945 8.32251 2.20996 9.42606 2.20996H12.2252V7.44457C12.2238 7.89665 12.3082 8.21654 12.4783 8.40425ZM2.57533 13.044V11.3996H4.45018V13.044H2.57533ZM5.17929 13.044V11.3996H7.05415V13.044H5.17929Z" fill="white"/>
<path d="M18.7145 4.07644C19.2485 4.36328 19.6625 4.76117 19.9578 5.27009C20.2531 5.77901 20.4008 6.34741 20.4008 6.97398C20.4008 7.79221 20.1411 8.88408 19.6203 10.2509H13.4881C13.4354 10.2509 13.4011 10.235 13.3839 10.2046C13.3668 10.1742 13.3589 10.1451 13.3589 10.12V8.81402C13.3589 8.78758 13.3668 8.75982 13.3839 8.72942C13.4011 8.69902 13.4367 8.68316 13.4881 8.68316H14.2686V3.90724C15.3972 3.73275 16.2608 3.64551 16.8594 3.64551C17.5621 3.64551 18.1805 3.78959 18.7145 4.07644ZM16.0907 5.30313V8.68448H18.2517C18.4257 8.08435 18.5128 7.52255 18.5128 7.00041C18.5128 5.80809 17.9827 5.21192 16.924 5.21192C16.655 5.21192 16.3768 5.24233 16.0907 5.30313Z" fill="white"/>
<path d="M24.2346 8.40393C24.4034 8.59164 24.6526 8.68417 24.9835 8.68417H25.2446C25.296 8.68417 25.3316 8.70003 25.3487 8.73043C25.3659 8.76083 25.3751 8.78859 25.3751 8.81503V10.121C25.3751 10.1462 25.3659 10.1752 25.3487 10.2056C25.3316 10.236 25.296 10.2519 25.2446 10.2519H24.4364C23.698 10.2519 23.135 10.0232 22.7435 9.56718C22.3532 9.10981 22.1567 8.4991 22.1567 7.73374V2.25194L23.9802 0.251953V7.44425C23.9802 7.89633 24.0659 8.21622 24.2346 8.40393Z" fill="white"/>
<path d="M28.5121 8.20189C28.7731 8.52442 29.1937 8.68437 29.7752 8.68437C29.8266 8.68437 29.8622 8.70023 29.8793 8.73063C29.8965 8.76104 29.9057 8.7888 29.9057 8.81523V10.1212C29.9057 10.1464 29.8965 10.1754 29.8793 10.2058C29.8622 10.2362 29.8266 10.2521 29.7752 10.2521C29.4891 10.2521 29.1766 10.182 28.8377 10.0433C28.4989 9.90446 28.1956 9.6956 27.9267 9.41669C27.4586 9.97319 26.8324 10.2521 26.0518 10.2521H25.2449C25.1922 10.2521 25.1579 10.2362 25.1408 10.2058C25.1236 10.1754 25.1157 10.1464 25.1157 10.1212V8.81523C25.1157 8.7888 25.1236 8.76104 25.1408 8.73063C25.1579 8.70023 25.1935 8.68437 25.2449 8.68437H25.5047C25.8514 8.68437 26.1494 8.54689 26.3973 8.27327C26.6438 7.99832 26.7691 7.63613 26.7691 7.18272V3.77626H28.5925V7.47089C28.5899 7.72337 28.5648 7.96659 28.5121 8.20189ZM26.7414 2.66589V1.02148H28.6162V2.66589H26.7414Z" fill="white"/>
<path d="M29.7751 10.2506C29.7236 10.2506 29.688 10.2347 29.6709 10.2043C29.6538 10.1739 29.6445 10.1448 29.6445 10.1197V8.81371C29.6445 8.78727 29.6524 8.75951 29.6709 8.72911C29.688 8.69871 29.7236 8.68284 29.7751 8.68284H31.0764V2.25194L32.8866 0.251953V10.2519H29.7751V10.2506Z" fill="white"/>
<path d="M35.1001 10.2506V2.25194L36.9235 0.251953V10.2519H35.1001V10.2506Z" fill="white"/>
<path d="M43.5638 5.86482V6.92231C43.5638 8.09746 44.2019 8.68437 45.4782 8.68437H48.7717C48.2167 8.24022 47.9385 7.60176 47.9385 6.76633C47.9385 6.20983 48.0927 5.69165 48.4013 5.21314C48.7098 4.73462 49.1343 4.35392 49.6775 4.07104C50.2194 3.78816 50.8259 3.64672 51.4944 3.64672C52.1101 3.64672 52.9737 3.73396 54.0851 3.90845V7.47221C54.0851 7.72469 54.0588 7.96791 54.0074 8.20321C54.2684 8.52574 54.689 8.68569 55.2704 8.68569C55.3232 8.68569 55.3575 8.70155 55.3746 8.73196C55.3917 8.76236 55.401 8.79012 55.401 8.81655V10.1226C55.401 10.1477 55.3931 10.1768 55.3746 10.2072C55.3575 10.2376 55.3232 10.2534 55.2704 10.2534C54.9843 10.2534 54.6719 10.1834 54.333 10.0446C53.9942 9.90578 53.6896 9.69692 53.422 9.41801C52.9539 9.97451 52.3289 10.2534 51.5471 10.2534H44.9324C43.8301 10.2534 43.0232 9.96394 42.5104 9.38496C41.9975 8.80598 41.7417 8.08159 41.7417 7.2118M49.8397 7.0003C49.8397 7.46164 49.9781 7.84234 50.2563 8.1424C50.5345 8.44247 50.9024 8.61827 51.3625 8.67115C51.6407 8.55879 51.8596 8.37108 52.0204 8.11068C52.1813 7.84895 52.2617 7.54095 52.2617 7.18404V5.30302C51.9585 5.24222 51.6803 5.21181 51.4284 5.21181C50.3684 5.21181 49.8397 5.80798 49.8397 7.0003ZM50.5161 2.66589V1.02148H52.3909V2.66589H50.5161Z" fill="white"/>
<path d="M62.1814 3.90713V10.2508H55.2674C55.2147 10.2508 55.1804 10.2349 55.1632 10.2045C55.1461 10.1741 55.1382 10.145 55.1382 10.1199V8.81391C55.1382 8.78747 55.1461 8.75971 55.1632 8.72931C55.1804 8.69891 55.216 8.68305 55.2674 8.68305H56.8812C56.3261 8.2389 56.0479 7.60043 56.0479 6.76501C56.0479 6.2085 56.2022 5.69033 56.5107 5.21181C56.8192 4.7333 57.2438 4.3526 57.787 4.06972C58.3289 3.78684 58.9354 3.6454 59.6038 3.6454C60.2116 3.6454 61.0713 3.73264 62.1814 3.90713ZM57.195 2.66589V1.02148H59.0698V2.66589H57.195ZM57.9505 7.0003C57.9505 7.49601 58.1113 7.89653 58.4317 8.20188C58.7521 8.50591 59.1687 8.66718 59.6816 8.68437H60.3593V5.30302C60.056 5.24222 59.7818 5.21181 59.5392 5.21181C58.4805 5.21181 57.9505 5.80798 57.9505 7.0003ZM59.7989 2.66589V1.02148H61.6738V2.66589H59.7989Z" fill="white"/>
<path d="M70.4496 8.73603C70.4668 8.7704 70.476 8.79684 70.476 8.81402V10.12C70.476 10.1451 70.4668 10.1742 70.4496 10.2046C70.4325 10.235 70.3969 10.2509 70.3455 10.2509H69.5254C69.4476 11.2344 69.1285 11.9482 68.5682 12.391C68.0091 12.8352 67.2207 13.1392 66.2055 13.3044L65.4764 11.6719C66.0143 11.6018 66.4415 11.504 66.7592 11.3785C67.0757 11.2516 67.317 11.0652 67.4818 10.8167C67.6466 10.5695 67.7283 10.2311 67.7283 9.80542V5.30313C67.4251 5.24233 67.1469 5.21192 66.895 5.21192C65.8363 5.21192 65.3063 5.80809 65.3063 7.00041C65.3063 7.52255 65.4434 7.93366 65.7163 8.23372C65.9906 8.53378 66.3822 8.68448 66.895 8.68448H67.4686L66.7658 10.2509H66.5839C65.9853 10.2509 65.4447 10.1161 64.9635 9.8464C64.4823 9.57674 64.1039 9.1934 63.8309 8.6977C63.5567 8.20199 63.4209 7.62698 63.4209 6.97398C63.4209 6.34741 63.5686 5.77901 63.8639 5.27009C64.1592 4.76117 64.5732 4.36328 65.1072 4.07644C65.6412 3.78959 66.2595 3.64551 66.9623 3.64551C67.5609 3.64551 68.4245 3.73275 69.5531 3.90724V8.68448H70.3481C70.3982 8.68448 70.4325 8.70166 70.4496 8.73603Z" fill="white"/>
<path d="M70.3455 10.2506C70.2928 10.2506 70.2585 10.2347 70.2414 10.2043C70.2242 10.1739 70.2163 10.1448 70.2163 10.1197V8.81371C70.2163 8.78727 70.2255 8.75951 70.2414 8.72911C70.2585 8.69871 70.2941 8.68284 70.3455 8.68284H71.6468V2.25194L73.4571 0.251953V10.2519H70.3455V10.2506Z" fill="white"/>
<path d="M75.6704 10.2506V2.25194L77.4938 0.251953V10.2519H75.6704V10.2506Z" fill="white"/>
<path d="M3.27412 19.9947H1.64582L1.28851 21.1408H0.179688L1.80008 16.2168H3.21083L4.86023 21.1408H3.63933L3.27412 19.9947ZM2.9656 19.0443L2.44612 17.4329L1.94115 19.0443H2.9656Z" fill="white"/>
<path d="M9.79903 20.1203V21.1408H6.59912V16.2168H7.75014V20.1203H9.79903Z" fill="white"/>
<path d="M18.2949 16.2168L16.9554 21.1408H15.6158L14.7522 17.7779L13.9664 21.1408H12.6269L11.2583 16.2168H12.4792L13.3837 19.7409L14.1972 16.2168H15.4668L16.337 19.6285L17.1861 16.2168H18.2949Z" fill="white"/>
<path d="M22.7097 19.9947H21.0814L20.7241 21.1408H19.6152L21.2356 16.2168H22.6464L24.2958 21.1408H23.0749L22.7097 19.9947ZM22.4011 19.0443L21.8817 17.4329L21.3767 19.0443H22.4011Z" fill="white"/>
<path d="M29.5854 20.8671C29.3375 20.9755 29.1252 21.0548 28.9472 21.1063C29.2834 21.2663 29.646 21.3905 30.035 21.4791L29.5788 22.5062C28.8721 22.2061 28.1772 21.7792 27.4943 21.2266C26.8996 21.1566 26.4619 20.9239 26.1785 20.53C25.895 20.1361 25.7539 19.5716 25.7539 18.834C25.7539 18.4163 25.8093 17.996 25.9187 17.5716C26.0281 17.1473 26.1745 16.7851 26.3578 16.4851C26.9326 16.2366 27.4943 16.1123 28.0414 16.1123C28.7758 16.1123 29.3177 16.3106 29.6658 16.7071C30.0139 17.1037 30.1879 17.7078 30.1879 18.5181C30.1879 18.9358 30.1325 19.3562 30.0231 19.7805C29.9137 20.2048 29.7673 20.5657 29.5854 20.8671ZM27.1858 17.3073C27.0592 17.6734 26.9893 18.1348 26.9748 18.6926C26.9748 19.2081 27.0565 19.5809 27.22 19.8109C27.3835 20.0409 27.6578 20.1559 28.0414 20.1559C28.2946 20.1559 28.5332 20.1189 28.7574 20.0435C28.8839 19.6774 28.9538 19.2161 28.9683 18.6582C28.9683 18.1427 28.8866 17.7699 28.7231 17.5399C28.5596 17.3099 28.2854 17.1949 27.9017 17.1949C27.6485 17.1949 27.4099 17.2319 27.1858 17.3073Z" fill="white"/>
<path d="M33.1764 17.2373V18.1652H35.3097V19.1857H33.1764V21.1408H32.0254V16.2168H35.4494V17.2373H33.1764Z" fill="white"/>
<path d="M42.5866 19.9947H40.9583L40.601 21.1408H39.4922L41.1126 16.2168H42.5233L44.1727 21.1408H42.9518L42.5866 19.9947ZM42.2768 19.0443L41.7573 17.4329L41.2523 19.0443H42.2768Z" fill="white"/>
<path d="M49.1115 20.1203V21.1408H45.9116V16.2168H47.0626V20.1203H49.1115Z" fill="white"/>
<path d="M54.0865 21.1401L52.5847 19.0714C52.3646 18.7661 52.1853 18.4739 52.0442 18.1924L52.002 18.2069C52.0349 18.3708 52.0508 18.6973 52.0508 19.1851V21.1401H50.9907V16.2162H52.0508L53.5525 18.3127C53.7859 18.6497 53.9665 18.9432 54.0931 19.1917L54.1353 19.1772C54.1023 19.0132 54.0865 18.6867 54.0865 18.199V16.2148H55.1465V21.1388H54.0865V21.1401Z" fill="white"/>
<path d="M59.9797 19.9947H58.3514L57.9941 21.1408H56.8853L58.5056 16.2168H59.9164L61.5658 21.1408H60.3449L59.9797 19.9947ZM59.6712 19.0443L59.1517 17.4329L58.6467 19.0443H59.6712Z" fill="white"/>
<path d="M65.9787 19.9947H64.3504L63.9931 21.1408H62.8843L64.5047 16.2168H65.9154L67.5648 21.1408H66.3439L65.9787 19.9947ZM65.6702 19.0443L65.1507 17.4329L64.6457 19.0443H65.6702Z" fill="white"/>
<path d="M74.3205 16.2168V21.1408H73.1694V19.2069C73.1694 18.7984 73.1905 18.4468 73.2327 18.152H73.1694C73.1127 18.4375 73.006 18.7574 72.8464 19.1091L72.2004 20.5724H71.3236L70.6644 19.1091C70.5141 18.7429 70.4112 18.4243 70.3558 18.152H70.2926C70.3347 18.4481 70.3558 18.7997 70.3558 19.2069V21.1408H69.3037V16.2168H70.4402L71.8853 19.4805L73.2327 16.2168H74.3205Z" fill="white"/>
<path d="M77.6325 16.2168V21.1408H76.4814V16.2168H77.6325Z" fill="white"/>
</svg>
