<svg width="30" height="30" viewBox="0 0 30 30" fill="none" xmlns="http://www.w3.org/2000/svg">
<path d="M15 2.1875C16.3109 2.18757 17.4377 2.70593 18.6152 3.56738C19.758 4.40341 21.0458 5.63698 22.6699 7.19434L28.1484 12.4482C28.522 12.8065 28.5347 13.3997 28.1768 13.7734C27.8184 14.1472 27.2243 14.1601 26.8506 13.8018L25.9375 12.9258V16.9453C25.9375 19.2425 25.9375 21.0623 25.7461 22.4863C25.5491 23.9518 25.1336 25.1378 24.1982 26.0732C23.2629 27.0086 22.0767 27.424 20.6113 27.6211C19.1873 27.8125 17.3675 27.8125 15.0703 27.8125H14.9297C12.6326 27.8125 10.8127 27.8125 9.38867 27.6211C7.92322 27.4241 6.73719 27.0086 5.80176 26.0732C4.86632 25.1378 4.45095 23.9518 4.25391 22.4863C4.06245 21.0623 4.06248 19.2425 4.0625 16.9453V12.9248L3.14844 13.8018C2.77471 14.16 2.18156 14.1471 1.82324 13.7734C1.46504 13.3997 1.47701 12.8066 1.85059 12.4482L7.33008 7.19434C8.95396 5.63721 10.2412 4.40336 11.3838 3.56738C12.5614 2.70587 13.6889 2.1875 15 2.1875ZM15 4.0625C14.24 4.0625 13.498 4.34356 12.4912 5.08008C11.4612 5.8336 10.2627 6.97952 8.57715 8.5957L5.9375 11.127V16.875C5.9375 19.2585 5.93961 20.9518 6.1123 22.2363C6.28139 23.4939 6.59794 24.219 7.12695 24.748C7.65595 25.277 8.38117 25.5936 9.63867 25.7627C10.9232 25.9354 12.6167 25.9375 15 25.9375C17.3834 25.9375 19.0768 25.9354 20.3613 25.7627C21.6186 25.5936 22.3431 25.2768 22.8721 24.748C23.4011 24.219 23.7186 23.4939 23.8877 22.2363C24.0604 20.9518 24.0625 19.2584 24.0625 16.875V11.1279L21.4219 8.5957C19.7366 6.97973 18.5387 5.83357 17.5088 5.08008C16.5021 4.34357 15.7599 4.06257 15 4.0625ZM15.0107 20C15.7011 20 16.2607 20.5596 16.2607 21.25C16.2607 21.9404 15.7011 22.5 15.0107 22.5H15C14.3096 22.5 13.75 21.9404 13.75 21.25C13.75 20.5596 14.3096 20 15 20H15.0107Z" fill="white"/>
</svg>
