<svg width="30" height="30" viewBox="0 0 30 30" fill="none" xmlns="http://www.w3.org/2000/svg">
<path fill-rule="evenodd" clip-rule="evenodd" d="M29.769 24.9249C29.5531 24.4733 29.2063 24.2142 28.8174 24.2142H27.8211V7.18482C27.8211 5.79541 26.8442 4.66498 25.6435 4.66498H17.9521V1.79798C17.9521 0.806572 17.2551 0 16.3984 0H13.6016C12.7449 0 12.0479 0.806572 12.0479 1.79798V1.88551C11.9474 1.86185 11.8435 1.84933 11.7371 1.84933H8.94038C8.08364 1.84933 7.38662 2.65592 7.38662 3.64732V4.66499H4.3565C3.15583 4.66499 2.17895 5.79541 2.17895 7.18483V24.2142H1.18257C0.793694 24.2142 0.446833 24.4734 0.230927 24.925C-0.0458256 25.5039 -0.120965 26.468 0.270833 27.1907C0.29227 27.2303 0.317011 27.2672 0.344604 27.3012C2.53824 30 2.65049 30 2.9503 30H27.0497C27.3495 30 27.4617 30 29.6555 27.3012C29.683 27.2672 29.7078 27.2303 29.7293 27.1907C30.121 26.468 30.0458 25.5038 29.7691 24.925L29.769 24.9249ZM3.15408 28.5616C2.83351 28.2261 2.00717 27.2455 1.30121 26.3786C1.20823 26.1536 1.2395 25.8115 1.30271 25.6525H11.271V25.9619C11.271 26.9854 11.9906 27.8182 12.8752 27.8182H17.1248C18.0093 27.8182 18.729 26.9855 18.729 25.9619V25.6525H28.6974C28.7606 25.8115 28.7919 26.1536 28.6988 26.3786C27.9929 27.2455 27.1665 28.226 26.846 28.5616H3.15408ZM3.42194 7.18482C3.42194 6.58846 3.84121 6.10336 4.35649 6.10336H7.38661V24.2142H3.42194V7.18482ZM8.94037 3.28772H11.7371C11.9085 3.28772 12.0479 3.44903 12.0479 3.64731V4.41786H8.62962V3.64731C8.62962 3.44903 8.76902 3.28772 8.94038 3.28772H8.94037ZM13.6016 1.43839H16.3984C16.5697 1.43839 16.7091 1.5997 16.7091 1.79798V2.56853H13.2909V1.79798C13.2909 1.59971 13.4303 1.43839 13.6016 1.43839ZM16.7091 5.08541H13.2909V4.0069H16.7091V5.08541ZM26.5781 7.18482V19.5401L22.206 8.6903C21.8439 7.79174 20.9177 7.40158 20.1411 7.82066L17.9521 9.00186V6.10337H25.6435C26.1588 6.10337 26.5781 6.58854 26.5781 7.18483L26.5781 7.18482ZM17.9815 10.9699C17.909 10.7902 17.9765 10.5758 18.1318 10.492L20.6665 9.12427C20.7089 9.1014 20.7534 9.09061 20.7973 9.09061C20.9144 9.09061 21.0267 9.16756 21.0794 9.29824L21.3608 9.99665L18.2629 11.6683L17.9815 10.9699ZM26.1856 22.8206L23.651 24.1883C23.4957 24.2722 23.3104 24.1942 23.238 24.0144L19.7074 15.253L22.8053 13.5813L26.336 22.3428C26.4268 22.5681 26.3246 22.7456 26.1856 22.8206ZM16.7091 24.2142H13.2909V6.52381H16.7091V24.2142ZM17.9521 24.2142V14.3007L21.9469 24.2142H17.9521ZM19.1821 13.9494L18.7881 12.9719L21.8862 11.3003L22.28 12.2777L19.1821 13.9494ZM8.62962 8.37314H12.0479V24.2142H8.62962V8.37314ZM12.514 25.6607H17.486V26.0968C17.486 26.4305 17.3239 26.7021 17.1248 26.7021H12.8751C12.6759 26.7021 12.5139 26.4306 12.5139 26.0968V25.6607H12.514ZM12.0479 5.85625V6.93475H8.62962V5.85625H12.0479Z" fill="white"/>
<path fill-rule="evenodd" clip-rule="evenodd" d="M10.9602 21.7048H9.7172C9.37396 21.7048 9.0957 22.0268 9.0957 22.424C9.0957 22.8211 9.37395 23.1432 9.7172 23.1432H10.9602C11.3035 23.1432 11.5817 22.8211 11.5817 22.424C11.5817 22.0268 11.3035 21.7048 10.9602 21.7048ZM14.3785 23.1432H15.6215C15.9647 23.1432 16.243 22.8211 16.243 22.424C16.243 22.0268 15.9647 21.7048 15.6215 21.7048H14.3785C14.0352 21.7048 13.757 22.0268 13.757 22.424C13.757 22.8211 14.0352 23.1432 14.3785 23.1432ZM24.5658 20.9278L23.4392 21.5357C23.1282 21.7035 22.9936 22.1315 23.1386 22.4915C23.3586 23.0374 23.8474 22.9025 23.9646 22.8394L25.0911 22.2315C25.4022 22.0637 25.5368 21.6358 25.3917 21.2757C25.2466 20.9159 24.8771 20.7601 24.5658 20.9278H24.5658Z" fill="white"/>
</svg>
