<svg width="36" height="35" viewBox="0 0 36 35" fill="none" xmlns="http://www.w3.org/2000/svg">
<path opacity="0.4" d="M7.14778 13.7348C11.07 6.79448 13.0311 3.32434 15.7222 2.43107C17.2026 1.93964 18.7974 1.93964 20.2778 2.43107C22.9689 3.32434 24.93 6.79448 28.8522 13.7348C32.7745 20.675 34.7356 24.1452 34.1473 26.9727C33.8236 28.5282 33.0262 29.9391 31.8694 31.0033C29.7667 32.9375 25.8444 32.9375 18 32.9375C10.1556 32.9375 6.23333 32.9375 4.13057 31.0033C2.97375 29.9391 2.17638 28.5282 1.85274 26.9727C1.26444 24.1452 3.22555 20.675 7.14778 13.7348Z" fill="#8C8C8C"/>
<path d="M15.3389 1.27441C17.0685 0.700368 18.9325 0.700286 20.6621 1.27441C22.3846 1.84622 23.737 3.2022 25.0957 5.10742C26.4499 7.0064 27.9462 9.65439 29.875 13.0674L29.9512 13.2021C31.8803 16.6157 33.3771 19.263 34.3096 21.4102C35.2466 23.5678 35.7131 25.431 35.3408 27.2207C34.9659 29.0227 34.0408 30.6618 32.6943 31.9004C31.3512 33.1357 29.5224 33.6569 27.2197 33.9072C24.9299 34.1562 21.9343 34.1563 18.0791 34.1562H17.9209C14.0657 34.1563 11.0701 34.1562 8.78027 33.9072C6.47762 33.6569 4.64876 33.1358 3.30566 31.9004C1.9592 30.6618 1.03509 29.0227 0.660156 27.2207C0.28782 25.431 0.754361 23.5678 1.69141 21.4102C2.6239 19.2631 4.11982 16.6155 6.04883 13.2021L6.125 13.0674C8.05385 9.65432 9.55008 7.00643 10.9043 5.10742C12.2631 3.20205 13.6163 1.84621 15.3389 1.27441ZM19.8945 3.58789C18.6634 3.17922 17.3376 3.17923 16.1064 3.58789C15.138 3.90937 14.1638 4.7344 12.8887 6.52246C11.618 8.30435 10.1838 10.8396 8.20898 14.334C6.23421 17.8283 4.80221 20.366 3.92676 22.3818C3.04992 24.4009 2.82999 25.6869 3.0459 26.7246C3.31828 28.0336 3.98894 29.2168 4.95605 30.1064C5.71564 30.805 6.89917 31.2512 9.04395 31.4844C11.1863 31.7173 14.0491 31.7188 18 31.7188C21.9508 31.7188 24.8137 31.7173 26.9561 31.4844C29.1011 31.2512 30.2853 30.8052 31.0449 30.1064C32.012 29.2169 32.6817 28.0335 32.9541 26.7246C33.17 25.6869 32.9501 24.401 32.0732 22.3818C31.1978 20.366 29.7658 17.8283 27.791 14.334C25.8162 10.8397 24.382 8.30432 23.1113 6.52246C21.8365 4.73482 20.8628 3.90946 19.8945 3.58789ZM16.8252 16.2812C17.1582 16.2811 17.5183 16.2814 17.8223 16.3223C18.1786 16.3702 18.6344 16.4929 19.0176 16.876C19.4008 17.2592 19.5243 17.7149 19.5723 18.0713C19.6131 18.3755 19.6124 18.7361 19.6123 19.0693V25.625C19.6123 26.2981 19.0666 26.8438 18.3936 26.8438C17.7206 26.8436 17.1748 26.298 17.1748 25.625V19.125C17.1748 18.964 17.1747 18.8335 17.1729 18.7207C17.0601 18.7189 16.9294 18.7188 16.7686 18.7188C16.0956 18.7186 15.5498 18.173 15.5498 17.5C15.5498 16.827 16.0955 16.2814 16.7686 16.2812C16.7871 16.2812 16.8064 16.2813 16.8252 16.2812ZM18.002 11C18.8994 11 19.627 11.7275 19.627 12.625C19.6269 13.5224 18.8994 14.25 18.002 14.25H17.9873C17.09 14.2499 16.3623 13.5224 16.3623 12.625C16.3623 11.7276 17.0899 11.0001 17.9873 11H18.002Z" fill="#8C8C8C"/>
</svg>
