<svg width="17" height="17" viewBox="0 0 17 17" fill="none" xmlns="http://www.w3.org/2000/svg">
<path d="M7.375 0C7.71994 2.37009e-07 7.99907 0.279108 8 0.624023C8 0.968969 7.72173 1.24991 7.37598 1.25C4.38359 1.25583 2.98603 1.34429 2.16602 2.16504C1.25018 3.08087 1.25 4.76668 1.25 8.125C1.25 11.4833 1.25004 13.1691 2.16504 14.085C3.08003 14.9999 4.76581 15 8.12402 15C11.4822 15 13.1671 14.9998 14.083 14.085C14.9038 13.2641 14.9912 11.8665 14.9971 8.87402C14.9972 8.52926 15.2773 8.25024 15.6221 8.25H15.624C15.969 8.25 16.248 8.53098 16.248 8.87598C16.2422 11.9542 16.1804 13.7554 14.9688 14.9688C13.6871 16.2504 11.8283 16.25 8.125 16.25C4.4225 16.25 2.56208 16.2504 1.28125 14.9688C-0.000406239 13.6871 0 11.8283 0 8.125C0 4.42168 -0.000414224 2.56208 1.28125 1.28125C2.49288 0.0679641 4.29406 0.00583663 7.37305 0H7.375ZM11.4746 0.0478516C15.0954 -0.00379094 15.4872 0.386609 15.6973 0.59668C15.9064 0.80668 16.2968 1.19741 16.2451 4.82324C16.2399 5.1679 15.9577 5.44657 15.6113 5.43848C15.2664 5.43348 14.9902 5.15043 14.9951 4.80469C15.0126 3.55885 14.974 2.76086 14.9248 2.25586L7.77637 9.44727C7.65398 9.56966 7.4937 9.63075 7.33301 9.63086V9.63184C7.17384 9.63184 7.0141 9.57103 6.8916 9.4502C6.64673 9.20685 6.64636 8.81136 6.88965 8.56641L14.0459 1.36816C13.5426 1.31817 12.744 1.28035 11.4932 1.29785H11.4844C11.1435 1.29785 10.8644 1.02331 10.8594 0.681641C10.8545 0.336924 11.1299 0.0531013 11.4746 0.0478516Z" fill="#7EA831"/>
</svg>
