<svg width="148" height="45" viewBox="0 0 148 45" fill="none" xmlns="http://www.w3.org/2000/svg">
<path d="M131.843 12.461C128.473 15.8503 125.145 19.1955 121.784 22.5742C121.582 21.915 121.515 21.2911 121.541 20.6601C121.569 19.9499 121.694 19.2537 121.956 18.5875C122.193 17.9812 122.526 17.4454 122.993 16.9801C125.889 14.0913 128.772 11.1938 131.66 8.29801C131.711 8.2469 131.765 8.20108 131.843 8.12881C135.904 12.2002 139.954 16.2627 144.048 20.3676C144.046 19.6026 143.92 18.9153 143.695 18.2473C143.268 16.9783 142.552 15.875 141.642 14.9162C140.154 13.3511 138.623 11.8283 137.103 10.2949C135.413 8.59235 133.717 6.89683 132.024 5.19779C131.966 5.13962 131.906 5.08499 131.83 5.01272C131.753 5.08499 131.681 5.1502 131.611 5.2207C128.765 8.06889 125.931 10.9277 123.074 13.7635C122.283 14.5478 121.485 15.3163 120.88 16.2627C120.084 17.5106 119.672 18.8959 119.439 20.3394C119.314 21.1078 119.302 21.8886 119.351 22.6641C119.398 23.3885 119.491 24.1093 119.621 24.8196C119.797 25.7837 120.063 26.7443 120.43 27.6255C124.248 23.7939 128.007 20.0256 131.799 16.2204C132.106 16.5412 132.361 16.8161 132.625 17.0805C136.007 20.4821 139.391 23.882 142.772 27.2854C143.454 27.971 144.029 28.7288 144.198 29.7194C144.351 30.6165 144.201 31.4977 144.025 32.3737C143.994 32.5323 143.951 32.6909 143.915 32.8496C139.891 28.8205 135.877 24.8002 131.859 20.7765C127.81 24.8355 123.797 28.8593 119.753 32.913C119.514 32.6169 119.289 32.3543 119.084 32.0793C116.731 28.9245 115.661 25.3713 115.928 21.4497C116.195 17.5476 117.723 14.1795 120.476 11.4C124.213 7.6265 127.972 3.87415 131.723 0.11299C131.75 0.0865528 131.776 0.0636404 131.841 0.00195312C132.017 0.188777 132.187 0.377364 132.365 0.557139C135.946 4.15086 139.539 7.73049 143.104 11.3383C146.448 14.7223 147.958 18.8219 147.726 23.5683C147.661 24.8778 147.397 26.1556 146.996 27.4052C146.977 27.4651 146.952 27.5215 146.919 27.6114C141.891 22.5548 136.879 17.5194 131.843 12.461Z" fill="#160E41"/>
<path d="M126.017 34.6297C127.945 36.5631 129.89 38.5107 131.822 40.4477C133.757 38.5072 135.701 36.5596 137.626 34.6279L142.037 34.7584C138.637 38.167 135.222 41.5933 131.822 45.0002C128.429 41.5986 125.011 38.1741 121.61 34.7654L126.017 34.6297Z" fill="#99CA3C"/>
<path d="M134.295 30.4474C133.483 31.2634 132.657 32.0953 131.844 32.9131C131.02 32.0812 130.19 31.2441 129.375 30.4192C130.174 29.619 131.008 28.7836 131.827 27.9658C132.632 28.7766 133.463 29.612 134.295 30.4474Z" fill="#97C93C"/>
<path d="M16.5986 18.5344C16.8236 18.7847 17.1559 18.9081 17.5971 18.9081H17.9452C18.0137 18.9081 18.0612 18.9292 18.0841 18.9698C18.1069 19.0103 18.1192 19.0473 18.1192 19.0826V20.8239C18.1192 20.8574 18.1087 20.8962 18.0841 20.9367C18.0612 20.9773 18.0137 20.9984 17.9452 20.9984H16.8693C15.8849 20.9984 15.1325 20.6935 14.6121 20.0854C14.0918 19.4756 13.8298 18.6613 13.8298 17.6409V12.3639H13.2567C11.555 12.3639 10.7042 13.1483 10.7042 14.7134V20.9966H4.45468C2.98503 20.9966 1.90917 20.6142 1.22532 19.8475C0.541482 19.0808 0.200439 18.1185 0.200439 16.9588V15.0306L2.63168 12.3639V16.5763C2.63168 18.1308 3.48253 18.9081 5.18423 18.9081H8.2747V14.3309C8.2747 13.1712 8.61574 12.2053 9.29958 11.4333C9.98167 10.6614 11.0575 10.2754 12.5289 10.2754H16.2611V17.2549C16.2593 17.8576 16.3718 18.2842 16.5986 18.5344ZM3.39463 24.7208V22.5283H5.89444V24.7208H3.39463ZM6.86658 24.7208V22.5283H9.36639V24.7208H6.86658Z" fill="#160E41"/>
<path d="M24.9137 12.764C25.6257 13.1465 26.1777 13.677 26.5715 14.3556C26.9653 15.0341 27.1622 15.792 27.1622 16.6274C27.1622 17.7184 26.8158 19.1742 26.1215 20.9966H17.9452C17.8749 20.9966 17.8292 20.9755 17.8064 20.9349C17.7835 20.8944 17.7729 20.8556 17.7729 20.8221V19.0808C17.7729 19.0456 17.7835 19.0085 17.8064 18.968C17.8292 18.9275 17.8767 18.9063 17.9452 18.9063H18.9859V12.5384C20.4907 12.3058 21.6422 12.1895 22.4403 12.1895C23.3773 12.1895 24.2018 12.3816 24.9137 12.764ZM21.4154 14.3996V18.9081H24.2967C24.5288 18.1079 24.6448 17.3588 24.6448 16.6627C24.6448 15.0729 23.9381 14.278 22.5264 14.278C22.1678 14.278 21.7969 14.3185 21.4154 14.3996Z" fill="#160E41"/>
<path d="M32.2742 18.5343C32.4992 18.7846 32.8315 18.908 33.2727 18.908H33.6208C33.6893 18.908 33.7368 18.9291 33.7597 18.9697C33.7825 19.0102 33.7948 19.0472 33.7948 19.0825V20.8238C33.7948 20.8573 33.7825 20.8961 33.7597 20.9366C33.7368 20.9772 33.6893 20.9983 33.6208 20.9983H32.5432C31.5587 20.9983 30.8081 20.6934 30.2859 20.0853C29.7656 19.4755 29.5037 18.6612 29.5037 17.6408V10.3317L31.9349 7.66504V17.2548C31.9349 17.8575 32.0492 18.2841 32.2742 18.5343Z" fill="#160E41"/>
<path d="M37.977 18.2643C38.325 18.6943 38.8858 18.9076 39.6611 18.9076C39.7296 18.9076 39.7771 18.9288 39.8 18.9693C39.8228 19.0098 39.8351 19.0468 39.8351 19.0821V20.8234C39.8351 20.8569 39.8228 20.8957 39.8 20.9362C39.7771 20.9768 39.7296 20.9979 39.6611 20.9979C39.2796 20.9979 38.863 20.9045 38.4112 20.7195C37.9594 20.5344 37.5551 20.2559 37.1964 19.884C36.5724 20.626 35.7373 20.9979 34.6966 20.9979H33.6208C33.5504 20.9979 33.5047 20.9768 33.4819 20.9362C33.459 20.8957 33.4485 20.8569 33.4485 20.8234V19.0821C33.4485 19.0468 33.459 19.0098 33.4819 18.9693C33.5047 18.9288 33.5522 18.9076 33.6208 18.9076H33.9671C34.4294 18.9076 34.8267 18.7243 35.1572 18.3595C35.486 17.9929 35.653 17.5099 35.653 16.9054V12.3635H38.0842V17.2896C38.0807 17.6263 38.0473 17.9506 37.977 18.2643ZM35.616 10.883V8.69043H38.1158V10.883H35.616Z" fill="#160E41"/>
<path d="M39.6611 20.9965C39.5925 20.9965 39.5451 20.9754 39.5222 20.9349C39.4994 20.8943 39.4871 20.8555 39.4871 20.8221V19.0807C39.4871 19.0455 39.4976 19.0085 39.5222 18.9679C39.5451 18.9274 39.5925 18.9062 39.6611 18.9062H41.3962V10.3317L43.8099 7.66504V20.9983H39.6611V20.9965Z" fill="#160E41"/>
<path d="M46.7615 20.9965V10.3317L49.1927 7.66504V20.9983H46.7615V20.9965Z" fill="#160E41"/>
<path d="M58.0458 15.1482V16.5582C58.0458 18.1251 58.8967 18.9076 60.5984 18.9076H64.9897C64.2496 18.3154 63.8787 17.4641 63.8787 16.3502C63.8787 15.6082 64.0844 14.9173 64.4957 14.2793C64.9071 13.6413 65.4732 13.1337 66.1974 12.7565C66.9199 12.3793 67.7286 12.1907 68.6199 12.1907C69.4408 12.1907 70.5923 12.3071 72.0743 12.5397V17.2914C72.0743 17.628 72.0391 17.9523 71.9705 18.2661C72.3186 18.6961 72.8794 18.9094 73.6547 18.9094C73.725 18.9094 73.7707 18.9305 73.7935 18.9711C73.8164 19.0116 73.8287 19.0486 73.8287 19.0839V20.8252C73.8287 20.8587 73.8181 20.8975 73.7935 20.938C73.7707 20.9785 73.725 20.9997 73.6547 20.9997C73.2732 20.9997 72.8565 20.9063 72.4048 20.7212C71.953 20.5362 71.5469 20.2577 71.19 19.8858C70.5659 20.6278 69.7327 20.9997 68.6902 20.9997H59.8706C58.4009 20.9997 57.3251 20.6137 56.6412 19.8417C55.9574 19.0698 55.6163 18.1039 55.6163 16.9442M66.4137 16.6622C66.4137 17.2773 66.5982 17.7849 66.9692 18.185C67.3401 18.5851 67.8306 18.8195 68.4441 18.89C68.815 18.7402 69.1068 18.4899 69.3213 18.1427C69.5358 17.7937 69.643 17.383 69.643 16.9072V14.3991C69.2387 14.3181 68.8678 14.2775 68.532 14.2775C67.1186 14.2775 66.4137 15.0724 66.4137 16.6622ZM67.3155 10.883V8.69043H69.8153V10.883H67.3155Z" fill="#160E41"/>
<path d="M82.8697 12.538V20.9962H73.651C73.5807 20.9962 73.535 20.975 73.5122 20.9345C73.4893 20.8939 73.4788 20.8552 73.4788 20.8217V19.0803C73.4788 19.0451 73.4893 19.0081 73.5122 18.9675C73.535 18.927 73.5825 18.9058 73.651 18.9058H75.8028C75.0627 18.3136 74.6917 17.4624 74.6917 16.3485C74.6917 15.6065 74.8974 14.9156 75.3088 14.2775C75.7201 13.6395 76.2862 13.1319 77.0105 12.7547C77.733 12.3776 78.5417 12.189 79.4329 12.189C80.2433 12.189 81.3895 12.3053 82.8697 12.538ZM76.2212 10.883V8.69043H78.721V10.883H76.2212ZM77.2285 16.6622C77.2285 17.3231 77.4429 17.8572 77.8701 18.2643C78.2973 18.6697 78.8528 18.8847 79.5367 18.9076H80.4402V14.3991C80.0359 14.3181 79.6703 14.2775 79.3468 14.2775C77.9352 14.2775 77.2285 15.0724 77.2285 16.6622ZM79.6931 10.883V8.69043H82.1929V10.883H79.6931Z" fill="#160E41"/>
<path d="M93.8938 18.9768C93.9167 19.0226 93.929 19.0579 93.929 19.0808V20.8221C93.929 20.8556 93.9167 20.8944 93.8938 20.9349C93.871 20.9755 93.8235 20.9966 93.755 20.9966H92.6615C92.5578 22.3079 92.1324 23.2597 91.3853 23.8501C90.6399 24.4423 89.5886 24.8477 88.235 25.068L87.2629 22.8913C87.9801 22.7979 88.5497 22.6675 88.9733 22.5C89.3953 22.3308 89.717 22.0823 89.9367 21.751C90.1564 21.4214 90.2654 20.9702 90.2654 20.4027V14.3996C89.8611 14.3185 89.4902 14.278 89.1544 14.278C87.7428 14.278 87.0361 15.0729 87.0361 16.6627C87.0361 17.3588 87.2189 17.907 87.5828 18.3071C87.9485 18.7072 88.4706 18.9081 89.1544 18.9081H89.9191L88.9821 20.9966H88.7395C87.9414 20.9966 87.2207 20.8169 86.579 20.4573C85.9374 20.0978 85.4328 19.5866 85.0689 18.9257C84.7033 18.2648 84.5222 17.4981 84.5222 16.6274C84.5222 15.792 84.7191 15.0341 85.1129 14.3556C85.5067 13.677 86.0587 13.1465 86.7706 12.764C87.4826 12.3816 88.3071 12.1895 89.2441 12.1895C90.0422 12.1895 91.1936 12.3058 92.6984 12.5384V18.9081H93.7585C93.8253 18.9081 93.871 18.931 93.8938 18.9768Z" fill="#160E41"/>
<path d="M93.755 20.9965C93.6847 20.9965 93.639 20.9754 93.6162 20.9349C93.5933 20.8943 93.5828 20.8555 93.5828 20.8221V19.0807C93.5828 19.0455 93.5951 19.0085 93.6162 18.9679C93.639 18.9274 93.6865 18.9062 93.755 18.9062H95.4901V10.3317L97.9038 7.66504V20.9983H93.755V20.9965Z" fill="#160E41"/>
<path d="M100.855 20.9965V10.3317L103.287 7.66504V20.9983H100.855V20.9965Z" fill="#160E41"/>
<path d="M4.32635 33.9884H2.15528L1.67887 35.5165H0.200439L2.36096 28.9512H4.24196L6.44116 35.5165H4.8133L4.32635 33.9884ZM3.91499 32.7211L3.22235 30.5727L2.54906 32.7211H3.91499Z" fill="#160E41"/>
<path d="M13.0264 34.1558V35.5165H8.75989V28.9512H10.2946V34.1558H13.0264Z" fill="#160E41"/>
<path d="M24.3547 28.9512L22.5686 35.5165H20.7826L19.6311 31.0327L18.5834 35.5165H16.7973L14.9725 28.9512H16.6004L17.8063 33.65L18.891 28.9512H20.5839L21.7442 33.5002L22.8763 28.9512H24.3547Z" fill="#160E41"/>
<path d="M30.2403 33.9884H28.0692L27.5928 35.5165H26.1144L28.2749 28.9512H30.1559L32.3551 35.5165H30.7272L30.2403 33.9884ZM29.8289 32.7211L29.1363 30.5727L28.463 32.7211H29.8289Z" fill="#160E41"/>
<path d="M39.408 35.1512C39.0775 35.2957 38.7945 35.4015 38.5572 35.4702C39.0055 35.6835 39.4889 35.8492 40.0075 35.9673L39.3992 37.3367C38.457 36.9366 37.5305 36.3673 36.6199 35.6306C35.8271 35.5372 35.2435 35.227 34.8655 34.7018C34.4875 34.1766 34.2994 33.424 34.2994 32.4405C34.2994 31.8835 34.3733 31.3231 34.5192 30.7573C34.6651 30.1916 34.8602 29.7086 35.1046 29.3085C35.871 28.9772 36.6199 28.8115 37.3495 28.8115C38.3287 28.8115 39.0512 29.0759 39.5153 29.6046C39.9794 30.1334 40.2114 30.9389 40.2114 32.0193C40.2114 32.5762 40.1376 33.1367 39.9917 33.7024C39.8458 34.2682 39.6506 34.7494 39.408 35.1512ZM36.2086 30.4048C36.0398 30.893 35.9466 31.5081 35.9273 32.2519C35.9273 32.9393 36.0363 33.4363 36.2543 33.743C36.4723 34.0497 36.8379 34.203 37.3495 34.203C37.687 34.203 38.0052 34.1536 38.304 34.0532C38.4728 33.565 38.566 32.9499 38.5853 32.2061C38.5853 31.5187 38.4763 31.0217 38.2583 30.715C38.0404 30.4083 37.6747 30.255 37.1631 30.255C36.8256 30.255 36.5074 30.3044 36.2086 30.4048Z" fill="#160E41"/>
<path d="M44.1967 30.3118V31.5491H47.041V32.9097H44.1967V35.5165H42.662V28.9512H47.2274V30.3118H44.1967Z" fill="#160E41"/>
<path d="M56.7431 33.9884H54.572L54.0956 35.5165H52.6172L54.7777 28.9512H56.6587L58.8579 35.5165H57.23L56.7431 33.9884ZM56.33 32.7211L55.6373 30.5727L54.9641 32.7211H56.33Z" fill="#160E41"/>
<path d="M65.4432 34.1558V35.5165H61.1766V28.9512H62.7113V34.1558H65.4432Z" fill="#160E41"/>
<path d="M72.0759 35.5163L70.0736 32.758C69.78 32.3508 69.5409 31.9613 69.3528 31.5859L69.2966 31.6053C69.3405 31.8238 69.3616 32.2592 69.3616 32.9095V35.5163H67.9482V28.951H69.3616L71.3639 31.7463C71.6751 32.1957 71.9159 32.587 72.0847 32.9184L72.1409 32.899C72.097 32.6804 72.0759 32.2451 72.0759 31.5947V28.9492H73.4893V35.5145H72.0759V35.5163Z" fill="#160E41"/>
<path d="M79.934 33.9884H77.7629L77.2865 35.5165H75.8081L77.9686 28.9512H79.8496L82.0488 35.5165H80.421L79.934 33.9884ZM79.5226 32.7211L78.83 30.5727L78.1567 32.7211H79.5226Z" fill="#160E41"/>
<path d="M87.9327 33.9884H85.7616L85.2852 35.5165H83.8068L85.9673 28.9512H87.8483L90.0475 35.5165H88.4196L87.9327 33.9884ZM87.5213 32.7211L86.8287 30.5727L86.1554 32.7211H87.5213Z" fill="#160E41"/>
<path d="M99.0552 28.9512V35.5165H97.5205V32.9379C97.5205 32.3933 97.5486 31.9245 97.6049 31.5315H97.5205C97.4449 31.9122 97.3025 32.3387 97.0898 32.8075L96.2284 34.7586H95.0594L94.1804 32.8075C93.98 32.3193 93.8429 31.8945 93.7691 31.5315H93.6847C93.7409 31.9263 93.7691 32.3951 93.7691 32.9379V35.5165H92.3662V28.9512H93.8816L95.8083 33.3028L97.6049 28.9512H99.0552Z" fill="#160E41"/>
<path d="M103.471 28.9512V35.5165H101.937V28.9512H103.471Z" fill="#160E41"/>
</svg>
