<svg width="458" height="218" viewBox="0 0 458 218" fill="none" xmlns="http://www.w3.org/2000/svg">
<path fill-rule="evenodd" clip-rule="evenodd" d="M74.0812 144.643C74.0812 153.519 81.2768 160.714 90.1528 160.714H139.409C115.882 160.714 96.8096 142.076 96.8096 119.084C96.8096 96.0913 115.882 77.4526 139.409 77.4526C140.409 77.4526 141.401 77.4863 142.385 77.5527C141.701 73.7499 141.345 69.834 141.345 65.8348C141.345 29.4752 170.82 0 207.18 0C236.207 0 260.847 18.7861 269.603 44.8634C271.679 44.6464 273.786 44.5353 275.919 44.5353C308.535 44.5353 334.977 70.5428 334.977 102.625C334.977 133.104 309.258 160.672 280.759 160.672C252.26 160.672 280.759 160.714 280.759 160.714H398.567C407.443 160.714 414.639 153.519 414.639 144.643C414.639 135.767 407.443 128.571 398.567 128.571H384.792C375.916 128.571 368.72 121.376 368.72 112.5C368.72 103.624 375.916 96.4286 384.792 96.4286H428.414C437.29 96.4286 444.486 89.2332 444.486 80.3571C444.486 71.4811 437.29 64.2857 428.414 64.2857H377.904C386.78 64.2857 393.975 57.0903 393.975 48.2143C393.975 39.3383 386.78 32.1429 377.904 32.1429H276.121C284.997 32.1429 292.193 24.9474 292.193 16.0714C292.193 7.19543 284.997 0 276.121 0H207.18H126.888C118.012 0 110.816 7.19543 110.816 16.0714C110.816 24.9474 118.012 32.1429 126.888 32.1429H59.7758C50.8997 32.1429 43.7043 39.3383 43.7043 48.2143C43.7043 57.0903 50.8997 64.2857 59.7758 64.2857H83.2651C92.1409 64.2857 99.3365 71.4811 99.3365 80.3571C99.3365 89.2332 92.1409 96.4286 83.2651 96.4286H25.3371C16.4611 96.4286 9.26562 103.624 9.26562 112.5C9.26562 121.376 16.4611 128.571 25.3371 128.571H90.1528C81.2768 128.571 74.0812 135.767 74.0812 144.643Z" fill="#858585" fill-opacity="0.1"/>
<path d="M441.208 160.713C450.084 160.713 457.28 153.518 457.28 144.642C457.28 135.766 450.084 128.57 441.208 128.57C432.332 128.57 425.137 135.766 425.137 144.642C425.137 153.518 432.332 160.713 441.208 160.713Z" fill="#858585" fill-opacity="0.1"/>
<path d="M319.958 19.9747C323.762 19.9747 326.846 16.891 326.846 13.087C326.846 9.28296 323.762 6.19922 319.958 6.19922C316.154 6.19922 313.07 9.28296 313.07 13.087C313.07 16.891 316.154 19.9747 319.958 19.9747Z" stroke="#858585" stroke-opacity="0.1" stroke-width="4.23469"/>
<path d="M389.13 118.947C392.934 118.947 396.018 115.864 396.018 112.06C396.018 108.256 392.934 105.172 389.13 105.172C385.326 105.172 382.242 108.256 382.242 112.06C382.242 115.864 385.326 118.947 389.13 118.947Z" fill="#858585" fill-opacity="0.1"/>
<path d="M340.758 47.5234L359.949 66.7132M360.241 47.5234L341.049 66.7132" stroke="#858585" stroke-opacity="0.1" stroke-width="5.29337" stroke-linecap="round" stroke-linejoin="round"/>
<path d="M83.1641 2.99219L96.9396 16.7677M96.9396 2.99219L83.1641 16.7677" stroke="#858585" stroke-opacity="0.1" stroke-width="5.29337" stroke-linecap="round" stroke-linejoin="round"/>
<path d="M76.2784 86.6368C80.0825 86.6368 83.1661 83.553 83.1661 79.7491C83.1661 75.945 80.0825 72.8613 76.2784 72.8613C72.4745 72.8613 69.3906 75.945 69.3906 79.7491C69.3906 83.553 72.4745 86.6368 76.2784 86.6368Z" fill="#858585" fill-opacity="0.1"/>
<path fill-rule="evenodd" clip-rule="evenodd" d="M184.182 27.1331C184.182 78.7972 239.432 132.92 308.295 132.92C299.858 142.153 286.826 148.416 271.983 149.4V149.43H151.069C136.399 149.43 111.891 143.93 111.891 119.846C111.891 95.7618 133.188 90.2617 153.314 90.2617C154.169 90.2617 155.018 90.2858 155.859 90.3329C155.275 87.6306 155.172 84.8452 154.97 82.0058C153.603 62.8248 156.272 32.8479 184.215 24.9805C184.192 25.6975 184.182 26.4145 184.182 27.1331Z" fill="#858585" fill-opacity="0.1"/>
<path d="M224.324 21.8398C236.9 25.168 246.829 35.0026 250.291 47.5227" stroke="#858585" stroke-opacity="0.1" stroke-width="6.35204" stroke-linecap="round"/>
<path d="M156.048 210.373C156.048 213.003 154.815 214.317 152.35 214.317C151.301 214.317 150.479 214.026 149.882 213.442C149.203 212.777 148.863 211.768 148.863 210.414C148.863 209.498 148.979 208.612 149.212 207.755L150.545 207.502C150.281 208.409 150.148 209.336 150.148 210.284C150.148 211.378 150.399 212.18 150.9 212.69C151.297 213.096 151.821 213.299 152.473 213.299C153.995 213.299 154.756 212.351 154.756 210.455V204.501H156.048V210.373ZM152.432 205.861C152.222 205.861 152.044 205.788 151.898 205.643C151.753 205.497 151.68 205.319 151.68 205.109C151.68 204.895 151.753 204.713 151.898 204.562C152.044 204.412 152.222 204.337 152.432 204.337C152.646 204.337 152.828 204.41 152.979 204.556C153.129 204.706 153.204 204.891 153.204 205.109C153.204 205.314 153.129 205.492 152.979 205.643C152.828 205.788 152.646 205.861 152.432 205.861ZM160.58 208.801H159.281L157.053 201.309L158.345 201.131L160.58 208.801ZM157.654 211.084V210.059H161.981V201.213H163.28V211.084H157.654ZM156.144 199.381L157.388 198.444C157.771 198.827 158.21 199.019 158.707 199.019C159.227 199.019 159.716 198.818 160.177 198.417V199.436C159.771 199.791 159.263 199.969 158.652 199.969C158.11 199.969 157.688 199.818 157.388 199.518L156.663 200.051L156.144 199.381ZM165.939 201.213H167.225V211.084H165.939V201.213ZM177.075 211.084C175.343 211.084 174.081 210.738 173.288 210.045C172.536 209.389 172.16 208.377 172.16 207.01C172.16 206.126 172.315 205.351 172.625 204.686L173.992 204.446C173.637 205.171 173.459 205.975 173.459 206.859C173.459 207.971 173.721 208.771 174.245 209.259C174.824 209.792 175.817 210.059 177.226 210.059H178.415V204.617C179.24 204.439 180.094 204.351 180.979 204.351C182.104 204.351 182.918 204.622 183.419 205.164C183.875 205.656 184.103 206.406 184.103 207.413V210.059H185.504V211.084H182.845V207.584C182.845 206.791 182.69 206.224 182.38 205.882C182.075 205.54 181.566 205.369 180.855 205.369C180.473 205.369 180.081 205.408 179.68 205.485V211.084H177.075ZM185.299 210.059H187.343V204.501H188.628V210.059H190.07V211.084H185.299V210.059ZM186.728 203.216C186.518 203.216 186.342 203.145 186.201 203.004C186.055 202.858 185.982 202.676 185.982 202.457C185.982 202.257 186.055 202.083 186.201 201.938C186.342 201.792 186.518 201.719 186.728 201.719C186.933 201.719 187.106 201.789 187.247 201.931C187.393 202.076 187.466 202.252 187.466 202.457C187.466 202.667 187.393 202.847 187.247 202.997C187.106 203.143 186.933 203.216 186.728 203.216ZM188.799 203.216C188.589 203.216 188.411 203.145 188.266 203.004C188.115 202.858 188.04 202.676 188.04 202.457C188.04 202.257 188.115 202.083 188.266 201.938C188.411 201.792 188.589 201.719 188.799 201.719C189.004 201.719 189.177 201.789 189.318 201.931C189.455 202.076 189.523 202.252 189.523 202.457C189.523 202.671 189.455 202.851 189.318 202.997C189.177 203.143 189.004 203.216 188.799 203.216ZM189.865 210.059H195.648C195.712 209.489 195.744 209.01 195.744 208.623C195.744 207.529 195.521 206.739 195.074 206.251C194.596 205.731 193.798 205.472 192.682 205.472C192.126 205.472 191.606 205.504 191.123 205.567V204.562C191.615 204.485 192.171 204.446 192.791 204.446C194.29 204.446 195.38 204.793 196.059 205.485C196.701 206.142 197.022 207.153 197.022 208.521C197.022 209.332 196.947 210.186 196.797 211.084H189.865V210.059ZM206.47 211.084C204.738 211.084 203.476 210.738 202.683 210.045C201.931 209.389 201.555 208.377 201.555 207.01C201.555 206.126 201.71 205.351 202.02 204.686L203.387 204.446C203.031 205.171 202.854 205.975 202.854 206.859C202.854 207.971 203.116 208.771 203.64 209.259C204.218 209.792 205.212 210.059 206.62 210.059H209.006V204.501H210.291V211.084H206.47ZM207.352 203.216C207.137 203.216 206.96 203.145 206.818 203.004C206.668 202.858 206.593 202.676 206.593 202.457C206.593 202.257 206.668 202.083 206.818 201.938C206.964 201.792 207.142 201.719 207.352 201.719C207.557 201.719 207.728 201.789 207.864 201.931C208.006 202.076 208.076 202.252 208.076 202.457C208.076 202.671 208.006 202.851 207.864 202.997C207.723 203.143 207.552 203.216 207.352 203.216ZM205.28 203.216C205.071 203.216 204.893 203.145 204.747 203.004C204.606 202.858 204.535 202.676 204.535 202.457C204.535 202.257 204.606 202.083 204.747 201.938C204.893 201.792 205.071 201.719 205.28 201.719C205.485 201.719 205.659 201.789 205.8 201.931C205.946 202.076 206.019 202.252 206.019 202.457C206.019 202.667 205.946 202.847 205.8 202.997C205.654 203.143 205.481 203.216 205.28 203.216ZM222.172 207.707C222.172 206.148 221.557 205.369 220.326 205.369C219.679 205.369 219.169 205.583 218.795 206.012C218.421 206.426 218.234 206.987 218.234 207.693C218.234 209.27 219.084 210.059 220.784 210.059H222.172V207.707ZM212.848 211.084V201.213H214.133V210.059H215.213C215.778 210.059 216.193 209.91 216.457 209.614C216.776 209.259 216.936 208.644 216.936 207.769C216.936 206.802 217.227 206.005 217.811 205.376C218.449 204.692 219.324 204.351 220.436 204.351C222.432 204.351 223.43 205.396 223.43 207.488V210.059H224.831V211.084H220.798C219.171 211.084 218.093 210.644 217.564 209.765C217.337 210.58 216.708 211.018 215.678 211.077V211.084H212.848ZM224.619 210.059H226.663V204.501H227.948V210.059H230.122V211.084H224.619V210.059ZM226.554 213.169C226.554 213.379 226.481 213.556 226.335 213.702C226.189 213.853 226.014 213.928 225.809 213.928C225.599 213.928 225.424 213.855 225.282 213.709C225.141 213.568 225.07 213.388 225.07 213.169C225.07 212.964 225.141 212.791 225.282 212.649C225.424 212.504 225.599 212.431 225.809 212.431C226.014 212.431 226.189 212.501 226.335 212.643C226.481 212.784 226.554 212.959 226.554 213.169ZM228.611 213.169C228.611 213.379 228.541 213.556 228.399 213.702C228.258 213.853 228.085 213.928 227.88 213.928C227.67 213.928 227.493 213.855 227.347 213.709C227.201 213.563 227.128 213.383 227.128 213.169C227.128 212.964 227.201 212.791 227.347 212.649C227.493 212.504 227.67 212.431 227.88 212.431C228.085 212.431 228.258 212.501 228.399 212.643C228.541 212.784 228.611 212.959 228.611 213.169ZM229.924 210.059H231.968V204.501H233.253V210.059H235.427V211.084H229.924V210.059ZM231.858 213.169C231.858 213.379 231.785 213.556 231.64 213.702C231.494 213.853 231.318 213.928 231.113 213.928C230.904 213.928 230.728 213.855 230.587 213.709C230.446 213.568 230.375 213.388 230.375 213.169C230.375 212.964 230.446 212.791 230.587 212.649C230.728 212.504 230.904 212.431 231.113 212.431C231.318 212.431 231.494 212.501 231.64 212.643C231.785 212.784 231.858 212.959 231.858 213.169ZM233.916 213.169C233.916 213.379 233.845 213.556 233.704 213.702C233.563 213.853 233.39 213.928 233.185 213.928C232.975 213.928 232.797 213.855 232.651 213.709C232.506 213.563 232.433 213.383 232.433 213.169C232.433 212.964 232.506 212.791 232.651 212.649C232.797 212.504 232.975 212.431 233.185 212.431C233.39 212.431 233.563 212.501 233.704 212.643C233.845 212.784 233.916 212.959 233.916 213.169ZM235.229 210.059H236.042C236.356 210.059 236.687 210.075 237.033 210.106C236.418 209.651 236.11 208.871 236.11 207.769C236.11 206.789 236.413 205.98 237.02 205.342C237.648 204.681 238.476 204.351 239.501 204.351C240.449 204.351 241.192 204.599 241.729 205.096C242.322 205.652 242.618 206.486 242.618 207.598C242.618 208.742 242.256 209.578 241.531 210.106C242.005 210.075 242.411 210.059 242.748 210.059H243.712V211.084H235.229V210.059ZM239.371 210.059C239.932 210.059 240.387 209.867 240.738 209.484C241.126 209.061 241.319 208.459 241.319 207.68C241.319 206.139 240.674 205.369 239.385 205.369C238.833 205.369 238.38 205.554 238.024 205.923C237.614 206.338 237.409 206.919 237.409 207.666C237.409 209.261 238.063 210.059 239.371 210.059ZM240.465 203.216C240.255 203.216 240.077 203.145 239.932 203.004C239.781 202.858 239.706 202.676 239.706 202.457C239.706 202.257 239.781 202.083 239.932 201.938C240.077 201.792 240.255 201.719 240.465 201.719C240.67 201.719 240.841 201.789 240.978 201.931C241.119 202.076 241.189 202.252 241.189 202.457C241.189 202.671 241.119 202.851 240.978 202.997C240.836 203.143 240.665 203.216 240.465 203.216ZM238.394 203.216C238.184 203.216 238.008 203.145 237.867 203.004C237.721 202.858 237.648 202.676 237.648 202.457C237.648 202.257 237.721 202.083 237.867 201.938C238.008 201.792 238.184 201.719 238.394 201.719C238.599 201.719 238.772 201.789 238.913 201.931C239.059 202.076 239.132 202.252 239.132 202.457C239.132 202.667 239.059 202.847 238.913 202.997C238.772 203.143 238.599 203.216 238.394 203.216ZM243.5 210.059H245.544V204.501H246.829V211.084H243.5V210.059ZM247 203.216C246.79 203.216 246.613 203.145 246.467 203.004C246.316 202.858 246.241 202.676 246.241 202.457C246.241 202.257 246.316 202.083 246.467 201.938C246.613 201.792 246.79 201.719 247 201.719C247.205 201.719 247.378 201.789 247.52 201.931C247.656 202.076 247.725 202.252 247.725 202.457C247.725 202.671 247.656 202.851 247.52 202.997C247.378 203.143 247.205 203.216 247 203.216ZM244.929 203.216C244.719 203.216 244.544 203.145 244.402 203.004C244.257 202.858 244.184 202.676 244.184 202.457C244.184 202.257 244.257 202.083 244.402 201.938C244.544 201.792 244.719 201.719 244.929 201.719C245.134 201.719 245.307 201.789 245.448 201.931C245.594 202.076 245.667 202.252 245.667 202.457C245.667 202.667 245.594 202.847 245.448 202.997C245.307 203.143 245.134 203.216 244.929 203.216ZM256.577 211.084C254.845 211.084 253.583 210.738 252.79 210.045C252.038 209.389 251.662 208.377 251.662 207.01C251.662 206.126 251.817 205.351 252.127 204.686L253.494 204.446C253.139 205.171 252.961 205.975 252.961 206.859C252.961 207.971 253.223 208.771 253.747 209.259C254.326 209.792 255.319 210.059 256.728 210.059H257.917V204.617C258.742 204.439 259.596 204.351 260.48 204.351C261.606 204.351 262.42 204.622 262.921 205.164C263.377 205.656 263.604 206.406 263.604 207.413V209.402H262.347V207.584C262.347 206.791 262.192 206.224 261.882 205.882C261.576 205.54 261.068 205.369 260.357 205.369C259.975 205.369 259.583 205.408 259.182 205.485V211.084H256.577ZM258.115 213.169C258.115 213.379 258.045 213.556 257.903 213.702C257.762 213.853 257.591 213.928 257.391 213.928C257.176 213.928 256.996 213.855 256.851 213.709C256.705 213.563 256.632 213.383 256.632 213.169C256.632 212.964 256.705 212.791 256.851 212.649C257.001 212.504 257.181 212.431 257.391 212.431C257.591 212.431 257.762 212.501 257.903 212.643C258.045 212.784 258.115 212.959 258.115 213.169ZM256.058 213.169C256.058 213.379 255.985 213.556 255.839 213.702C255.693 213.853 255.52 213.928 255.319 213.928C255.105 213.928 254.927 213.855 254.786 213.709C254.645 213.568 254.574 213.388 254.574 213.169C254.574 212.964 254.645 212.791 254.786 212.649C254.932 212.504 255.11 212.431 255.319 212.431C255.52 212.431 255.693 212.501 255.839 212.643C255.985 212.784 256.058 212.959 256.058 213.169ZM265.785 201.637H267.07V211.084H265.785V201.637ZM264.596 200.105C264.992 200.105 265.323 200.131 265.587 200.181C265.309 200.039 265.17 199.8 265.17 199.463C265.17 199.107 265.307 198.809 265.58 198.567C265.904 198.289 266.364 198.15 266.961 198.15C267.207 198.15 267.46 198.173 267.72 198.219L267.59 198.957C267.38 198.911 267.148 198.889 266.893 198.889C266.368 198.889 266.106 199.085 266.106 199.477C266.106 199.896 266.476 200.105 267.214 200.105H267.986V200.851H264.596V200.105ZM271.869 210.059H276.36C276.342 208.769 276.06 207.753 275.513 207.01C274.957 206.258 274.063 205.693 272.833 205.314L273.154 204.221C274.663 204.69 275.768 205.367 276.47 206.251C277.208 207.181 277.598 208.45 277.639 210.059H278.712V211.084H271.869V210.059ZM278.527 210.059H284.311C284.374 209.489 284.406 209.01 284.406 208.623C284.406 207.529 284.183 206.739 283.736 206.251C283.258 205.731 282.46 205.472 281.344 205.472C280.788 205.472 280.268 205.504 279.785 205.567V204.562C280.277 204.485 280.833 204.446 281.453 204.446C282.952 204.446 284.042 204.793 284.721 205.485C285.363 206.142 285.685 207.153 285.685 208.521C285.685 209.332 285.609 210.186 285.459 211.084H278.527V210.059ZM281.829 213.941C281.619 213.941 281.442 213.868 281.296 213.723C281.15 213.577 281.077 213.397 281.077 213.183C281.077 212.973 281.15 212.795 281.296 212.649C281.442 212.504 281.619 212.431 281.829 212.431C282.043 212.431 282.226 212.501 282.376 212.643C282.526 212.788 282.602 212.968 282.602 213.183C282.602 213.392 282.526 213.572 282.376 213.723C282.226 213.868 282.043 213.941 281.829 213.941ZM289.219 214.625C288.499 214.625 287.77 214.554 287.031 214.413L287.12 213.34C287.904 213.518 288.649 213.606 289.355 213.606C291.137 213.606 292.028 212.877 292.028 211.419V211.084H290.62C288.173 211.084 286.949 209.997 286.949 207.823C286.949 206.834 287.239 206.023 287.817 205.39C288.451 204.697 289.337 204.351 290.477 204.351C291.502 204.351 292.441 204.515 293.293 204.843V210.059H294.831V211.084H293.293V211.351C293.293 212.271 292.99 213.021 292.384 213.6C291.668 214.283 290.613 214.625 289.219 214.625ZM292.028 205.697C291.573 205.479 291.01 205.369 290.34 205.369C289.693 205.369 289.182 205.581 288.809 206.005C288.435 206.424 288.248 206.982 288.248 207.68C288.248 209.266 289.098 210.059 290.798 210.059H292.028V205.697ZM294.646 210.059H297.463V204.501H298.748V211.084H294.646V210.059ZM298.639 213.169C298.639 213.379 298.568 213.556 298.427 213.702C298.285 213.853 298.112 213.928 297.907 213.928C297.698 213.928 297.52 213.855 297.374 213.709C297.228 213.563 297.155 213.383 297.155 213.169C297.155 212.964 297.228 212.791 297.374 212.649C297.52 212.504 297.698 212.431 297.907 212.431C298.112 212.431 298.285 212.501 298.427 212.643C298.568 212.784 298.639 212.959 298.639 213.169ZM296.581 213.169C296.581 213.379 296.508 213.556 296.362 213.702C296.216 213.853 296.041 213.928 295.836 213.928C295.626 213.928 295.451 213.855 295.31 213.709C295.168 213.568 295.098 213.388 295.098 213.169C295.098 212.964 295.168 212.791 295.31 212.649C295.451 212.504 295.626 212.431 295.836 212.431C296.041 212.431 296.216 212.501 296.362 212.643C296.508 212.784 296.581 212.959 296.581 213.169ZM306.828 208.801H305.529L303.301 201.309L304.586 201.131L306.828 208.801ZM303.902 211.084V210.059H308.229V201.213H309.528V211.084H303.902Z" fill="#8C8C8C"/>
</svg>
