<svg width="39" height="39" viewBox="0 0 39 39" fill="none" xmlns="http://www.w3.org/2000/svg">
<path d="M36.192 18.2812C35.3148 18.2812 34.6028 17.5268 34.6028 16.5973C34.6028 11.8737 32.8674 7.43474 29.716 4.09372C29.0947 3.43529 29.0947 2.37101 29.716 1.71258C30.3374 1.05414 31.3418 1.05414 31.9632 1.71258C35.7153 5.68845 37.7812 10.9745 37.7812 16.5973C37.7812 17.5268 37.0693 18.2812 36.192 18.2812Z" fill="#DADADA"/>
<path d="M2.80796 18.2812C1.93071 18.2812 1.21875 17.5268 1.21875 16.5973C1.21875 10.9745 3.28472 5.68845 7.03683 1.71258C7.65821 1.05414 8.66259 1.05414 9.28397 1.71258C9.90534 2.37101 9.90534 3.43529 9.28397 4.09372C6.13257 7.43305 4.39716 11.8737 4.39716 16.5973C4.39716 17.5268 3.6852 18.2812 2.80796 18.2812Z" fill="#DADADA"/>
<path d="M35.5408 27.8272C33.053 25.7245 31.6266 22.651 31.6266 19.3949V14.8078C31.6266 9.01796 27.3257 4.22516 21.7547 3.42225V1.64531C21.7547 0.735455 21.0176 0 20.1094 0C19.2012 0 18.4641 0.735455 18.4641 1.64531V3.42225C12.8914 4.22516 8.59219 9.01796 8.59219 14.8078V19.3949C8.59219 22.651 7.1657 25.7245 4.66318 27.8403C4.02315 28.3882 3.65625 29.1846 3.65625 30.027C3.65625 31.6147 4.94782 32.9062 6.53555 32.9062H33.6832C35.2709 32.9062 36.5625 31.6147 36.5625 30.027C36.5625 29.1846 36.1956 28.3882 35.5408 27.8272Z" fill="#DADADA"/>
<path d="M20.7188 39C23.7225 39 26.2353 36.9021 26.8125 34.125H14.625C15.2022 36.9021 17.715 39 20.7188 39Z" fill="#DADADA"/>
</svg>
