<svg width="30" height="30" viewBox="0 0 30 30" fill="none" xmlns="http://www.w3.org/2000/svg">
<path fill-rule="evenodd" clip-rule="evenodd" d="M18.4505 8.52183H8.45051C7.53004 8.52183 7.11719 8.32952 7.11719 7.50109C7.11719 6.67266 7.53004 6.4541 8.45051 6.4541H18.4505C19.371 6.4541 19.8164 6.67266 19.8164 7.50109C19.8164 8.32952 19.371 8.52183 18.4505 8.52183ZM21.7838 14.5837H8.45051C7.53004 14.5837 7.11719 14.3295 7.11719 13.501C7.11719 12.6726 7.53004 12.4863 8.45051 12.4863H21.7838C22.7043 12.4863 23.1497 12.6726 23.1497 13.501C23.1497 14.3295 22.7043 14.5837 21.7838 14.5837ZM21.7838 20.5828H8.45051C7.53004 20.5828 7.11719 20.3285 7.11719 19.5001C7.11719 18.6716 7.53004 18.4854 8.45051 18.4854H21.7838C22.7043 18.4854 23.1497 18.6716 23.1497 19.5001C23.1497 20.3285 22.7043 20.5828 21.7838 20.5828ZM1.66666 0H28.3333C29.2538 0 30 0.671575 30 1.5V28.5C30 29.0682 29.6433 29.5875 29.0787 29.8416C28.514 30.0957 28.8603 30.0409 28.3553 29.7L23.8833 26.4552L20.45 29.7C19.8574 30.1 19.0426 30.1 18.45 29.7L15 26.4552L11.55 29.7C10.9574 30.1 10.1426 30.1 9.55 29.7L6.11667 26.4552L1.64469 29.7C1.13717 30.0404 1.48117 30.0927 0.916673 29.835C0.356204 29.5808 0.00191112 29.0648 0 28.5V1.5C0 0.671575 0.746195 0 1.66667 0H1.66666ZM2.3125 27.3394L5.11782 25.2197C5.71041 24.8196 6.52522 24.8196 7.11782 25.2197L10.5511 28.4644L14.0011 25.2197C14.5937 24.8196 15.4085 24.8196 16.0012 25.2197L19.4511 28.4644L22.8845 25.2197C23.4771 24.8196 24.2919 24.8196 24.8845 25.2197L27.6898 27.3394V2.08008H2.3125V27.3394Z" fill="white"/>
</svg>
