<svg width="20" height="23" viewBox="0 0 20 23" fill="none" xmlns="http://www.w3.org/2000/svg">
<path d="M8.56055 0.75C9.16365 0.749499 9.6401 0.749537 10.0869 0.907227C10.1792 0.939811 10.2701 0.977297 10.3584 1.01953C10.7858 1.22402 11.1227 1.56148 11.5488 1.98828L16.4443 6.88379C16.9387 7.37724 17.3304 7.76796 17.541 8.27637C17.6702 8.58836 17.7103 8.98187 17.7295 9.32031C17.7497 9.67772 17.75 10.0881 17.75 10.4863V10.5C17.75 10.9142 17.4142 11.25 17 11.25C16.5858 11.25 16.25 10.9142 16.25 10.5C16.25 10.0852 16.25 9.71584 16.2324 9.40527C16.2292 9.34885 16.2257 9.29712 16.2217 9.25H15.9453C14.5778 9.25002 13.4753 9.25033 12.6084 9.13379C11.7083 9.01277 10.9505 8.75328 10.3486 8.15137C9.74676 7.54946 9.48722 6.79168 9.36621 5.8916C9.24969 5.02468 9.24998 3.92212 9.25 2.55469V2.26367C9.08319 2.25304 8.84192 2.25 8.45605 2.25C6.81549 2.25 5.6499 2.25098 4.75488 2.35547C3.87608 2.45808 3.35453 2.65163 2.95996 2.96973C2.77959 3.11516 2.61516 3.27959 2.46973 3.45996C2.15159 3.85454 1.95808 4.37601 1.85547 5.25488C1.75097 6.14992 1.75 7.31542 1.75 8.95605V13.5C1.75 15.4067 1.75151 16.7614 1.88965 17.7891C2.02491 18.7951 2.27897 19.3746 2.70215 19.7979C3.12536 20.2211 3.70485 20.4751 4.71094 20.6104C5.73859 20.7485 7.09323 20.75 9 20.75H17C17.4142 20.75 17.7499 21.0858 17.75 21.5C17.75 21.9142 17.4142 22.25 17 22.25H8.94336C7.10571 22.25 5.64991 22.2498 4.51074 22.0967C3.33844 21.939 2.38991 21.6067 1.6416 20.8584C0.893309 20.1101 0.560952 19.1616 0.40332 17.9893C0.25016 16.8501 0.249984 15.3943 0.25 13.5566V8.90723C0.249988 7.32589 0.250388 6.0731 0.366211 5.08105C0.485107 4.06273 0.733898 3.22293 1.30176 2.51855C1.51427 2.25498 1.755 2.01526 2.01855 1.80273C2.72296 1.2348 3.56267 0.985115 4.58105 0.866211C5.57311 0.750399 6.8259 0.749988 8.40723 0.75H8.56055ZM6.5 12.75C7.74264 12.75 8.75 13.7574 8.75 15C8.75 16.2426 7.74264 17.25 6.5 17.25H5.75V18.5C5.75 18.9142 5.41421 19.25 5 19.25C4.58579 19.25 4.25 18.9142 4.25 18.5V13.5C4.25 13.0858 4.58579 12.75 5 12.75H6.5ZM11.7861 12.75C13.1269 12.7502 14.25 13.8127 14.25 15.167V16.833C14.25 18.1873 13.1269 19.2498 11.7861 19.25H10.5C10.0858 19.25 9.75 18.9142 9.75 18.5V13.5C9.75 13.0858 10.0858 12.75 10.5 12.75H11.7861ZM19 12.75C19.4142 12.75 19.75 13.0858 19.75 13.5C19.75 13.9142 19.4142 14.25 19 14.25H17C16.8619 14.25 16.75 14.3619 16.75 14.5V15.25H18.5C18.9142 15.25 19.25 15.5858 19.25 16C19.25 16.4142 18.9142 16.75 18.5 16.75H16.75V18.5C16.75 18.9142 16.4142 19.25 16 19.25C15.5858 19.25 15.25 18.9142 15.25 18.5V14.5C15.25 13.5335 16.0335 12.75 17 12.75H19ZM11.25 17.75H11.7861C12.3385 17.7498 12.75 17.3194 12.75 16.833V15.167C12.75 14.6806 12.3385 14.2502 11.7861 14.25H11.25V17.75ZM5.75 15.75H6.5C6.91421 15.75 7.25 15.4142 7.25 15C7.25 14.5858 6.91421 14.25 6.5 14.25H5.75V15.75ZM10.751 3.31152C10.7546 4.32641 10.7723 5.0883 10.8535 5.69238C10.9522 6.42583 11.1325 6.81412 11.4092 7.09082C11.6859 7.36758 12.0748 7.54783 12.8086 7.64648C13.4126 7.72765 14.1738 7.74536 15.1885 7.74902L10.751 3.31152Z" fill="#150941"/>
</svg>
