<svg width="25" height="27" viewBox="0 0 25 27" fill="none" xmlns="http://www.w3.org/2000/svg">
<path d="M12.1875 0C12.6308 0 13.0835 0.13591 13.5439 0.30957C14.01 0.485373 14.5924 0.744152 15.3184 1.06641L15.3457 1.07812C16.4127 1.55176 17.7464 2.07062 19.2568 2.5L19.3037 2.5127C20.4061 2.82604 21.2975 3.08001 21.9727 3.3418C22.6511 3.60489 23.2666 3.9313 23.6807 4.47949C24.0814 5.01024 24.2358 5.6302 24.3066 6.29883C24.375 6.94452 24.375 7.75542 24.375 8.73633V12.417C24.3749 16.2367 22.6504 19.2659 20.5664 21.5234C18.4889 23.7739 16.0141 25.3051 14.3828 26.166C14.3564 26.18 14.3298 26.1933 14.3037 26.207C13.6089 26.5743 13.0412 26.875 12.1875 26.875C11.3338 26.875 10.7661 26.5743 10.0713 26.207C10.0452 26.1933 10.0186 26.18 9.99219 26.166C8.36091 25.3051 5.88612 23.7739 3.80859 21.5234C1.72461 19.2659 9.47067e-05 16.2367 0 12.417L0 8.73633C-2.09361e-05 7.75541 -3.77744e-05 6.94453 0.0683594 6.29883C0.139223 5.6302 0.293588 5.01024 0.694336 4.47949C1.10842 3.9313 1.7239 3.60489 2.40234 3.3418C3.07745 3.08001 3.96895 2.82604 5.07129 2.5127L5.11816 2.5C6.62863 2.07062 7.96233 1.55176 9.0293 1.07812L9.05664 1.06641C9.7826 0.744142 10.365 0.485376 10.8311 0.30957C11.2915 0.13591 11.7442 3.44293e-07 12.1875 0ZM12.1875 1.875C12.1009 1.875 11.9143 1.90563 11.4932 2.06445C11.0833 2.21904 10.5498 2.45473 9.79004 2.79199C8.65884 3.29414 7.2414 3.84489 5.63086 4.30273C4.47058 4.63256 3.66384 4.86348 3.08008 5.08984C2.49029 5.31856 2.28146 5.48886 2.19043 5.60937C2.08642 5.7472 1.98801 5.97417 1.93262 6.49707C1.87596 7.03219 1.875 7.74253 1.875 8.78809L1.875 12.417C1.87509 15.6284 3.31541 18.224 5.18652 20.251C7.06407 22.2849 9.33455 23.6989 10.8672 24.5078C11.6536 24.9229 11.8348 25 12.1875 25C12.5402 25 12.7214 24.9229 13.5078 24.5078C15.0405 23.6989 17.3109 22.2849 19.1885 20.251C21.0596 18.224 22.4999 15.6284 22.5 12.417V8.78809C22.5 7.74253 22.499 7.03219 22.4424 6.49707C22.387 5.97417 22.2886 5.7472 22.1846 5.60937C22.0935 5.48886 21.8847 5.31856 21.2949 5.08984C20.7112 4.86348 19.9044 4.63256 18.7441 4.30273C17.1336 3.84489 15.7162 3.29414 14.585 2.79199C13.8252 2.45473 13.2917 2.21904 12.8818 2.06445C12.4607 1.90563 12.2741 1.875 12.1875 1.875ZM8.70117 14.6885C10.8368 13.4368 13.5381 13.4369 15.6738 14.6885C15.7233 14.7175 15.79 14.7551 15.8691 14.7988C16.256 15.0127 16.9448 15.3925 17.4121 15.8428C17.7031 16.1232 18.0506 16.5571 18.1152 17.1377C18.1864 17.7785 17.89 18.3316 17.4336 18.7598C16.7342 19.4157 15.8319 19.9999 14.6377 20H9.73828C8.5439 20 7.64185 19.4157 6.94238 18.7598C6.48585 18.3316 6.18957 17.7786 6.26074 17.1377C6.32535 16.5571 6.67285 16.1232 6.96387 15.8428C7.43109 15.3928 8.11901 15.0127 8.50586 14.7988C8.58503 14.7551 8.65171 14.7175 8.70117 14.6885ZM14.7266 16.3066C13.1762 15.3979 11.1998 15.3979 9.64941 16.3066C9.53441 16.3741 9.41674 16.4394 9.2998 16.5049C8.91373 16.7211 8.5334 16.9345 8.26465 17.1934C8.20903 17.247 8.17384 17.2883 8.15234 17.3174C8.16886 17.3369 8.19214 17.3621 8.22461 17.3926C8.75142 17.8866 9.21558 18.125 9.73828 18.125H14.6377C15.1602 18.1249 15.6238 17.8864 16.1504 17.3926C16.1829 17.3621 16.2061 17.3369 16.2227 17.3174C16.2012 17.2884 16.1668 17.2468 16.1113 17.1934C15.8426 16.9344 15.4613 16.7211 15.0752 16.5049C14.9585 16.4395 14.8413 16.3739 14.7266 16.3066ZM12.1875 5.625C14.086 5.625 15.625 7.16402 15.625 9.0625C15.625 10.9609 14.086 12.5 12.1875 12.5C10.289 12.5 8.75 10.9609 8.75 9.0625C8.75 7.16402 10.289 5.625 12.1875 5.625ZM12.1875 7.5C11.3246 7.5 10.625 8.19955 10.625 9.0625C10.625 9.92541 11.3246 10.625 12.1875 10.625C13.0504 10.625 13.75 9.92541 13.75 9.0625C13.75 8.19955 13.0504 7.5 12.1875 7.5Z" fill="white"/>
</svg>
