<svg width="14" height="16" viewBox="0 0 14 16" fill="none" xmlns="http://www.w3.org/2000/svg">
<g clip-path="url(#clip0_1369_459605)">
<path d="M8.40256 14.1743C8.16165 14.7408 8.00241 15.3555 7.94141 16.0001L13.0394 14.8509C13.2803 14.2846 13.4394 13.6698 13.5006 13.0251L8.40256 14.1743Z" fill="#20201D"/>
<path d="M13.0388 11.4079C13.2798 10.8416 13.439 10.2268 13.5 9.58212L9.5288 10.4778V8.75601L13.0387 7.96504C13.2796 7.39872 13.4389 6.78388 13.4999 6.13924L9.52868 7.03412V0.842159C8.92018 1.20447 8.37977 1.68674 7.94047 2.25561V7.39223L6.35226 7.7502V0C5.74375 0.362181 5.20334 0.844578 4.76404 1.41345V8.10806L1.21041 8.90883C0.969501 9.47515 0.810139 10.09 0.749013 10.7346L4.76404 9.82981V11.9981L0.461152 12.9677C0.220248 13.534 0.0610066 14.1489 0 14.7935L4.50392 13.7785C4.87056 13.6977 5.18568 13.4678 5.39056 13.1515L6.21655 11.8529V11.8526C6.3023 11.7183 6.35226 11.5563 6.35226 11.3818V9.47184L7.94047 9.11386V12.5574L13.0387 11.4077L13.0388 11.4079Z" fill="#20201D"/>
</g>
<defs>
<clipPath id="clip0_1369_459605">
<rect width="13.5" height="16" fill="white"/>
</clipPath>
</defs>
</svg>
