<svg width="30" height="35" viewBox="0 0 30 35" fill="none" xmlns="http://www.w3.org/2000/svg">
<path fill-rule="evenodd" clip-rule="evenodd" d="M26.5909 2.43266H23.1123C22.7883 1.02889 21.3925 0.0205411 19.7727 0.0202599C19.7538 0.0489192 10.5005 -0.0372407 10.2273 0.0202599C8.60822 0.0202599 7.21212 1.02836 6.88787 2.43208L3.40909 2.43266C1.52631 2.43266 0 3.78274 0 5.44815V31.9845C0 33.6499 1.5263 35 3.40909 35H26.5909C28.4737 35 30 33.6499 30 31.9845V5.44815C30 3.78274 28.4737 2.43266 26.5909 2.43266L26.5909 2.43266ZM10.229 1.22477C11.9692 1.22477 18.0343 1.22477 19.7745 1.22477C20.9042 1.22477 21.82 2.03483 21.82 3.03407C21.82 4.03332 20.9042 4.84336 19.7745 4.84336H10.229C9.09937 4.84336 8.18359 4.03332 8.18359 3.03407C8.18359 2.03483 9.09938 1.22477 10.229 1.22477ZM28.6321 31.9882C28.6321 32.9875 27.7163 33.7975 26.5866 33.7975H3.40483C2.27516 33.7975 1.35938 32.9875 1.35938 31.9882V5.45187C1.35938 4.45262 2.27515 3.64258 3.40483 3.64258H6.88347C7.20741 5.04635 8.6033 6.05469 10.223 6.05497H19.7685C21.3875 6.05497 22.7836 5.04687 23.1079 3.64316L26.5867 3.64258C27.7163 3.64258 28.6321 4.45262 28.6321 5.45187L28.6321 31.9882ZM6.14311 20.5235H11.5977C12.7273 20.5235 13.6431 19.7134 13.6431 18.7142V17.508C13.6431 17.1749 13.3378 16.9049 12.9613 16.9049C12.5847 16.9049 12.2795 17.1749 12.2795 17.508V18.7142C12.2795 19.0472 11.9742 19.3173 11.5977 19.3173H6.14311C5.76654 19.3173 5.46129 19.0472 5.46129 18.7142V13.8894C5.46129 13.5563 5.76655 13.2863 6.14311 13.2863H11.5977C11.9742 13.2863 12.2795 13.0162 12.2795 12.6832C12.2795 12.3501 11.9742 12.0801 11.5977 12.0801H6.14311C5.01343 12.0801 4.09766 12.8901 4.09766 13.8894V18.7142C4.09766 19.7134 5.01343 20.5235 6.14311 20.5235ZM13.8804 12.8612L9.54132 16.6993L7.92949 15.2736C7.6633 15.038 7.2316 15.038 6.96533 15.2735C6.69906 15.509 6.69906 15.8909 6.96533 16.1264L9.05994 17.9779C9.32619 18.2133 9.75778 18.2133 10.024 17.9779L14.8459 13.714C15.1122 13.4785 15.1122 13.0966 14.8459 12.8611C14.5797 12.6256 14.148 12.6256 13.8817 12.8611L13.8804 12.8612ZM13.3834 28.1429C12.9889 28.1429 12.6691 28.4307 12.6691 28.7857V30.0714C12.6691 30.4265 12.3493 30.7143 11.9548 30.7143H6.24051C5.84602 30.7143 5.52623 30.4265 5.52623 30.0714V24.9286C5.52623 24.5735 5.84603 24.2857 6.24051 24.2857H11.9548C12.3493 24.2857 12.6691 23.9979 12.6691 23.6429C12.6691 23.2878 12.3493 23 11.9548 23H6.24051C5.05704 23 4.09766 23.8635 4.09766 24.9286V30.0714C4.09766 31.1365 5.05704 32 6.24051 32H11.9548C13.1383 32 14.0977 31.1365 14.0977 30.0714V28.7857C14.0977 28.4307 13.7779 28.1429 13.3834 28.1429ZM13.8804 23.7168L9.54132 27.5549L7.92949 26.1292C7.6633 25.8936 7.2316 25.8936 6.96533 26.1291C6.69906 26.3646 6.69906 26.7465 6.96533 26.982L9.05994 28.8334C9.32619 29.0689 9.75778 29.0689 10.024 28.8334L14.8459 24.5695C15.1122 24.3341 15.1122 23.9522 14.8459 23.7167C14.5797 23.4812 14.148 23.4812 13.8817 23.7167L13.8804 23.7168ZM10.2209 9.66909H18.4027C18.7793 9.66909 19.0845 9.39907 19.0845 9.06599C19.0845 8.73291 18.7793 8.46289 18.4027 8.46289H10.2209C9.84432 8.46289 9.53906 8.73291 9.53906 9.06599C9.53906 9.39908 9.84432 9.66909 10.2209 9.66909ZM25.223 14.4941H17.0412C16.6646 14.4941 16.3594 14.7641 16.3594 15.0972C16.3594 15.4303 16.6646 15.7003 17.0412 15.7003H25.223C25.5996 15.7003 25.9048 15.4303 25.9048 15.0972C25.9048 14.7641 25.5996 14.4941 25.223 14.4941ZM25.223 16.9072H17.0412C16.6646 16.9072 16.3594 17.1772 16.3594 17.5103C16.3594 17.8434 16.6646 18.1134 17.0412 18.1134H25.223C25.5996 18.1134 25.9048 17.8434 25.9048 17.5103C25.9048 17.1772 25.5996 16.9072 25.223 16.9072ZM25.223 25.3506H17.0412C16.6646 25.3506 16.3594 25.6206 16.3594 25.9537C16.3594 26.2868 16.6646 26.5568 17.0412 26.5568H25.223C25.5996 26.5568 25.9048 26.2868 25.9048 25.9537C25.9048 25.6206 25.5996 25.3506 25.223 25.3506ZM25.223 27.7627H17.0412C16.6646 27.7627 16.3594 28.0327 16.3594 28.3658C16.3594 28.6989 16.6646 28.9689 17.0412 28.9689H25.223C25.5996 28.9689 25.9048 28.6989 25.9048 28.3658C25.9048 28.0327 25.5996 27.7627 25.223 27.7627Z" fill="white"/>
</svg>
