<svg width="27" height="27" viewBox="0 0 27 27" fill="none" xmlns="http://www.w3.org/2000/svg">
<path d="M24.5225 7.57715C24.9962 7.36975 25.5503 7.58559 25.7578 8.06055C26.5002 9.75289 26.876 11.563 26.876 13.4365C26.8758 20.8464 20.8484 26.874 13.4385 26.874L13.4375 26.875C10.6001 26.875 7.88995 25.9979 5.625 24.373V25.9375C5.625 26.455 5.205 26.875 4.6875 26.875C4.17 26.875 3.75 26.455 3.75 25.9375V22.3623C3.7501 21.9849 3.97653 21.6443 4.3252 21.498C4.67387 21.3518 5.07473 21.4288 5.34473 21.6924C7.51842 23.8248 10.3923 24.999 13.4385 24.999C19.8134 24.999 25.0008 19.8114 25.001 13.4365C25.001 11.8228 24.6775 10.2675 24.04 8.8125C23.8325 8.33875 24.0475 7.78465 24.5225 7.57715ZM13.8486 5C14.4685 5 14.9161 5.00005 15.3535 5.3125L15.3848 5.33594C15.811 5.66841 15.9545 6.11237 16.1357 6.6748L16.3721 7.39551C16.4146 7.49778 16.4819 7.58283 16.5742 7.64648L16.7734 7.7666C16.8671 7.81024 16.9801 7.82299 17.0938 7.80176L17.957 7.54883C18.5783 7.37258 19.0645 7.23535 19.5957 7.4541C20.1331 7.66283 20.3816 8.10504 20.6953 8.66113L21.0723 9.32129C21.3609 9.82617 21.6099 10.2625 21.5537 10.8086C21.4962 11.3523 21.1786 11.7092 20.7773 12.1592L20.0479 12.9971C20.0054 13.062 19.9376 13.2522 19.9375 13.4346C19.9375 13.6167 20.0053 13.8066 20.0479 13.8721L20.7842 14.7197C21.1779 15.1622 21.4962 15.519 21.5537 16.0615C21.6111 16.6088 21.3609 17.045 21.0723 17.5498L20.6953 18.21C20.3816 18.7674 20.1319 19.2092 19.5957 19.418C19.0647 19.6365 18.5783 19.4979 17.9648 19.3242L17.0938 19.0703C16.9788 19.0491 16.8659 19.0617 16.7734 19.1055L16.5742 19.2246C16.4817 19.2884 16.4133 19.3741 16.3721 19.4766L16.1348 20.2012C15.9548 20.7586 15.8109 21.2036 15.3848 21.5361L15.3535 21.5596C14.9161 21.872 14.4685 21.8721 13.8486 21.8721L13.8496 21.876H13.0273C12.4074 21.876 11.9599 21.8759 11.5225 21.5635L11.4912 21.54C11.065 21.2075 10.9205 20.7637 10.7393 20.2012L10.5029 19.4814C10.4605 19.379 10.3932 19.2942 10.3008 19.2305L10.1016 19.1104C10.0079 19.0667 9.89585 19.054 9.78223 19.0752L8.91797 19.3271C8.29681 19.5034 7.81049 19.6416 7.2793 19.4229C6.742 19.2141 6.49357 18.7714 6.17871 18.2129L5.80176 17.5537C5.51309 17.0501 5.26419 16.6137 5.32031 16.0664C5.37781 15.5227 5.69548 15.166 6.09668 14.7148L6.82617 13.876C6.86869 13.8107 6.9375 13.6207 6.9375 13.4385C6.93744 13.2561 6.86865 13.0659 6.82617 13.001L6.08984 12.1533C5.69612 11.7108 5.37781 11.3562 5.32031 10.8125C5.26283 10.2638 5.51302 9.82725 5.80176 9.32227L6.17676 8.66504C6.49175 8.10755 6.74085 7.66508 7.27832 7.45508C7.80948 7.23636 8.29557 7.37512 8.90918 7.54883L9.78125 7.80273C9.89601 7.82385 10.0082 7.8112 10.1006 7.76758L10.2998 7.64746C10.3921 7.58377 10.4607 7.4988 10.502 7.39648L10.7393 6.6709C10.9192 6.11354 11.0631 5.66838 11.4893 5.33594L11.5205 5.3125C11.9579 5.00007 12.4056 5 13.0254 5H13.8486ZM12.6484 6.87793C12.6085 6.98665 12.5596 7.13665 12.5234 7.24902L12.2617 8.04395C12.0792 8.52631 11.7527 8.93256 11.3203 9.21875L11.2881 9.23926L10.9922 9.41602C10.4972 9.67602 9.91309 9.75098 9.35059 9.62598L9.29199 9.61133L8.3916 9.34863C8.26046 9.31116 8.11547 9.27036 8.00684 9.24414C7.94937 9.33786 7.87796 9.46538 7.81055 9.58398L7.42969 10.251C7.37221 10.3522 7.28742 10.4999 7.23242 10.6074C7.30612 10.6986 7.41589 10.8209 7.49707 10.9121L8.29492 11.833C8.61345 12.2405 8.8125 12.8543 8.8125 13.4365C8.81244 14.0189 8.61483 14.6326 8.29492 15.04L8.26465 15.0762L7.50488 15.9512C7.41876 16.0485 7.30742 16.1722 7.23242 16.2646C7.28742 16.3721 7.37094 16.5198 7.42969 16.6211L7.81055 17.29C7.87676 17.4075 7.94935 17.5349 8.00684 17.6299C8.11681 17.6036 8.2632 17.5612 8.39941 17.5225L9.35156 17.2461C9.91524 17.1211 10.4982 17.1961 10.9932 17.4561L11.041 17.4834L11.3223 17.6533C11.7548 17.9396 12.0799 18.3466 12.2637 18.8291L12.2773 18.8691L12.5234 19.6191C12.5609 19.7341 12.6095 19.8852 12.6494 19.9951V19.9971C12.7557 20.0008 12.8973 20.001 13.0273 20.001H13.8496C13.9807 20.001 14.1216 20.0008 14.2266 19.9971C14.2666 19.8883 14.3153 19.7384 14.3516 19.626L14.6133 18.8311C14.7958 18.3486 15.1222 17.9425 15.5547 17.6562L15.5869 17.6367L15.8828 17.459C16.3778 17.1978 16.962 17.1228 17.5244 17.249L17.583 17.2637L18.4834 17.5264C18.6145 17.5638 18.7595 17.6046 18.8682 17.6309C18.9256 17.5372 18.9973 17.4103 19.0635 17.293L19.4443 16.624C19.5018 16.5229 19.5866 16.3753 19.6416 16.2666C19.5691 16.1779 19.4632 16.0572 19.377 15.9609L18.5791 15.041C18.2605 14.6348 18.0625 14.0198 18.0625 13.4375C18.0625 12.8552 18.2605 12.2415 18.5791 11.834L18.6094 11.7979L19.3691 10.9229C19.4604 10.8204 19.5679 10.6984 19.6416 10.6084C19.5867 10.501 19.503 10.354 19.4443 10.2529L19.0635 9.58301C18.9973 9.46559 18.9256 9.33787 18.8682 9.24414C18.7582 9.2704 18.6117 9.31214 18.4756 9.34961L17.5234 9.62598C16.9609 9.75098 16.3768 9.67602 15.8818 9.41602L15.835 9.38867L15.5537 9.21875C15.1213 8.93256 14.7961 8.52631 14.6123 8.04395L14.5986 8.00391L14.3516 7.25391C14.3141 7.13904 14.2656 6.9879 14.2256 6.87793C14.1194 6.87419 13.9785 6.87402 13.8486 6.87402H13.0254C12.8943 6.87402 12.7533 6.87419 12.6484 6.87793ZM22.1875 0C22.705 0 23.125 0.42 23.125 0.9375V4.5127C23.1249 4.8901 22.8985 5.23171 22.5498 5.37793C22.2012 5.52393 21.8002 5.44613 21.5303 5.18262C19.3566 3.05017 16.4827 1.87604 13.4365 1.87598C7.0616 1.87598 1.87416 7.06359 1.87402 13.4385C1.87402 15.0522 2.19747 16.6075 2.83496 18.0625C3.04246 18.5362 2.82754 19.0904 2.35254 19.2979C2.23016 19.3515 2.10268 19.3759 1.97656 19.376L1.97754 19.375C1.61629 19.375 1.27289 19.1647 1.11914 18.8135C0.376661 17.1197 0 15.3112 0 13.4375C0 6.0275 6.0275 0 13.4375 0C16.275 0 18.985 0.87793 21.25 2.50293V0.9375C21.25 0.42 21.67 0 22.1875 0ZM13.4375 10.3125C15.1613 10.3125 16.5625 11.7137 16.5625 13.4375C16.5625 15.1613 15.1613 16.5625 13.4375 16.5625C11.7137 16.5625 10.3125 15.1613 10.3125 13.4375C10.3125 11.7137 11.7137 10.3125 13.4375 10.3125ZM13.4375 12.1875C12.7487 12.1875 12.1875 12.7487 12.1875 13.4375C12.1875 14.1263 12.7487 14.6875 13.4375 14.6875C14.1263 14.6875 14.6875 14.1263 14.6875 13.4375C14.6875 12.7487 14.1263 12.1875 13.4375 12.1875Z" fill="white"/>
</svg>
