<svg width="27" height="27" viewBox="0 0 27 27" fill="none" xmlns="http://www.w3.org/2000/svg">
<path d="M13.8662 0C14.2618 -4.89932e-05 14.6337 -0.000452169 14.9453 0.0351562C15.2926 0.074882 15.6582 0.167124 15.999 0.413086C16.3398 0.659172 16.5422 0.977789 16.6895 1.29492C16.8217 1.57972 16.9393 1.93326 17.0645 2.30957L17.0781 2.34961L17.4883 3.57422C17.6067 3.87269 17.8137 4.12778 18.0811 4.30371L18.459 4.52148C18.7753 4.67885 19.1355 4.7233 19.4805 4.64844L20.9824 4.22559L21.0254 4.21387C21.4352 4.09751 21.8184 3.98799 22.1484 3.93555C22.5156 3.87726 22.9177 3.8702 23.333 4.03906C23.7482 4.20795 24.0314 4.49413 24.2539 4.79199C24.4539 5.0599 24.6533 5.40573 24.8662 5.77539L25.5283 6.9248C25.7279 7.27112 25.9154 7.59654 26.041 7.88672C26.1809 8.20978 26.2844 8.57453 26.2402 8.99512C26.196 9.41587 26.0185 9.75113 25.8145 10.0381C25.6312 10.2957 25.3804 10.575 25.1133 10.8721L25.0859 10.9033L25.084 10.9043L23.8203 12.3174C23.6623 12.5314 23.4971 12.9973 23.4971 13.4375C23.4971 13.8781 23.6624 14.3426 23.8203 14.5566L25.0859 15.9717L25.1133 16.0029C25.3804 16.3 25.6312 16.5793 25.8145 16.8369C26.0185 17.1239 26.196 17.4591 26.2402 17.8799C26.2844 18.3005 26.1809 18.6652 26.041 18.9883C25.9153 19.2785 25.728 19.6038 25.5283 19.9502L24.8662 21.0996C24.6532 21.4693 24.454 21.8151 24.2539 22.083C24.0314 22.3809 23.7483 22.6671 23.333 22.8359C22.9177 23.0048 22.5156 22.9968 22.1484 22.9385C21.8184 22.886 21.4352 22.7775 21.0254 22.6611L20.9824 22.6484L19.4805 22.2266C19.1355 22.1517 18.7753 22.1961 18.459 22.3535L18.0811 22.5713C17.8137 22.7472 17.6067 23.0023 17.4883 23.3008L17.0781 24.5244L17.0645 24.5654C16.9393 24.9417 16.8216 25.2953 16.6895 25.5801C16.5422 25.8972 16.3398 26.2158 15.999 26.4619C15.6582 26.7079 15.2926 26.8001 14.9453 26.8398C14.6337 26.8755 14.2618 26.875 13.8662 26.875H12.3848C11.9889 26.875 11.6165 26.8755 11.3047 26.8398C10.9573 26.8001 10.5918 26.708 10.251 26.4619C9.91022 26.2158 9.70779 25.8972 9.56055 25.5801C9.42837 25.2953 9.31067 24.9417 9.18555 24.5654L9.17188 24.5244L8.76172 23.3008C8.64333 23.0023 8.43627 22.7472 8.16895 22.5713L7.79102 22.3535C7.47464 22.1961 7.11454 22.1516 6.76953 22.2266L5.26855 22.6484L5.22461 22.6611C4.81481 22.7775 4.43159 22.8861 4.10156 22.9385C3.73436 22.9968 3.33238 23.0049 2.91699 22.8359C2.50178 22.667 2.21951 22.3808 1.99707 22.083C1.79695 21.815 1.59781 21.4694 1.38477 21.0996L1.36133 21.0596L0.72168 19.9502C0.522069 19.6039 0.33464 19.2785 0.208984 18.9883C0.0691438 18.6652 -0.0334406 18.3004 0.0107422 17.8799C0.0549438 17.4592 0.231499 17.1239 0.435547 16.8369C0.618796 16.5792 0.869515 16.3 1.13672 16.0029L1.16504 15.9717L1.16602 15.9697L2.43066 14.5566C2.58854 14.3424 2.75386 13.8779 2.75391 13.4375C2.75391 12.9973 2.58864 12.5314 2.43066 12.3174L1.16602 10.9043L1.16504 10.9033L1.13672 10.8721C0.869514 10.575 0.618797 10.2958 0.435547 10.0381C0.231495 9.75115 0.0549558 9.41581 0.0107422 8.99512C-0.0334355 8.57458 0.0691529 8.20975 0.208984 7.88672C0.334635 7.59655 0.522075 7.27111 0.72168 6.9248C0.729006 6.91209 0.736784 6.89949 0.744141 6.88672L1.36133 5.81543C1.36907 5.802 1.37706 5.78876 1.38477 5.77539C1.5978 5.40557 1.79696 5.05996 1.99707 4.79199C2.21952 4.49416 2.50181 4.20795 2.91699 4.03906C3.33238 3.87012 3.73437 3.87725 4.10156 3.93555C4.43163 3.98796 4.81475 4.0975 5.22461 4.21387C5.23927 4.21803 5.2548 4.22238 5.26953 4.22656L6.76953 4.64844C7.1145 4.72337 7.47467 4.67883 7.79102 4.52148L8.16895 4.30371C8.43632 4.12778 8.64331 3.87269 8.76172 3.57422L9.17188 2.35059C9.17635 2.33714 9.18109 2.32296 9.18555 2.30957C9.31067 1.9333 9.42836 1.57971 9.56055 1.29492C9.70779 0.977789 9.91022 0.659172 10.251 0.413086C10.5918 0.167 10.9573 0.0748909 11.3047 0.0351562C11.6165 -0.000495613 11.989 -4.90182e-05 12.3848 0H13.8662ZM12.4287 1.875C11.9731 1.875 11.7099 1.87644 11.5176 1.89844C11.4316 1.90828 11.3867 1.9197 11.3652 1.92676C11.3554 1.93002 11.3486 1.93359 11.3486 1.93359L11.3477 1.93457C11.347 1.93522 11.3427 1.93953 11.3369 1.94727C11.3233 1.96555 11.2984 2.00497 11.2617 2.08398C11.1799 2.26011 11.0952 2.51038 10.9512 2.94336L10.5264 4.21094L10.5195 4.22949C10.2569 4.91432 9.78162 5.49705 9.16406 5.89258L9.14648 5.9043L8.68652 6.16992L8.66602 6.17969C7.94579 6.54973 7.1181 6.65356 6.3291 6.47168L6.30664 6.4668L4.75781 6.03027C4.28733 5.89676 4.01349 5.8208 3.80762 5.78809C3.71447 5.7733 3.66434 5.77298 3.64062 5.77441C3.6298 5.77508 3.62402 5.77539 3.62402 5.77539L3.62305 5.77637C3.62305 5.77637 3.61773 5.7799 3.60938 5.78711C3.59113 5.80289 3.55527 5.83781 3.49902 5.91309C3.37393 6.08057 3.23003 6.32733 2.98535 6.75195L2.36914 7.82227C2.13962 8.22059 2.00747 8.45221 1.92969 8.63184C1.89491 8.71221 1.8826 8.75764 1.87793 8.78027C1.87612 8.78911 1.87513 8.79529 1.875 8.79688V8.79883L1.87598 8.80078C1.87598 8.80078 1.87762 8.80674 1.88184 8.81641C1.89101 8.83743 1.91275 8.87928 1.96387 8.95117C2.07723 9.11057 2.25327 9.30964 2.56055 9.65137L2.5625 9.65332L3.87012 11.1152L3.8877 11.1377C4.35572 11.7302 4.62891 12.6409 4.62891 13.4375C4.62887 14.2344 4.35575 15.1447 3.8877 15.7373L3.87012 15.7598L2.5625 17.2217L2.56055 17.2236C2.25327 17.5654 2.07723 17.7644 1.96387 17.9238C1.91276 17.9957 1.89101 18.0376 1.88184 18.0586C1.87764 18.0682 1.87598 18.0742 1.87598 18.0742L1.875 18.0762V18.0771C1.875 18.0771 1.87579 18.0843 1.87793 18.0947C1.88261 18.1174 1.89492 18.1628 1.92969 18.2432C2.00747 18.4228 2.13962 18.6544 2.36914 19.0527L2.98535 20.123C3.22986 20.5474 3.37398 20.7934 3.49902 20.9609C3.55541 21.0364 3.59112 21.0721 3.60938 21.0879C3.61774 21.0951 3.62305 21.0986 3.62305 21.0986L3.62402 21.0996C3.62402 21.0996 3.62979 21.0999 3.64062 21.1006C3.66434 21.102 3.71447 21.1017 3.80762 21.0869C4.01348 21.0542 4.28734 20.9782 4.75781 20.8447L6.30664 20.4082L6.3291 20.4033C7.11818 20.2214 7.94575 20.3252 8.66602 20.6953L8.68652 20.7051L9.14648 20.9707L9.16504 20.9824C9.78229 21.378 10.257 21.9609 10.5195 22.6455L10.5264 22.6641L10.9512 23.9326C11.0951 24.3653 11.18 24.615 11.2617 24.791C11.2984 24.87 11.3233 24.9094 11.3369 24.9277C11.3426 24.9354 11.347 24.9397 11.3477 24.9404L11.3486 24.9414C11.3486 24.9414 11.3554 24.945 11.3652 24.9482C11.3867 24.9553 11.4316 24.9667 11.5176 24.9766C11.7099 24.9986 11.9731 25 12.4287 25H13.8223C14.2775 25 14.5402 24.9985 14.7324 24.9766C14.8191 24.9666 14.8645 24.9553 14.8857 24.9482C14.8942 24.9454 14.8992 24.9429 14.9004 24.9424L14.9023 24.9404C14.9023 24.9404 14.9068 24.9362 14.9131 24.9277C14.9267 24.9095 14.9524 24.8704 14.9893 24.791C15.071 24.6149 15.1558 24.3654 15.2998 23.9326V23.9307L15.7236 22.6641L15.7314 22.6455C15.9941 21.9608 16.4685 21.3779 17.0859 20.9824L17.1045 20.9707L17.5635 20.7051L17.584 20.6953C18.3044 20.3251 19.1326 20.2213 19.9219 20.4033L19.9434 20.4082L21.4922 20.8447C21.963 20.9784 22.2374 21.0542 22.4434 21.0869C22.5359 21.1016 22.5856 21.102 22.6094 21.1006C22.6192 21.1 22.625 21.0998 22.626 21.0996L22.6279 21.0986C22.6289 21.098 22.6332 21.0943 22.6406 21.0879C22.6588 21.0722 22.6944 21.0367 22.751 20.9609C22.876 20.7934 23.0201 20.5475 23.2646 20.123L23.8818 19.0527C24.1114 18.6544 24.2425 18.4228 24.3203 18.2432C24.3552 18.1626 24.3684 18.1174 24.373 18.0947C24.3752 18.0843 24.375 18.0771 24.375 18.0771V18.0742C24.375 18.0742 24.3733 18.0681 24.3691 18.0586C24.36 18.0376 24.3381 17.9955 24.2871 17.9238C24.1737 17.7644 23.9967 17.5654 23.6895 17.2236L22.3799 15.7598L22.3623 15.7373C21.8942 15.1447 21.6221 14.2344 21.6221 13.4375C21.6221 12.6409 21.8943 11.7302 22.3623 11.1377L22.3799 11.1152L23.6885 9.65332L23.6895 9.65137C23.9967 9.30964 24.1737 9.11057 24.2871 8.95117C24.3381 8.87946 24.36 8.83741 24.3691 8.81641C24.3733 8.80687 24.375 8.80078 24.375 8.80078V8.79688C24.3749 8.79525 24.3748 8.78906 24.373 8.78027C24.3684 8.75767 24.3552 8.71244 24.3203 8.63184C24.2425 8.45221 24.1114 8.22059 23.8818 7.82227L23.2646 6.75195C23.02 6.32733 22.8761 6.08057 22.751 5.91309C22.6946 5.83764 22.6588 5.80279 22.6406 5.78711C22.6333 5.78078 22.629 5.77704 22.6279 5.77637L22.626 5.77539C22.625 5.7752 22.6192 5.77501 22.6094 5.77441C22.5856 5.773 22.536 5.7734 22.4434 5.78809C22.2374 5.82078 21.9631 5.89665 21.4922 6.03027L19.9434 6.4668L19.9219 6.47168C19.1328 6.65365 18.3043 6.54978 17.584 6.17969L17.5645 6.16992L17.1045 5.9043L17.0859 5.89258C16.4685 5.49709 15.9941 4.9142 15.7314 4.22949L15.7236 4.21094L15.2998 2.94336C15.1558 2.51038 15.071 2.26011 14.9893 2.08398C14.9524 2.00457 14.9267 1.9655 14.9131 1.94727C14.9068 1.93883 14.9023 1.93457 14.9023 1.93457L14.9014 1.93359C14.9002 1.93302 14.8945 1.92966 14.8857 1.92676C14.8645 1.91971 14.8191 1.90836 14.7324 1.89844C14.5402 1.87647 14.2775 1.875 13.8223 1.875H12.4287ZM13.0713 8.11523C16.0053 8.11523 18.3838 10.4937 18.3838 13.4277C18.3838 16.3617 16.0053 18.7402 13.0713 18.7402C10.1373 18.7402 7.75879 16.3617 7.75879 13.4277C7.7588 10.4938 10.1373 8.1153 13.0713 8.11523ZM13.0713 9.99023C11.1729 9.9903 9.6338 11.5293 9.63379 13.4277C9.63379 15.3262 11.1729 16.8652 13.0713 16.8652C14.9698 16.8652 16.5088 15.3262 16.5088 13.4277C16.5088 11.5293 14.9698 9.99023 13.0713 9.99023Z" fill="white"/>
</svg>
