<svg width="248" height="118" viewBox="0 0 248 118" fill="none" xmlns="http://www.w3.org/2000/svg">
<path d="M186.891 33.3355L188.961 27.2305L243.371 -0.144531L244.161 0.645469L242.191 6.75547L187.686 34.1255L186.896 33.3355H186.891Z" fill="white"/>
<path d="M53.0858 29.7452C54.3958 31.0852 55.7508 32.2702 57.1608 33.2902L58.4058 32.3302C59.3008 31.6302 60.4008 30.6202 61.7108 29.3102C63.0208 28.0002 64.1558 26.6752 65.1108 25.3352C63.4508 23.0352 60.8008 20.3502 57.1558 17.2852C54.5358 19.5202 51.9158 22.2052 49.3008 25.3352L50.1608 26.5802C50.8008 27.3452 51.7758 28.4002 53.0858 29.7402V29.7452Z" fill="white"/>
<path d="M85.6146 22.4152C86.8896 23.7252 88.2346 24.8902 89.6396 25.9152L90.6946 25.1502C91.3346 24.6402 92.2096 23.8752 93.3296 22.8502C94.4446 21.8302 95.4546 20.7752 96.3496 19.6902C98.3946 22.2452 100.565 24.3202 102.865 25.9202L104.11 24.8652C105.005 24.2252 106.105 23.2702 107.415 21.9902C108.725 20.7152 109.825 19.4352 110.72 18.1552C109.185 15.8552 106.565 13.2052 102.865 10.2002C101.075 11.6702 98.9046 13.8402 96.3496 16.7152C94.5596 14.6052 92.3246 12.4352 89.6396 10.2002C87.0196 12.3702 84.4646 15.0252 81.9746 18.1552L82.8346 19.3052C83.4096 20.0702 84.3346 21.1102 85.6146 22.4202V22.4152Z" fill="white"/>
<path d="M97.5 31.7559C95.07 31.7559 92.79 32.5209 90.65 34.0559C88.51 35.5909 86.77 37.4909 85.43 39.7559C84.09 42.0259 83.02 44.2109 82.22 46.3209C81.42 48.4309 80.925 50.2809 80.735 51.8809C80.67 52.7759 81.165 55.0109 82.22 58.5909C83.275 62.1709 84.12 64.2459 84.76 64.8209C86.995 66.8009 89.965 67.7909 93.67 67.7909C95.33 67.7909 97.17 67.5859 99.18 67.1659C101.19 66.7509 102.39 66.3859 102.775 66.0659L105.17 60.3159C105.87 63.3209 106.225 66.2259 106.225 69.0359C106.225 70.1859 106.19 71.0459 106.13 71.6209C101.85 71.9409 97.155 72.1009 92.045 72.1009H76.715L76.57 72.1259L76.425 72.1009H67.13C70.07 68.7159 71.54 65.5559 71.54 62.6159C71.54 57.1209 70.295 51.9809 67.805 47.1909C65.315 42.4009 62.085 40.0059 58.125 40.0059C54.165 40.0059 50.155 42.1959 46.485 46.5709C42.81 50.9459 40.69 54.8909 40.115 58.4059C39.985 58.9159 40.05 60.5159 40.305 63.1959C40.56 65.8809 40.845 67.8909 41.165 69.2309C41.42 70.2559 42.57 71.6609 44.615 73.4459C40.08 73.9559 34.71 74.2109 28.515 74.2109C15.675 74.2109 9.255 69.4859 9.255 60.0309C9.255 56.8359 10.31 52.7509 12.415 47.7659L8.965 45.9459L6.855 49.1059C5.45 51.2159 4.06 54.1859 2.685 58.0159C1.31 61.8509 0.625 65.4909 0.625 68.9409C0.625 82.2309 9.31 88.8709 26.69 88.8709C38.765 88.8709 48.73 86.5709 56.585 81.9709C62.335 85.1659 68.02 86.7609 73.64 86.7609H76.42L76.565 86.7359L76.71 86.7609H88.69C92.65 86.7609 96.07 86.5059 98.945 85.9959C101.82 85.4859 103.705 84.9759 104.6 84.4609C105.045 84.3959 106.39 82.4509 108.625 78.6159C110.86 74.7809 112.3 71.8459 112.935 69.8009C113.38 68.3959 113.605 66.4459 113.605 63.9559C113.605 55.5859 112.055 48.1309 108.96 41.5809C105.86 35.0359 102.045 31.7609 97.51 31.7609L97.5 31.7559ZM94.625 55.5209C90.73 55.5209 87.66 55.1359 85.425 54.3709C86.32 51.8809 87.615 49.8209 89.305 48.1909C90.995 46.5609 92.705 45.7459 94.43 45.7459C97.94 45.7459 100.915 48.6859 103.34 54.5609C100.785 55.2009 97.88 55.5209 94.62 55.5209H94.625ZM59.55 70.2809L58.305 70.9509C53.26 69.2259 48.625 66.2559 44.41 62.0409C45.75 59.9309 47.35 58.2059 49.2 56.8659C51.05 55.5259 52.84 54.8559 54.565 54.8559C56.93 54.8559 58.91 56.1809 60.505 58.8309C62.1 61.4809 63.06 64.3409 63.38 67.4059C62.295 68.4909 61.015 69.4509 59.545 70.2809H59.55Z" fill="white"/>
<path d="M121.26 7.61547C121.325 8.19047 121.96 46.4505 123.175 86.7605H128.35C128.415 86.5705 130.3 80.4705 134.005 68.4605V-0.144531H130.65L121.26 7.61547Z" fill="white"/>
<path d="M246.119 47.0908H242.764L233.469 55.0458L237.304 75.9358C231.939 74.7858 226.824 72.7758 221.974 69.9008C222.994 61.4708 223.569 56.3908 223.699 54.6658L221.209 53.4208L214.309 57.8308L209.324 71.9158C208.429 72.0458 207.024 72.1058 205.109 72.1058C201.789 72.1058 199.264 71.9458 197.539 71.6258C198.179 66.5808 198.654 62.4608 198.974 59.2658L196.484 58.0208L189.874 62.2358L186.039 71.8158C184.184 72.0058 181.469 72.1058 177.894 72.1058H176.359C175.274 65.0808 173.309 59.1708 170.464 54.3808C167.619 49.5908 164.284 47.1958 160.449 47.1958C157.254 47.1958 154.314 48.5058 151.634 51.1258C148.949 53.7458 146.904 56.6508 145.499 59.8458C144.094 63.0408 143.264 65.9808 143.009 68.6608C142.944 69.6208 143.504 72.1608 144.684 76.2808C145.864 80.4008 146.774 82.8158 147.414 83.5158C147.669 83.9008 148.214 84.3158 149.044 84.7608C149.874 85.2108 151.344 85.6558 153.454 86.1008C155.564 86.5508 157.959 86.7708 160.639 86.7708H170.699C168.654 88.6858 165.954 90.1858 162.604 91.2758C159.249 92.3608 155.784 92.9058 152.209 92.9058C149.589 92.9058 145.629 92.3958 140.329 91.3708L138.414 95.5858C139.374 96.6708 142.309 98.8758 147.229 102.196C152.149 105.516 155.279 107.181 156.619 107.181C161.474 107.181 165.564 105.136 168.884 101.046C172.204 96.9558 174.444 92.1958 175.594 86.7708H181.249L182.784 86.4808V86.1058C183.719 85.8058 184.539 85.4058 185.229 84.9008C186.919 83.6558 188.664 81.5658 190.449 78.6258C191.344 80.4808 192.269 81.9808 193.229 83.1308C194.189 84.2808 195.239 85.1108 196.389 85.6208C197.539 86.1308 198.559 86.4508 199.454 86.5808C200.349 86.7108 201.499 86.7708 202.904 86.7708C205.649 86.7708 207.889 86.2608 209.614 85.2358C211.339 84.2158 212.934 82.1358 214.404 79.0058C218.044 81.8158 221.784 84.0708 225.614 85.7608C229.449 87.4508 232.194 88.3008 233.854 88.3008C235.389 88.3008 238.054 85.8908 241.854 81.0658C245.654 76.2408 247.554 73.0308 247.554 71.4358C247.554 68.5608 247.074 60.4508 246.114 47.0958L246.119 47.0908ZM159.399 72.1008C154.224 72.1008 150.294 71.4608 147.614 70.1858C148.699 67.5658 150.154 65.3458 151.974 63.5258C153.794 61.7058 155.724 60.7958 157.769 60.7958C159.939 60.7958 162.114 62.0758 164.284 64.6308C166.454 67.1858 167.989 69.6108 168.884 71.9108L168.979 72.1008H159.399Z" fill="white"/>
<path d="M8.22 114.521C7.09 115.491 5.645 115.976 3.885 115.976C2.54 115.976 1.34 115.841 0.29 115.571L0.62 112.261C1.72 112.706 2.84 112.926 3.985 112.926C5.355 112.926 6.04 112.406 6.04 111.366C6.04 110.811 5.725 110.356 5.1 110.001L3.015 109.136C1.005 108.306 0 106.946 0 105.051C0 103.611 0.52 102.471 1.56 101.631C2.625 100.766 4.095 100.331 5.975 100.331C6.965 100.331 7.885 100.431 8.73 100.626L8.415 103.661C7.565 103.361 6.695 103.211 5.815 103.211C4.43 103.211 3.74 103.686 3.74 104.641C3.74 105.151 4.06 105.586 4.7 105.941L6.82 106.861C8.865 107.766 9.89 109.116 9.89 110.916C9.89 112.371 9.335 113.576 8.23 114.521H8.22Z" fill="#09C7AB"/>
<path d="M31.6509 115.696H27.4209L25.6309 108.586C25.3809 107.436 25.1959 106.286 25.0759 105.136H25.0559C24.9559 106.161 24.7659 107.276 24.4859 108.466L22.6859 115.696H18.6959L14.9609 100.596H18.6509L20.4209 107.946C20.6609 109.011 20.8259 110.061 20.9109 111.101H20.9309C21.1259 109.766 21.3209 108.746 21.5109 108.041L23.4759 100.591H27.0809L29.0459 107.901C29.2959 108.841 29.4959 109.876 29.6559 111.016H29.6759C29.8009 110.076 29.9859 109.016 30.2309 107.836L31.9259 100.591H35.4209L31.6409 115.691L31.6509 115.696Z" fill="#09C7AB"/>
<path d="M48.3497 115.696L47.4297 112.901H42.1647L41.2697 115.696H37.8047L42.8197 100.596H46.9597L52.1697 115.696H48.3447H48.3497ZM45.3697 106.436C45.1647 105.831 44.9747 105.131 44.7897 104.336H44.7447C44.5197 105.296 44.3397 106.006 44.2097 106.456L42.9947 110.146H46.5797L45.3647 106.431L45.3697 106.436Z" fill="#09C7AB"/>
<path d="M71.3202 117.171C69.8502 117.396 68.4852 117.276 67.2252 116.811C65.7702 116.266 64.6702 115.991 63.9352 115.991H63.2452C60.9502 115.991 59.2052 115.311 58.0102 113.946C56.8602 112.641 56.2852 110.791 56.2852 108.396C56.2852 106.001 57.0202 103.991 58.4902 102.476C59.8952 101.026 61.6602 100.301 63.7752 100.301C66.0702 100.301 67.8152 100.981 69.0102 102.341C70.1602 103.646 70.7352 105.491 70.7352 107.881C70.7352 110.851 69.8152 112.861 67.9802 113.901C68.1902 113.906 68.6852 113.996 69.4652 114.161C70.0752 114.291 70.6902 114.311 71.3102 114.216V117.166L71.3202 117.171ZM63.5452 103.486C62.4802 103.486 61.6302 103.881 60.9902 104.666C60.3202 105.491 59.9852 106.616 59.9852 108.051C59.9852 111.211 61.1552 112.791 63.4902 112.791C64.5552 112.791 65.4052 112.396 66.0452 111.611C66.7152 110.796 67.0502 109.676 67.0502 108.246C67.0502 105.071 65.8802 103.481 63.5452 103.481V103.486Z" fill="#09C7AB"/>
<path d="M76.6309 115.696V100.596H80.1159V115.696H76.6309Z" fill="#09C7AB"/>
<path d="M90.36 103.571V106.796H94.925V109.656H90.36V115.696H86.875V100.596H95.2V103.566H90.36V103.571Z" fill="#09C7AB"/>
</svg>
