<svg width="26" height="26" viewBox="0 0 26 26" fill="none" xmlns="http://www.w3.org/2000/svg">
<path d="M12.8838 0C15.622 -1.69862e-05 17.7729 -0.000140819 19.4521 0.225586C21.173 0.456944 22.5386 0.940925 23.6113 2.01367C24.6841 3.08642 25.1681 4.45203 25.3994 6.17285C25.6251 7.85208 25.625 10.003 25.625 12.7412V12.8838C25.625 15.622 25.6251 17.7729 25.3994 19.4521C25.1681 21.173 24.6841 22.5386 23.6113 23.6113C22.5386 24.6841 21.173 25.1681 19.4521 25.3994C17.7729 25.6251 15.622 25.625 12.8838 25.625H12.7412C10.003 25.625 7.85208 25.6251 6.17285 25.3994C4.45203 25.1681 3.08642 24.6841 2.01367 23.6113C0.940925 22.5386 0.456944 21.173 0.225586 19.4521C-0.000140819 17.7729 -1.69862e-05 15.622 0 12.8838V12.7412C-1.69862e-05 10.003 -0.000140904 7.85207 0.225586 6.17285C0.456944 4.45203 0.940924 3.08642 2.01367 2.01367C3.08642 0.940924 4.45203 0.456944 6.17285 0.225586C7.85207 -0.000140904 10.003 -1.69862e-05 12.7412 0H12.8838ZM12.8125 1.875C9.98733 1.875 7.96267 1.87702 6.42285 2.08398C4.90995 2.28739 4.00615 2.67354 3.33984 3.33984C2.67354 4.00615 2.28739 4.90995 2.08398 6.42285C1.87702 7.96267 1.875 9.98733 1.875 12.8125C1.875 15.6377 1.87702 17.6623 2.08398 19.2021C2.28739 20.7151 2.67354 21.6189 3.33984 22.2852C4.00615 22.9515 4.90995 23.3376 6.42285 23.541C7.96267 23.748 9.98733 23.75 12.8125 23.75C15.6377 23.75 17.6623 23.748 19.2021 23.541C20.7151 23.3376 21.6189 22.9515 22.2852 22.2852C22.9515 21.6189 23.3376 20.7151 23.541 19.2021C23.748 17.6623 23.75 15.6377 23.75 12.8125C23.75 9.98733 23.748 7.96267 23.541 6.42285C23.3376 4.90995 22.9515 4.00615 22.2852 3.33984C21.6189 2.67354 20.7151 2.28739 19.2021 2.08398C17.6623 1.87702 15.6377 1.875 12.8125 1.875ZM6.5625 13.125C7.08027 13.125 7.5 13.5447 7.5 14.0625V19.0625C7.5 19.5803 7.08027 20 6.5625 20C6.04473 20 5.625 19.5803 5.625 19.0625V14.0625C5.625 13.5447 6.04473 13.125 6.5625 13.125ZM12.8125 5.625C13.3303 5.625 13.75 6.04473 13.75 6.5625V19.0625C13.75 19.5803 13.3303 20 12.8125 20C12.2947 20 11.875 19.5803 11.875 19.0625V6.5625C11.875 6.04473 12.2947 5.625 12.8125 5.625ZM19.0625 10.625C19.5803 10.625 20 11.0447 20 11.5625V19.0625C20 19.5803 19.5803 20 19.0625 20C18.5447 20 18.125 19.5803 18.125 19.0625V11.5625C18.125 11.0447 18.5447 10.625 19.0625 10.625Z" fill="white"/>
</svg>
