<svg width="18" height="17" viewBox="0 0 18 17" fill="none" xmlns="http://www.w3.org/2000/svg">
<path d="M16.75 12C17.1642 12 17.5 12.3358 17.5 12.75C17.5 13.3867 17.4682 13.949 17.3633 14.4268C17.2565 14.913 17.0637 15.3581 16.7109 15.7109C16.3581 16.0637 15.913 16.2565 15.4268 16.3633C14.949 16.4682 14.3867 16.5 13.75 16.5H3.75C3.11332 16.5 2.55097 16.4682 2.07324 16.3633C1.587 16.2565 1.14187 16.0637 0.789062 15.7109C0.436259 15.3581 0.243537 14.913 0.136719 14.4268C0.0317845 13.949 0 13.3867 0 12.75C0 12.3358 0.335786 12 0.75 12C1.16421 12 1.5 12.3358 1.5 12.75C1.5 13.354 1.53286 13.7871 1.60254 14.1045C1.67041 14.4134 1.76266 14.5634 1.84961 14.6504C1.93656 14.7373 2.08657 14.8296 2.39551 14.8975C2.71291 14.9671 3.14595 15 3.75 15H13.75C14.354 15 14.7871 14.9671 15.1045 14.8975C15.4134 14.8296 15.5634 14.7373 15.6504 14.6504C15.7373 14.5634 15.8296 14.4134 15.8975 14.1045C15.9671 13.7871 16 13.354 16 12.75C16 12.3358 16.3358 12 16.75 12ZM8.75 0C9.00829 0 9.23114 0.0893869 9.39258 0.175781C9.55979 0.265325 9.7156 0.381557 9.85352 0.499023C10.1288 0.733536 10.4044 1.03485 10.6504 1.3252C10.8801 1.59631 11.1029 1.88091 11.293 2.12305C11.3088 2.14322 11.3245 2.16306 11.3398 2.18262C11.553 2.45404 11.6994 2.63628 11.7881 2.72754C12.0765 3.02458 12.0694 3.49947 11.7725 3.78809C11.4754 4.07651 11.0005 4.06939 10.7119 3.77246C10.5549 3.61091 10.3532 3.35389 10.1611 3.10938C10.1464 3.09062 10.1311 3.0717 10.1162 3.05273C9.9233 2.807 9.71655 2.54357 9.50586 2.29492C9.50392 2.29263 9.50194 2.29037 9.5 2.28809V10.75C9.5 11.1642 9.16421 11.5 8.75 11.5C8.33579 11.5 8 11.1642 8 10.75V2.28809C7.99806 2.29037 7.99608 2.29263 7.99414 2.29492C7.78345 2.54357 7.5767 2.807 7.38379 3.05273C7.3689 3.0717 7.3536 3.09062 7.33887 3.10938C7.14681 3.35389 6.94505 3.61091 6.78809 3.77246C6.49948 4.06939 6.02458 4.07651 5.72754 3.78809C5.43061 3.49948 5.42349 3.02458 5.71191 2.72754C5.80062 2.63628 5.94696 2.45404 6.16016 2.18262C6.17552 2.16306 6.19119 2.14322 6.20703 2.12305C6.3971 1.88091 6.61988 1.59631 6.84961 1.3252C7.09564 1.03485 7.37122 0.733536 7.64648 0.499023C7.7844 0.381558 7.94021 0.265325 8.10742 0.175781C8.26886 0.089387 8.49171 1.09564e-07 8.75 0Z" fill="#161616"/>
</svg>
