<svg width="27" height="25" viewBox="0 0 27 25" fill="none" xmlns="http://www.w3.org/2000/svg">
<path fill-rule="evenodd" clip-rule="evenodd" d="M15.9375 1.87506C17.1603 1.87506 17.5878 1.88311 17.9154 1.9709C18.886 2.23096 19.6441 2.98906 19.9042 3.95963C19.9646 4.18505 19.9872 4.45777 19.9955 5.00433C19.5299 5.00005 19.0338 5.00005 18.5061 5.00006L10.9375 5.00006C10.4197 5.00006 10 5.4198 10 5.93756C10 6.45533 10.4197 6.87506 10.9375 6.87506H18.4375C20.2318 6.87506 21.4832 6.87705 22.4273 7.004C23.3446 7.12731 23.8303 7.35287 24.1762 7.69882C24.5222 8.04478 24.7477 8.53049 24.8711 9.44771C24.998 10.3919 25 11.6433 25 13.4376V15.9376C25 17.7318 24.998 18.9832 24.8711 19.9274C24.7477 20.8446 24.5222 21.3303 24.1762 21.6763C23.8303 22.0223 23.3446 22.2478 22.4273 22.3711C21.4832 22.4981 20.2318 22.5001 18.4375 22.5001H10.9375C8.55397 22.5001 6.86064 22.4981 5.57606 22.3254C4.31845 22.1563 3.59389 21.8392 3.06488 21.3102C2.53587 20.7812 2.21878 20.0566 2.0497 18.799C1.87699 17.5144 1.875 15.8211 1.875 13.4376V10.9376C1.875 8.55404 1.87699 6.8607 2.0497 5.57612C2.21878 4.31851 2.53587 3.59395 3.06488 3.06494C3.59389 2.53593 4.31845 2.21884 5.57606 2.04976C6.86064 1.87705 8.55398 1.87506 10.9375 1.87506H15.9375ZM21.7153 3.47435C21.8344 3.91909 21.8649 4.41874 21.8726 5.06585C22.157 5.08581 22.4251 5.11182 22.6772 5.14572C23.8023 5.29699 24.7497 5.6206 25.5021 6.373C26.2545 7.12539 26.5781 8.07274 26.7293 9.19787C26.875 10.2816 26.875 11.6595 26.875 13.369V16.0061C26.875 17.7156 26.875 19.0935 26.7293 20.1772C26.5781 21.3024 26.2545 22.2497 25.5021 23.0021C24.7497 23.7545 23.8023 24.0781 22.6772 24.2294C21.5935 24.3751 20.2156 24.3751 18.5061 24.3751H10.867H10.8669C8.56975 24.3751 6.75023 24.3751 5.32622 24.1836C3.86069 23.9866 2.67451 23.5715 1.73905 22.636C0.803601 21.7006 0.388454 20.5144 0.191419 19.0488C-3.44031e-05 17.6248 -1.90268e-05 15.8053 3.89835e-07 13.5081V13.5081V10.867V10.867C-1.90268e-05 8.56983 -3.44031e-05 6.7503 0.191419 5.32628C0.388454 3.86076 0.803601 2.67457 1.73905 1.73912C2.67451 0.803661 3.8607 0.388515 5.32622 0.19148C6.75024 2.56673e-05 8.56978 4.14641e-05 10.867 6.12826e-05L15.9375 6.17297e-05L16.0822 3.02137e-05C17.1047 -0.000306702 17.8024 -0.000536628 18.4007 0.159785C20.0183 0.593224 21.2818 1.85673 21.7153 3.47435ZM21.25 14.6875C21.25 14.1697 20.8303 13.75 20.3125 13.75C19.7947 13.75 19.375 14.1697 19.375 14.6875C19.375 15.2053 19.7947 15.625 20.3125 15.625C20.8303 15.625 21.25 15.2053 21.25 14.6875ZM20.3125 11.875C21.8658 11.875 23.125 13.1342 23.125 14.6875C23.125 16.2408 21.8658 17.5 20.3125 17.5C18.7592 17.5 17.5 16.2408 17.5 14.6875C17.5 13.1342 18.7592 11.875 20.3125 11.875Z" fill="white"/>
</svg>
