<svg width="20" height="22" viewBox="0 0 20 22" fill="none" xmlns="http://www.w3.org/2000/svg">
<path d="M9.75 0C10.4263 0.000157891 10.9125 0.483417 11.1699 0.775391C11.3189 0.944383 11.452 1.12228 11.5586 1.2666C11.5727 1.28571 11.5858 1.30481 11.5986 1.32227C11.6927 1.44978 11.7558 1.53449 11.8086 1.5957C11.9556 1.76595 12.0464 1.84731 12.127 1.89551C12.1908 1.93367 12.2795 1.97024 12.4512 1.97266C12.627 1.97509 12.8176 1.91843 13.1641 1.81641C13.1768 1.81265 13.1899 1.80857 13.2031 1.80469C13.5146 1.71303 13.9893 1.57474 14.4922 1.65039C14.7107 1.68327 14.9975 1.76183 15.2197 1.98535C15.4829 2.25021 15.5258 2.58 15.4873 2.8291C15.4541 3.04437 15.3602 3.22395 15.2988 3.33008C15.2405 3.43077 15.1722 3.52912 15.127 3.59473C15.1215 3.60262 15.1161 3.61031 15.1113 3.61719L14.1787 4.97559C14.1596 5.00335 14.14 5.03099 14.1211 5.05859C13.996 5.24134 13.8725 5.41875 13.7373 5.58398C14.0985 5.80931 14.3704 6.07219 14.7129 6.40527L14.7402 6.43164C16.6062 8.24611 18.7449 11.3253 19.4326 15.4629C19.7233 17.2121 19.0512 18.7473 17.8965 19.8193C16.7533 20.8805 15.1327 21.4999 13.4424 21.5H6.05859C4.36801 21.5 2.7468 20.8807 1.60352 19.8193C0.448768 18.7473 -0.223198 17.2121 0.0673828 15.4629C0.75514 11.3251 2.89473 8.24608 4.76074 6.43164C4.7697 6.42293 4.77825 6.41389 4.78711 6.40527C5.12923 6.07253 5.40119 5.81013 5.76172 5.58496C5.62631 5.41956 5.50312 5.24155 5.37793 5.05859C5.35911 5.03109 5.34029 5.00325 5.32129 4.97559L4.3877 3.61719C4.383 3.61035 4.37845 3.60256 4.37305 3.59473C4.32783 3.52919 4.25951 3.43083 4.20117 3.33008C4.13975 3.22395 4.04595 3.04437 4.0127 2.8291C3.97422 2.57999 4.01614 2.25024 4.2793 1.98535C4.50143 1.76178 4.78829 1.6833 5.00684 1.65039C5.50961 1.57474 5.98443 1.71303 6.2959 1.80469C6.309 1.80854 6.32229 1.81267 6.33496 1.81641C6.68139 1.91843 6.87205 1.97509 7.04785 1.97266C7.21989 1.97027 7.30914 1.93373 7.37305 1.89551C7.45353 1.8473 7.54375 1.76561 7.69043 1.5957C7.74324 1.53451 7.8064 1.4497 7.90039 1.32227C7.91327 1.30481 7.92632 1.28571 7.94043 1.2666C8.04704 1.12225 8.18008 0.944442 8.3291 0.775391C8.58652 0.483386 9.07337 0 9.75 0ZM8.67285 6.5C7.65784 6.5 7.32214 6.50972 6.91211 6.67676C6.48932 6.849 6.3216 7.00516 5.80566 7.50684C4.11935 9.14664 2.17182 11.9486 1.54688 15.708C1.34932 16.8966 1.78864 17.9441 2.62402 18.7197C3.47108 19.5061 4.72013 20 6.05859 20H13.4424C14.7806 19.9999 16.029 19.506 16.876 18.7197C17.7115 17.9441 18.1507 16.8966 17.9531 15.708C17.3282 11.9484 15.3807 9.1466 13.6943 7.50684C13.1783 7.00512 13.0107 6.84901 12.5879 6.67676C12.178 6.50983 11.8428 6.5 10.8281 6.5H8.67285ZM9.75 1.50586C9.72063 1.52109 9.62447 1.57547 9.45508 1.76758C9.35272 1.88369 9.25273 2.01568 9.14746 2.1582C9.13516 2.17486 9.1224 2.19226 9.10938 2.20996C9.0222 2.32844 8.92003 2.46645 8.82617 2.5752C8.65413 2.77452 8.4364 3.00789 8.14258 3.18359C7.83209 3.36921 7.48005 3.46598 7.06836 3.47168C6.65683 3.47733 6.25194 3.35764 5.97168 3.27344L6.55762 4.12598C6.98815 4.75263 7.06451 4.82286 7.22949 4.8877C7.33421 4.92884 7.48527 4.96313 7.77246 4.98145C8.06501 5.00008 8.44215 5 8.99121 5H10.5078C11.057 5 11.434 5.00008 11.7266 4.98145C12.0138 4.96314 12.1648 4.92882 12.2695 4.8877C12.4346 4.82284 12.5117 4.7529 12.9424 4.12598L13.5273 3.27344C13.247 3.35766 12.8422 3.47738 12.4307 3.47168C12.0189 3.46597 11.667 3.36928 11.3564 3.18359C11.0626 3.00789 10.8449 2.77452 10.6729 2.5752C10.579 2.46644 10.4768 2.32841 10.3896 2.20996C10.3766 2.19227 10.3638 2.17484 10.3516 2.1582C10.2464 2.01576 10.1472 1.88363 10.0449 1.76758C9.87594 1.57588 9.77972 1.5213 9.75 1.50586Z" fill="#31CE77"/>
</svg>
