<svg width="37" height="37" viewBox="0 0 37 37" fill="none" xmlns="http://www.w3.org/2000/svg">
<path fill-rule="evenodd" clip-rule="evenodd" d="M18.5044 37C14.8665 37 11.3472 35.9426 8.32707 33.9422L1.21636 36.2156L3.52197 29.3431C1.21792 26.1791 0 22.4292 0 18.4996C0 8.29889 8.29708 0 18.4956 0H18.5044C28.7029 0 37 8.29889 37 18.4996C37 28.7008 28.7029 37 18.5044 37ZM13.7 10.8826C13.1201 10.8826 12.5931 11.0681 12.29 11.3787L12.2542 11.4152C11.8432 11.8339 10.8809 12.8144 10.8809 14.7415C10.8809 16.4183 11.8941 18.056 12.4981 18.883L12.5175 18.9096C12.5328 18.9297 12.5609 18.9705 12.6035 19.0322C14.5598 21.8693 16.9661 23.983 19.3804 24.9857C21.2383 25.7581 22.5214 26.1179 23.4183 26.1179C23.7475 26.1179 23.9892 26.0724 24.2085 26.0259C25.2816 25.7933 26.5868 25.0003 26.9135 24.0757C27.2464 23.1316 27.244 22.3259 27.1493 22.1588C27.072 22.0229 26.8901 21.935 26.6148 21.8021C26.5422 21.767 26.4639 21.7292 26.3798 21.6868C26.3565 21.6752 24.0407 20.5213 23.6326 20.3795C23.5093 20.3327 23.3915 20.3089 23.2824 20.3089C23.0322 20.3089 22.8174 20.4337 22.6438 20.6798L22.4989 20.884C22.1583 21.3644 21.8366 21.8181 21.5673 22.1098C21.4257 22.261 21.2208 22.3443 20.9905 22.3443C20.8585 22.3443 20.7218 22.3166 20.5951 22.2641C20.5592 22.2491 20.5182 22.2325 20.4723 22.2139C19.963 22.0075 18.7756 21.5264 17.3631 20.265C16.2727 19.2925 15.4938 18.1019 15.1265 17.4788C14.8968 17.0808 15.0906 16.8522 15.2781 16.631L15.2887 16.6186C15.4063 16.4723 15.5229 16.3484 15.6356 16.2285C15.7177 16.1413 15.8026 16.0511 15.8878 15.9525L15.9217 15.9134C16.1028 15.705 16.2121 15.5792 16.3346 15.3179C16.4742 15.0465 16.3679 14.7614 16.2758 14.5706C16.2039 14.4189 15.7402 13.2903 15.3676 12.3835C15.2393 12.0713 15.1224 11.7868 15.0371 11.5802C14.7745 10.9508 14.5789 10.9164 14.1617 10.8984C14.025 10.891 13.87 10.8826 13.7 10.8826L13.7 10.8826Z" fill="#7EA831"/>
</svg>
