<svg width="254" height="77" viewBox="0 0 254 77" fill="none" xmlns="http://www.w3.org/2000/svg">
<path d="M226.271 21.3218C220.487 27.1212 214.776 32.8452 209.007 38.6266C208.66 37.4987 208.546 36.4311 208.591 35.3514C208.639 34.136 208.853 32.9448 209.303 31.8048C209.71 30.7673 210.28 29.8505 211.083 29.0544C216.052 24.1114 221 19.1534 225.957 14.1984C226.044 14.111 226.138 14.0325 226.271 13.9089C233.24 20.8754 240.191 27.8269 247.218 34.8508C247.215 33.5419 246.997 32.3657 246.611 31.2227C245.878 29.0513 244.65 27.1634 243.087 25.5228C240.535 22.8448 237.907 20.2391 235.297 17.6153C232.398 14.7021 229.487 11.8008 226.581 8.89358C226.482 8.79405 226.379 8.70056 226.249 8.57691C226.117 8.70056 225.993 8.81215 225.872 8.93278C220.988 13.8064 216.124 18.698 211.222 23.5505C209.864 24.8925 208.494 26.2074 207.456 27.8269C206.09 29.9621 205.384 32.3326 204.982 34.8025C204.768 36.1174 204.747 37.4534 204.832 38.7804C204.913 40.0199 205.073 41.2534 205.296 42.4687C205.598 44.1184 206.053 45.762 206.684 47.2699C213.237 40.7135 219.687 34.2657 226.195 27.7545C226.723 28.3034 227.161 28.7739 227.613 29.2263C233.418 35.0468 239.226 40.8643 245.027 46.6879C246.198 47.861 247.185 49.1578 247.474 50.8527C247.737 52.3878 247.48 53.8957 247.179 55.3946C247.124 55.666 247.052 55.9374 246.988 56.2088C240.082 49.3147 233.195 42.4356 226.298 35.5504C219.35 42.4959 212.462 49.381 205.523 56.3174C205.112 55.8107 204.726 55.3614 204.373 54.8909C200.336 49.4926 198.499 43.4127 198.957 36.7025C199.416 30.0254 202.038 24.2622 206.762 19.5063C213.177 13.0494 219.627 6.62869 226.065 0.192927C226.111 0.147689 226.156 0.108483 226.268 0.00292969C226.569 0.322607 226.862 0.6453 227.167 0.952914C233.312 7.10218 239.479 13.2273 245.598 19.4007C251.336 25.1911 253.928 32.2059 253.529 40.3275C253.418 42.5683 252.965 44.7547 252.277 46.8929C252.244 46.9955 252.202 47.092 252.145 47.2458C243.516 38.5934 234.914 29.9772 226.271 21.3218Z" fill="white"/>
<path d="M216.272 59.255C219.582 62.5633 222.919 65.8958 226.234 69.2102C229.556 65.8898 232.893 62.5573 236.197 59.252L243.766 59.4751C237.931 65.3077 232.069 71.1705 226.234 77.0001C220.412 71.1795 214.546 65.3198 208.708 59.4872L216.272 59.255Z" fill="white"/>
<path d="M230.479 52.0978C229.085 53.4942 227.667 54.9176 226.274 56.317C224.859 54.8935 223.435 53.461 222.035 52.0496C223.407 50.6804 224.837 49.2509 226.243 47.8516C227.625 49.2388 229.052 50.6683 230.479 52.0978Z" fill="white"/>
<path d="M28.4865 31.7152C28.8727 32.1434 29.4429 32.3545 30.2002 32.3545H30.7976C30.9152 32.3545 30.9967 32.3907 31.0359 32.4601C31.0751 32.5294 31.0962 32.5928 31.0962 32.6531V35.6327C31.0962 35.69 31.0781 35.7564 31.0359 35.8257C30.9967 35.8951 30.9152 35.9313 30.7976 35.9313H28.9511C27.2616 35.9313 25.9703 35.4095 25.0773 34.3691C24.1842 33.3256 23.7347 31.9323 23.7347 30.1861V21.1568H22.7512C19.8307 21.1568 18.3704 22.4988 18.3704 25.1769V35.9283H7.64494C5.12271 35.9283 3.27629 35.2738 2.10267 33.9619C0.929052 32.6501 0.34375 31.0034 0.34375 29.019V25.7197L4.51629 21.1568V28.3646C4.51629 31.0245 5.97653 32.3545 8.897 32.3545H14.2009V24.5224C14.2009 22.538 14.7862 20.8853 15.9599 19.5644C17.1305 18.2435 18.9769 17.583 21.5021 17.583H27.9073V29.5257C27.9042 30.5571 28.0973 31.2869 28.4865 31.7152ZM5.82568 42.3007V38.549H10.1159V42.3007H5.82568ZM11.7843 42.3007V38.549H16.0745V42.3007H11.7843Z" fill="white"/>
<path d="M42.7571 21.8406C43.979 22.495 44.9263 23.4028 45.6021 24.5639C46.278 25.725 46.6159 27.0218 46.6159 28.4513C46.6159 30.3181 46.0215 32.8091 44.8298 35.9275H30.7976C30.6769 35.9275 30.5985 35.8913 30.5593 35.8219C30.5201 35.7526 30.502 35.6862 30.502 35.6289V32.6493C30.502 32.589 30.5201 32.5256 30.5593 32.4563C30.5985 32.3869 30.68 32.3507 30.7976 32.3507H32.5837V21.4546C35.1663 21.0565 37.1424 20.8574 38.5121 20.8574C40.1202 20.8574 41.5352 21.1861 42.7571 21.8406ZM36.7532 24.6393V32.3537H41.6981C42.0964 30.9846 42.2955 29.7028 42.2955 28.5116C42.2955 25.7913 41.0826 24.4312 38.66 24.4312C38.0445 24.4312 37.4079 24.5005 36.7532 24.6393Z" fill="white"/>
<path d="M55.3891 31.7148C55.7753 32.143 56.3455 32.3541 57.1028 32.3541H57.7001C57.8178 32.3541 57.8993 32.3903 57.9385 32.4597C57.9777 32.5291 57.9988 32.5924 57.9988 32.6527V35.6323C57.9988 35.6896 57.9777 35.756 57.9385 35.8254C57.8993 35.8947 57.8178 35.9309 57.7001 35.9309H55.8507C54.1612 35.9309 52.8729 35.4092 51.9769 34.3687C51.0838 33.3252 50.6343 31.9319 50.6343 30.1858V17.6792L54.8068 13.1162V29.5253C54.8068 30.5567 55.0029 31.2865 55.3891 31.7148Z" fill="white"/>
<path d="M65.1766 31.253C65.774 31.9889 66.7364 32.3538 68.0669 32.3538C68.1846 32.3538 68.2661 32.39 68.3053 32.4594C68.3445 32.5287 68.3656 32.5921 68.3656 32.6524V35.632C68.3656 35.6893 68.3445 35.7557 68.3053 35.825C68.2661 35.8944 68.1846 35.9306 68.0669 35.9306C67.4122 35.9306 66.6972 35.7707 65.9218 35.4541C65.1465 35.1374 64.4525 34.6609 63.8371 34.0246C62.766 35.2942 61.3329 35.9306 59.5469 35.9306H57.7005C57.5798 35.9306 57.5013 35.8944 57.4621 35.825C57.4229 35.7557 57.4048 35.6893 57.4048 35.632V32.6524C57.4048 32.5921 57.4229 32.5287 57.4621 32.4594C57.5013 32.39 57.5828 32.3538 57.7005 32.3538H58.2948C59.0883 32.3538 59.7701 32.0402 60.3373 31.4159C60.9015 30.7886 61.1881 29.9623 61.1881 28.9278V21.1561H65.3607V29.5853C65.3546 30.1613 65.2973 30.7162 65.1766 31.253ZM61.1248 18.6228V14.8711H65.415V18.6228H61.1248Z" fill="white"/>
<path d="M68.0668 35.9279C67.9491 35.9279 67.8676 35.8917 67.8284 35.8223C67.7892 35.753 67.7681 35.6866 67.7681 35.6293V32.6497C67.7681 32.5894 67.7862 32.5261 67.8284 32.4567C67.8676 32.3873 67.9491 32.3511 68.0668 32.3511H71.0445V17.6792L75.1869 13.1162V35.9309H68.0668V35.9279Z" fill="white"/>
<path d="M80.2524 35.9279V17.6792L84.425 13.1162V35.9309H80.2524V35.9279Z" fill="white"/>
<path d="M99.6187 25.9211V28.3337C99.6187 31.0148 101.079 32.3538 103.999 32.3538H111.536C110.266 31.3405 109.629 29.8839 109.629 27.9779C109.629 26.7082 109.982 25.526 110.688 24.4343C111.394 23.3425 112.366 22.474 113.609 21.8286C114.849 21.1832 116.236 20.8605 117.766 20.8605C119.175 20.8605 121.151 21.0596 123.695 21.4577V29.5883C123.695 30.1643 123.634 30.7192 123.517 31.2561C124.114 31.9919 125.076 32.3568 126.407 32.3568C126.528 32.3568 126.606 32.393 126.645 32.4624C126.684 32.5318 126.706 32.5951 126.706 32.6554V35.635C126.706 35.6923 126.687 35.7587 126.645 35.8281C126.606 35.8974 126.528 35.9336 126.407 35.9336C125.752 35.9336 125.037 35.7738 124.262 35.4571C123.486 35.1404 122.789 34.6639 122.177 34.0276C121.106 35.2973 119.676 35.9336 117.887 35.9336H102.75C100.228 35.9336 98.3818 35.2731 97.2081 33.9522C96.0345 32.6313 95.4492 30.9786 95.4492 28.9942M113.98 28.5117C113.98 29.5642 114.297 30.4327 114.933 31.1173C115.57 31.8019 116.411 32.203 117.464 32.3237C118.101 32.0673 118.602 31.6391 118.97 31.045C119.338 30.4478 119.522 29.7451 119.522 28.9309V24.6393C118.828 24.5006 118.192 24.4313 117.615 24.4313C115.19 24.4313 113.98 25.7914 113.98 28.5117ZM115.528 18.6228V14.8711H119.818V18.6228H115.528Z" fill="white"/>
<path d="M142.222 21.4546V35.9276H126.401C126.28 35.9276 126.202 35.8914 126.163 35.822C126.124 35.7527 126.105 35.6863 126.105 35.629V32.6494C126.105 32.5891 126.124 32.5257 126.163 32.4564C126.202 32.387 126.283 32.3508 126.401 32.3508H130.094C128.824 31.3375 128.187 29.8808 128.187 27.9748C128.187 26.7052 128.54 25.523 129.246 24.4313C129.952 23.3395 130.924 22.471 132.167 21.8256C133.407 21.1802 134.794 20.8575 136.324 20.8575C137.715 20.8575 139.682 21.0565 142.222 21.4546ZM130.812 18.6228V14.8711H135.102V18.6228H130.812ZM132.541 28.5117C132.541 29.6426 132.909 30.5564 133.642 31.253C134.375 31.9467 135.329 32.3146 136.502 32.3538H138.053V24.6393C137.359 24.5006 136.731 24.4313 136.176 24.4313C133.754 24.4313 132.541 25.7914 132.541 28.5117ZM136.771 18.6228V14.8711H141.061V18.6228H136.771Z" fill="white"/>
<path d="M161.142 32.4714C161.181 32.5498 161.202 32.6101 161.202 32.6493V35.6289C161.202 35.6862 161.181 35.7526 161.142 35.8219C161.103 35.8913 161.021 35.9275 160.904 35.9275H159.027C158.849 38.1713 158.119 39.7998 156.837 40.8101C155.557 41.8234 153.753 42.5171 151.43 42.894L149.762 39.1695C150.993 39.0097 151.97 38.7865 152.697 38.5C153.421 38.2105 153.973 37.7852 154.351 37.2183C154.728 36.6543 154.915 35.8823 154.915 34.9112V24.6393C154.221 24.5005 153.584 24.4312 153.008 24.4312C150.585 24.4312 149.372 25.7913 149.372 28.5116C149.372 29.7028 149.686 30.6408 150.311 31.3253C150.938 32.0099 151.834 32.3537 153.008 32.3537H154.32L152.712 35.9275H152.296C150.926 35.9275 149.689 35.6199 148.588 35.0046C147.487 34.3894 146.621 33.5148 145.996 32.3839C145.369 31.253 145.058 29.9411 145.058 28.4513C145.058 27.0218 145.396 25.725 146.072 24.5639C146.748 23.4028 147.695 22.495 148.917 21.8406C150.139 21.1861 151.554 20.8574 153.162 20.8574C154.532 20.8574 156.508 21.0565 159.09 21.4546V32.3537H160.91C161.024 32.3537 161.103 32.3929 161.142 32.4714Z" fill="white"/>
<path d="M160.904 35.9279C160.783 35.9279 160.704 35.8917 160.665 35.8223C160.626 35.753 160.608 35.6866 160.608 35.6293V32.6497C160.608 32.5894 160.629 32.5261 160.665 32.4567C160.704 32.3873 160.786 32.3511 160.904 32.3511H163.881V17.6792L168.024 13.1162V35.9309H160.904V35.9279Z" fill="white"/>
<path d="M173.089 35.9279V17.6792L177.262 13.1162V35.9309H173.089V35.9279Z" fill="white"/>
<path d="M7.4247 58.1573H3.69868L2.88106 60.772H0.34375L4.05167 49.5381H7.27988L11.0542 60.772H8.26041L7.4247 58.1573ZM6.71872 55.9889L5.53001 52.3126L4.37449 55.9889H6.71872Z" fill="white"/>
<path d="M22.356 58.4438V60.772H15.0337V49.5381H17.6676V58.4438H22.356Z" fill="white"/>
<path d="M41.7976 49.5381L38.7323 60.772H35.6671L33.6909 53.0998L31.8928 60.772H28.8275L25.6958 49.5381H28.4896L30.5592 57.5783L32.4207 49.5381H35.3261L37.3174 57.3219L39.2603 49.5381H41.7976Z" fill="white"/>
<path d="M51.8988 58.1573H48.1728L47.3552 60.772H44.8179L48.5258 49.5381H51.754L55.5283 60.772H52.7345L51.8988 58.1573ZM51.1928 55.9889L50.0041 52.3126L48.8486 55.9889H51.1928Z" fill="white"/>
<path d="M67.6322 60.1477C67.065 60.395 66.5793 60.576 66.172 60.6936C66.9413 61.0585 67.771 61.342 68.661 61.544L67.6171 63.8873C66 63.2027 64.41 62.2286 62.8472 60.968C61.4865 60.8082 60.4849 60.2774 59.8362 59.3787C59.1876 58.48 58.8647 57.1922 58.8647 55.5094C58.8647 54.5564 58.9915 53.5974 59.2419 52.6293C59.4923 51.6612 59.8272 50.8349 60.2465 50.1503C61.562 49.5833 62.8472 49.2998 64.0993 49.2998C65.7798 49.2998 67.0198 49.7522 67.8162 50.6569C68.6127 51.5617 69.011 52.9399 69.011 54.7886C69.011 55.7416 68.8843 56.7006 68.6339 57.6687C68.3835 58.6368 68.0486 59.4601 67.6322 60.1477ZM62.1412 52.0261C61.8516 52.8615 61.6917 53.914 61.6585 55.1867C61.6585 56.3629 61.8456 57.2133 62.2197 57.7381C62.5938 58.2628 63.2213 58.5252 64.0993 58.5252C64.6785 58.5252 65.2246 58.4408 65.7375 58.2689C66.0272 57.4335 66.1871 56.381 66.2202 55.1083C66.2202 53.9321 66.0332 53.0816 65.6591 52.5569C65.285 52.0321 64.6574 51.7698 63.7795 51.7698C63.2002 51.7698 62.6541 51.8542 62.1412 52.0261Z" fill="white"/>
<path d="M75.8507 51.8663V53.9834H80.7322V56.3116H75.8507V60.772H73.2168V49.5381H81.052V51.8663H75.8507Z" fill="white"/>
<path d="M97.3832 58.1573H93.6572L92.8396 60.772H90.3022L94.0102 49.5381H97.2384L101.013 60.772H98.2189L97.3832 58.1573ZM96.6742 55.9889L95.4855 52.3126L94.33 55.9889H96.6742Z" fill="white"/>
<path d="M112.314 58.4438V60.772H104.992V49.5381H107.626V58.4438H112.314Z" fill="white"/>
<path d="M123.698 60.7721L120.261 56.0523C119.758 55.3557 119.347 54.6892 119.024 54.0468L118.928 54.08C119.003 54.454 119.039 55.1989 119.039 56.3117V60.7721H116.614V49.5382H119.039L122.476 54.3213C123.01 55.0903 123.423 55.7598 123.713 56.3268L123.809 56.2936C123.734 55.9197 123.698 55.1747 123.698 54.0619V49.5352H126.123V60.7691H123.698V60.7721Z" fill="white"/>
<path d="M137.184 58.1573H133.458L132.64 60.772H130.103L133.811 49.5381H137.039L140.813 60.772H138.02L137.184 58.1573ZM136.478 55.9889L135.289 52.3126L134.134 55.9889H136.478Z" fill="white"/>
<path d="M150.911 58.1573H147.185L146.367 60.772H143.83L147.538 49.5381H150.766L154.54 60.772H151.747L150.911 58.1573ZM150.205 55.9889L149.016 52.3126L147.861 55.9889H150.205Z" fill="white"/>
<path d="M170 49.5381V60.772H167.366V56.3599C167.366 55.428 167.414 54.6258 167.511 53.9533H167.366C167.236 54.6047 166.992 55.3345 166.627 56.1367L165.148 59.4752H163.142L161.634 56.1367C161.29 55.3013 161.054 54.5745 160.928 53.9533H160.783C160.879 54.6288 160.928 55.431 160.928 56.3599V60.772H158.52V49.5381H161.121L164.427 56.9842L167.511 49.5381H170Z" fill="white"/>
<path d="M177.579 49.5381V60.772H174.945V49.5381H177.579Z" fill="white"/>
</svg>
