<svg width="41" height="31" viewBox="0 0 41 31" fill="none" xmlns="http://www.w3.org/2000/svg">
<path fill-rule="evenodd" clip-rule="evenodd" d="M40.1433 4.85046C39.6717 2.94121 38.2824 1.43755 36.5184 0.927259C33.3211 0 20.5 0 20.5 0C20.5 0 7.679 0 4.48156 0.927259C2.71757 1.43762 1.32827 2.94121 0.856735 4.85046C0 8.31108 0 15.5313 0 15.5313C0 15.5313 0 22.7516 0.856735 26.2122C1.32827 28.1215 2.71757 29.5625 4.48156 30.0728C7.679 31 20.5 31 20.5 31C20.5 31 33.321 31 36.5184 30.0727C38.2824 29.5625 39.6717 28.1214 40.1433 26.2122C41 22.7516 41 15.5313 41 15.5313C41 15.5313 41 8.31107 40.1433 4.85045V4.85046ZM16.3984 22V9L27.3318 15.5002L16.3984 22Z" fill="#7EA831"/>
</svg>
