<svg width="201" height="56" viewBox="0 0 201 56" fill="none" xmlns="http://www.w3.org/2000/svg">
<g clip-path="url(#clip0_8748_137615)">
<path d="M89.3047 15.9177L90.2931 13.0025L116.274 -0.0693359L116.651 0.307897L115.71 3.22548L89.6843 16.2949L89.3071 15.9177H89.3047Z" fill="white"/>
<path d="M25.4167 14.2034C26.0422 14.8433 26.6892 15.4092 27.3625 15.8962L27.957 15.4378C28.3843 15.1035 28.9096 14.6213 29.5351 13.9957C30.1606 13.3702 30.7026 12.7375 31.1586 12.0976C30.366 10.9993 29.1006 9.71723 27.3601 8.25366C26.1091 9.3209 24.858 10.603 23.6094 12.0976L24.02 12.6921C24.3256 13.0574 24.7912 13.5612 25.4167 14.2011V14.2034Z" fill="white"/>
<path d="M40.949 10.7034C41.5578 11.3289 42.2001 11.8852 42.871 12.3747L43.3747 12.0094C43.6803 11.7659 44.0981 11.4006 44.6329 10.9111C45.1653 10.424 45.6476 9.92028 46.075 9.40218C47.0514 10.6222 48.0876 11.613 49.1859 12.3771L49.7803 11.8733C50.2077 11.5677 50.7329 11.1117 51.3585 10.5004C51.984 9.89162 52.5092 9.28041 52.9366 8.6692C52.2036 7.57093 50.9526 6.30552 49.1859 4.87061C48.3311 5.57255 47.295 6.60874 46.075 7.98158C45.2202 6.97404 44.153 5.93784 42.871 4.87061C41.6199 5.9068 40.3999 7.17459 39.2109 8.6692L39.6216 9.21834C39.8961 9.58363 40.3378 10.0802 40.949 10.7058V10.7034Z" fill="white"/>
<path d="M46.6247 15.1633C45.4644 15.1633 44.3757 15.5286 43.3539 16.2616C42.332 16.9946 41.5012 17.9019 40.8613 18.9834C40.2215 20.0674 39.7106 21.1107 39.3286 22.1183C38.9466 23.1258 38.7102 24.0092 38.6195 24.7732C38.5884 25.2006 38.8248 26.2678 39.3286 27.9773C39.8323 29.6868 40.2358 30.6776 40.5414 30.9522C41.6086 31.8977 43.0268 32.3704 44.7959 32.3704C45.5886 32.3704 46.4671 32.2725 47.4269 32.072C48.3867 31.8738 48.9597 31.6995 49.1435 31.5467L50.2871 28.801C50.6214 30.2359 50.7909 31.6231 50.7909 32.9649C50.7909 33.514 50.7742 33.9247 50.7455 34.1993C48.7018 34.3521 46.46 34.4285 44.02 34.4285H36.6999L36.6307 34.4404L36.5615 34.4285H32.1231C33.527 32.8121 34.2289 31.3032 34.2289 29.8993C34.2289 27.2754 33.6344 24.821 32.4454 22.5337C31.2565 20.2464 29.7142 19.1028 27.8233 19.1028C25.9324 19.1028 24.0176 20.1485 22.2652 22.2376C20.5104 24.3267 19.4981 26.2105 19.2235 27.889C19.1615 28.1325 19.1925 28.8965 19.3143 30.1762C19.436 31.4584 19.5721 32.4182 19.7249 33.058C19.8467 33.5475 20.3958 34.2184 21.3723 35.0707C19.2068 35.3143 16.6427 35.436 13.6846 35.436C7.55352 35.436 4.48799 33.1798 4.48799 28.6649C4.48799 27.1393 4.99175 25.1887 5.99688 22.8083L4.34951 21.9392L3.34199 23.4481C2.67111 24.4557 2.00739 25.8739 1.35083 27.7027C0.694273 29.534 0.367188 31.2721 0.367188 32.9195C0.367188 39.2657 4.51425 42.4363 12.8131 42.4363C18.5789 42.4363 23.3372 41.338 27.0879 39.1415C29.8335 40.6671 32.5481 41.4288 35.2316 41.4288H36.5591L36.6283 41.4168L36.6976 41.4288H42.418C44.3089 41.4288 45.9419 41.307 47.3147 41.0635C48.6875 40.82 49.5876 40.5764 50.0149 40.3305C50.2274 40.2995 50.8697 39.3707 51.9369 37.5395C53.0041 35.7082 53.6917 34.3067 53.9949 33.3302C54.2074 32.6593 54.3148 31.7282 54.3148 30.5392C54.3148 26.5424 53.5747 22.9826 52.0968 19.8549C50.6166 16.7296 48.7949 15.1657 46.6295 15.1657L46.6247 15.1633ZM45.2519 26.5114C43.3921 26.5114 41.9261 26.3275 40.8589 25.9622C41.2863 24.7732 41.9047 23.7895 42.7116 23.0112C43.5186 22.2329 44.3351 21.8437 45.1588 21.8437C46.8348 21.8437 48.2554 23.2476 49.4133 26.0529C48.1933 26.3586 46.8062 26.5114 45.2495 26.5114H45.2519ZM28.5037 33.5594L27.9092 33.8793C25.5002 33.0556 23.287 31.6374 21.2744 29.6247C21.9142 28.6172 22.6782 27.7935 23.5616 27.1536C24.445 26.5137 25.2997 26.1938 26.1234 26.1938C27.2527 26.1938 28.1981 26.8265 28.9597 28.0919C29.7213 29.3573 30.1797 30.723 30.3325 32.1866C29.8144 32.7047 29.2032 33.1631 28.5013 33.5594H28.5037Z" fill="white"/>
<path d="M57.9688 3.63614C57.9998 3.91071 58.303 22.1802 58.8832 41.4287H61.3542C61.3852 41.338 62.2853 38.4251 64.0544 32.6902V-0.0693359H62.4524L57.9688 3.63614Z" fill="white"/>
<path d="M117.593 22.4858H115.991L111.553 26.2844L113.384 36.2596C110.822 35.7105 108.38 34.7507 106.064 33.3778C106.551 29.3524 106.825 26.9267 106.887 26.103L105.698 25.5085L102.404 27.6143L100.023 34.34C99.596 34.4021 98.9251 34.4308 98.0107 34.4308C96.4254 34.4308 95.2198 34.3544 94.3961 34.2015C94.7017 31.7925 94.9285 29.8252 95.0813 28.2995L93.8923 27.705L90.7361 29.7177L88.9049 34.2923C88.0191 34.383 86.7227 34.4308 85.0156 34.4308H84.2827C83.7646 31.0762 82.8263 28.2542 81.4678 25.9669C80.1094 23.6796 78.5169 22.536 76.6857 22.536C75.1601 22.536 73.7563 23.1615 72.4766 24.4126C71.1945 25.6637 70.218 27.0508 69.5471 28.5765C68.8762 30.1021 68.4799 31.506 68.3582 32.7857C68.3271 33.2441 68.5945 34.457 69.158 36.4244C69.7214 38.3917 70.1559 39.5449 70.4615 39.8791C70.5833 40.063 70.8435 40.2612 71.2399 40.4736C71.6362 40.6885 72.3381 40.901 73.3456 41.1135C74.3531 41.3284 75.4967 41.4334 76.7764 41.4334H81.5801C80.6036 42.3479 79.3143 43.0641 77.7147 43.5846C76.1127 44.1027 74.4582 44.363 72.7511 44.363C71.5001 44.363 69.6092 44.1194 67.0785 43.63L66.1641 45.6427C66.6225 46.1608 68.0239 47.2137 70.3732 48.799C72.7225 50.3844 74.2171 51.1794 74.8569 51.1794C77.1751 51.1794 79.1281 50.2029 80.7134 48.2499C82.2987 46.2969 83.3683 44.0239 83.9174 41.4334H86.6177L87.3506 41.295V41.1159C87.7971 40.9726 88.1886 40.7816 88.5181 40.5405C89.3251 39.946 90.1583 38.948 91.0106 37.5441C91.438 38.4299 91.8797 39.1462 92.3381 39.6953C92.7965 40.2444 93.2978 40.6408 93.847 40.8843C94.3961 41.1278 94.8831 41.2806 95.3105 41.3427C95.7378 41.4048 96.287 41.4334 96.9579 41.4334C98.2686 41.4334 99.3382 41.1899 100.162 40.7005C100.986 40.2134 101.747 39.2202 102.449 37.7256C104.187 39.0674 105.973 40.1442 107.802 40.9512C109.633 41.7581 110.944 42.164 111.736 42.164C112.469 42.164 113.742 41.0132 115.556 38.7092C117.371 36.4053 118.278 34.8725 118.278 34.1108C118.278 32.738 118.049 28.8654 117.59 22.4882L117.593 22.4858ZM76.1843 34.4284C73.7133 34.4284 71.8367 34.1228 70.557 33.5139C71.0751 32.2629 71.7699 31.2028 72.6389 30.3337C73.508 29.4647 74.4295 29.0301 75.406 29.0301C76.4422 29.0301 77.4807 29.6413 78.5169 30.8614C79.5531 32.0814 80.286 33.2394 80.7134 34.3376L80.7588 34.4284H76.1843Z" fill="white"/>
<path d="M3.99534 54.6846C3.45577 55.1477 2.76578 55.3793 1.92539 55.3793C1.28316 55.3793 0.710159 55.3149 0.208787 55.1859L0.366361 53.6054C0.891607 53.8179 1.4264 53.9229 1.97314 53.9229C2.62731 53.9229 2.95439 53.6746 2.95439 53.178C2.95439 52.913 2.80398 52.6957 2.50555 52.5262L1.50997 52.1132C0.550197 51.7168 0.0703125 51.0674 0.0703125 50.1625C0.0703125 49.4749 0.318611 48.9306 0.815208 48.5295C1.32374 48.1164 2.02566 47.9087 2.92336 47.9087C3.39608 47.9087 3.83538 47.9564 4.23886 48.0496L4.08845 49.4988C3.68258 49.3555 3.26716 49.2839 2.84696 49.2839C2.18562 49.2839 1.85615 49.5107 1.85615 49.9668C1.85615 50.2103 2.00895 50.418 2.31455 50.5875L3.32684 51.0268C4.30332 51.459 4.79276 52.1036 4.79276 52.9631C4.79276 53.6579 4.52775 54.2333 4.00011 54.6846H3.99534Z" fill="#09C7AB"/>
<path d="M15.1804 55.2455H13.1606L12.3058 51.8504C12.1865 51.3013 12.0981 50.7521 12.0408 50.203H12.0313C11.9835 50.6924 11.8928 51.2249 11.7591 51.7931L10.8996 55.2455H8.99439L7.21094 48.0351H8.9729L9.81807 51.5448C9.93267 52.0534 10.0115 52.5547 10.052 53.0513H10.0616C10.1547 52.4139 10.2478 51.9268 10.3385 51.5902L11.2768 48.0327H12.9982L13.9365 51.5233C14.0559 51.9722 14.1514 52.4664 14.2278 53.0108H14.2373C14.297 52.5619 14.3853 52.0557 14.5023 51.4923L15.3117 48.0327H16.9805L15.1756 55.2431L15.1804 55.2455Z" fill="#09C7AB"/>
<path d="M23.1602 55.2456L22.7209 53.9109H20.2069L19.7795 55.2456H18.125L20.5196 48.0352H22.4965L24.9842 55.2456H23.1578H23.1602ZM21.7373 50.8238C21.6394 50.5349 21.5487 50.2007 21.4603 49.821H21.4388C21.3314 50.2795 21.2454 50.6185 21.1834 50.8334L20.6032 52.5954H22.315L21.7349 50.8214L21.7373 50.8238Z" fill="#09C7AB"/>
<path d="M34.1245 55.9499C33.4226 56.0573 32.7708 56 32.1691 55.778C31.4744 55.5177 30.9491 55.3864 30.5982 55.3864H30.2687C29.1728 55.3864 28.3396 55.0617 27.769 54.4099C27.2199 53.7868 26.9453 52.9034 26.9453 51.7597C26.9453 50.6161 27.2963 49.6563 27.9982 48.9329C28.6691 48.2405 29.5119 47.8943 30.5218 47.8943C31.6176 47.8943 32.4509 48.219 33.0215 48.8684C33.5706 49.4916 33.8451 50.3726 33.8451 51.5138C33.8451 52.932 33.4058 53.8918 32.5296 54.3884C32.6299 54.3908 32.8663 54.4338 33.2387 54.5126C33.53 54.5747 33.8237 54.5842 34.1197 54.5388V55.9475L34.1245 55.9499ZM30.4119 49.4152C29.9034 49.4152 29.4975 49.6038 29.1919 49.9786C28.872 50.3726 28.7121 50.9098 28.7121 51.595C28.7121 53.1039 29.2707 53.8584 30.3857 53.8584C30.8942 53.8584 31.3001 53.6698 31.6057 53.2949C31.9256 52.9058 32.0856 52.3709 32.0856 51.6881C32.0856 50.172 31.5269 49.4128 30.4119 49.4128V49.4152Z" fill="#09C7AB"/>
<path d="M36.6641 55.2456V48.0352H38.3281V55.2456H36.6641Z" fill="#09C7AB"/>
<path d="M43.2188 49.4557V50.9957H45.3985V52.3614H43.2188V55.2456H41.5547V48.0352H45.5299V49.4534H43.2188V49.4557Z" fill="#09C7AB"/>
<path d="M144.938 4.56494L152.009 15.7315L155.404 21.0916L167.752 40.5883V15.7315H172.952H178.217V40.5883L190.565 21.0916L193.96 15.7315L201.031 4.56494H144.938Z" fill="url(#paint0_linear_8748_137615)"/>
<path d="M172.95 15.7314H167.75V40.5882L172.983 48.8515L178.214 40.5882V15.7314H172.95Z" fill="url(#paint1_linear_8748_137615)"/>
<path d="M201.031 45.189V15.7314H194.05H193.96L190.565 21.0915V45.54H178.219L178.217 40.5882V15.7314H172.952H167.752V40.5882V45.54H155.407L155.404 45.189V21.0915L152.009 15.7314H144.938V45.54V55.8471V56.0524L159.847 56.007H201.053V55.8471H201.077L201.031 45.189Z" fill="white"/>
<path d="M201.074 -0.0524902H144.938V4.60562H201.074V-0.0524902Z" fill="white"/>
</g>
<defs>
<linearGradient id="paint0_linear_8748_137615" x1="172.986" y1="49.0951" x2="172.986" y2="4.72968" gradientUnits="userSpaceOnUse">
<stop stop-color="#0D0035"/>
<stop offset="1" stop-color="#09C7AB"/>
</linearGradient>
<linearGradient id="paint1_linear_8748_137615" x1="167.75" y1="32.2915" x2="178.214" y2="32.2915" gradientUnits="userSpaceOnUse">
<stop stop-color="#0D0035"/>
<stop offset="1" stop-color="#09C7AB"/>
</linearGradient>
<clipPath id="clip0_8748_137615">
<rect width="201" height="56" fill="white"/>
</clipPath>
</defs>
</svg>
