<svg width="130" height="130" viewBox="0 0 130 130" fill="none" xmlns="http://www.w3.org/2000/svg">
<g clip-path="url(#clip0_2928_533042)">
<path d="M125.05 81.4684C122.065 83.3598 119.129 85.3335 116.236 87.3653C113.658 89.1794 111.22 91.1966 108.632 92.9913C101.753 97.766 94.5544 102.009 86.9934 105.617C79.3694 109.255 71.4552 112.08 63.2411 114.01C57.6537 115.326 51.9358 115.525 46.2323 115.196C42.0285 114.954 37.8199 114.475 33.6741 113.74C29.9057 113.072 26.4614 111.437 23.3508 109.12C21.2949 107.586 18.9825 108.094 17.4974 110.15C15.5576 112.825 13.7483 115.626 11.5666 118.088C9.28329 120.662 6.32758 122.244 2.69943 121.649C1.52875 121.455 0.662832 120.88 0.00976562 120.101V121.117C0.00976562 126.211 4.13618 130.337 9.23009 130.337H121.127C126.221 130.337 130.347 126.211 130.347 121.117V78.4014C130.207 78.5223 130.086 78.6626 129.941 78.7787C128.495 79.9107 126.618 80.4718 125.045 81.4684H125.05Z" fill="#020263"/>
<path d="M4.93921 68.6009C5.56809 67.2319 5.98895 65.7661 6.54527 64.3633C6.64686 64.1069 6.9613 63.9327 7.17898 63.7247C7.3096 63.7973 7.44505 63.8698 7.57566 63.9424C7.3483 65.5581 7.12578 67.1739 6.88874 68.7848C6.5356 71.1697 6.16796 73.5546 5.80514 75.9395C5.37944 78.7065 4.94405 81.4736 4.52319 84.2455C4.1507 86.6691 3.78788 89.0927 3.4299 91.5211C3.12514 93.6013 2.72846 95.6766 2.54947 97.7664C2.206 101.825 2.36082 105.772 6.34694 108.283C8.89632 109.894 11.9149 109.734 14.2853 107.751C16.1139 106.218 17.5555 104.215 19.1422 102.396C20.8499 100.437 22.6155 98.4291 25.3197 98.076C26.6549 97.9018 28.1207 98.4001 29.4752 98.7822C32.1213 99.5321 34.69 100.553 37.3603 101.191C40.258 101.883 43.3008 102.062 46.2469 102.304C48.7188 102.512 51.2005 102.643 53.6821 102.56C56.9717 102.449 60.2757 102.12 63.5313 101.641C67.2901 101.095 71.0392 100.383 74.7351 99.503C81.2657 97.9502 87.6174 95.7782 93.7562 93.0643C97.2683 91.5115 100.732 89.8328 104.157 88.0816C109.986 85.1017 115.293 81.2849 120.716 77.6519C123.875 75.5379 127.111 73.5352 130.347 71.5325V9.22032C130.347 4.12641 126.221 0 121.127 0H9.23009C4.13618 0 0.00976562 4.12641 0.00976562 9.22032V89.4023C0.266155 87.6559 0.532224 85.9144 0.832151 84.1778C1.75128 78.871 2.66557 73.5546 4.94405 68.5961L4.93921 68.6009ZM19.5292 80.956C20.9079 78.2324 22.3301 75.5234 23.8588 72.8821C24.0716 72.5145 24.9859 72.35 25.5326 72.4177C27.811 72.7128 31.5118 76.3023 31.3134 78.7984C31.2312 80.7528 30.2008 82.3298 29.1704 83.873C28.6286 84.6809 27.8691 85.3388 27.2402 86.0934C26.5823 86.8819 25.7938 86.8578 25.0343 86.3885C23.3799 85.3726 21.7642 84.2987 20.1436 83.2296C19.2777 82.6588 19.118 81.7832 19.5389 80.9511L19.5292 80.956Z" fill="#020263"/>
<path d="M120.715 77.6577C115.293 81.2907 109.981 85.1075 104.157 88.0874C100.737 89.8386 97.2729 91.5172 93.756 93.07C87.6123 95.7887 81.2655 97.9559 74.7349 99.5088C71.039 100.389 67.2899 101.1 63.5311 101.647C60.1304 102.14 56.6861 102.484 53.2466 102.576C50.1893 102.658 47.1126 102.382 44.0553 102.131C41.8107 101.947 39.5419 101.715 37.3553 101.192C34.6898 100.554 32.1163 99.5281 29.4702 98.7832C28.1157 98.401 26.6499 97.9027 25.3147 98.0769C22.6105 98.43 20.8497 100.442 19.1372 102.397C17.5505 104.216 16.1089 106.218 14.2803 107.752C11.9148 109.735 8.89136 109.895 6.34198 108.284C2.3607 105.769 2.20108 101.826 2.54454 97.7673C2.72353 95.6775 3.11534 93.6022 3.42494 91.522C3.78292 89.0984 4.15058 86.67 4.51823 84.2464C4.94393 81.4745 5.37932 78.7074 5.80018 75.9403C6.16783 73.5554 6.53064 71.1705 6.88378 68.7856C7.12082 67.1747 7.34334 65.559 7.5707 63.9433C7.44009 63.8707 7.30464 63.7981 7.17402 63.7256C6.95633 63.9384 6.6419 64.1078 6.54031 64.3641C5.97916 65.767 5.56315 67.2328 4.93428 68.6018C2.6558 73.5603 1.74151 78.8767 0.822384 84.1835C0.522458 85.9202 0.256389 87.6617 0 89.408V120.107C0.648228 120.886 1.51898 121.461 2.68966 121.655C6.3178 122.25 9.27353 120.668 11.5568 118.095C13.7434 115.632 15.5526 112.831 17.4876 110.156C18.9776 108.1 21.2851 107.597 23.341 109.126C26.4516 111.443 29.8959 113.083 33.6643 113.746C37.81 114.481 42.0187 114.955 46.2225 115.202C51.9211 115.531 57.639 115.332 63.2312 114.017C71.4453 112.082 79.3644 109.256 86.9835 105.623C94.5445 102.015 101.743 97.777 108.622 92.9975C111.21 91.1979 113.648 89.1855 116.226 87.3714C119.119 85.3397 122.055 83.366 125.04 81.4745C126.612 80.478 128.489 79.9168 129.936 78.7848C130.081 78.6687 130.202 78.5284 130.342 78.4075V71.543C127.106 73.5458 123.87 75.5437 120.711 77.6625L120.715 77.6577Z" fill="#DAB786"/>
<path d="M20.1442 83.2322C21.7648 84.2964 23.3805 85.3752 25.0349 86.3911C25.7944 86.8555 26.5829 86.8845 27.2408 86.096C27.8697 85.3462 28.6292 84.6834 29.171 83.8756C30.2014 82.3324 31.2366 80.7553 31.314 78.801C31.5124 76.3048 27.8117 72.7154 25.5332 72.4203C24.9865 72.3477 24.0723 72.517 23.8594 72.8847C22.3308 75.526 20.9085 78.235 19.5298 80.9585C19.109 81.7906 19.2686 82.6662 20.1345 83.237L20.1442 83.2322Z" fill="#DAB786"/>
</g>
<defs>
<clipPath id="clip0_2928_533042">
<path d="M0 4C0 1.79086 1.79086 0 4 0H126C128.209 0 130 1.79086 130 4V126C130 128.209 128.209 130 126 130H4C1.79086 130 0 128.209 0 126V4Z" fill="white"/>
</clipPath>
</defs>
</svg>
